<svg width="36" height="36" viewBox="0 0 36 36" fill="none" xmlns="http://www.w3.org/2000/svg">
<path d="M26.6653 9.55744H23.2009H22.2809C21.4889 9.55744 20.8468 10.1995 20.8468 10.9916V16.0235H26.6653L25.8131 21.5629H20.8468V31.7243H14.4482V21.5629H9.16528V16.0235H14.3799L14.4482 10.7654L14.4385 9.81075C14.4065 6.64258 16.9488 4.04832 20.1169 4.01628C20.1363 4.01609 20.1556 4.01599 20.1749 4.01599H26.6653V9.55744Z" fill="white"/>
<path fill-rule="evenodd" clip-rule="evenodd" d="M20.1749 5.10974L20.1281 5.10998C17.564 5.13591 15.5063 7.23552 15.5322 9.79964C15.5322 9.79962 15.5322 9.79966 15.5322 9.79964L15.5419 10.7543L15.5418 10.7796L15.4736 16.0377C15.4658 16.6361 14.9784 17.1172 14.3799 17.1172H10.259V20.4691H14.4482C15.0522 20.4691 15.5419 20.9588 15.5419 21.5629V30.6306H19.753V21.5629C19.753 20.9588 20.2427 20.4691 20.8468 20.4691H24.8747L25.3904 17.1172H20.8468C20.2427 17.1172 19.753 16.6275 19.753 16.0235V10.9916C19.753 9.59552 20.8848 8.46369 22.2809 8.46369H25.5715V5.10974H20.1749ZM20.1059 2.92259L20.1749 2.92224H26.6653C27.2693 2.92224 27.759 3.41193 27.759 4.01599V9.55744C27.759 10.1615 27.2693 10.6512 26.6653 10.6512H22.2809C22.093 10.6512 21.9405 10.8036 21.9405 10.9916V14.9297H26.6653C26.9844 14.9297 27.2876 15.0691 27.4954 15.3113C27.7032 15.5535 27.7948 15.8744 27.7463 16.1898L26.8941 21.7292C26.8121 22.2628 26.353 22.6566 25.8131 22.6566H21.9405V31.7243C21.9405 32.3284 21.4508 32.8181 20.8468 32.8181H14.4482C13.8441 32.8181 13.3544 32.3284 13.3544 31.7243V22.6566H9.16528C8.56122 22.6566 8.07153 22.1669 8.07153 21.5629V16.0235C8.07153 15.4194 8.56122 14.9297 9.16528 14.9297H13.3003L13.3543 10.7638L13.3448 9.82186C13.3067 6.0497 16.3337 2.96078 20.1059 2.92259Z" fill="white"/>
</svg>
