<svg width="40" height="40" viewBox="0 0 40 40" fill="none" xmlns="http://www.w3.org/2000/svg">
<path d="M34.1025 6.17983C34.1025 6.17983 37.2894 4.93719 37.0238 7.95504C36.9353 9.19769 36.1386 13.5469 35.5189 18.2513L33.3944 32.1866C33.3944 32.1866 33.2174 34.2281 31.6239 34.5832C30.0305 34.9382 27.6404 33.3405 27.1977 32.9854C26.8436 32.7192 20.5586 28.7249 18.3455 26.7722C17.7258 26.2397 17.0176 25.1745 18.434 23.9319L27.7289 15.0559C28.7912 13.9908 29.8535 11.5055 25.4273 14.5233L13.0341 22.9556C13.0341 22.9556 11.6177 23.8431 8.96209 23.0443L3.20806 21.2691C3.20806 21.2691 1.08351 19.9377 4.71295 18.6062C13.5653 14.4345 24.4536 10.174 34.1025 6.17983Z" fill="white"/>
</svg>
