<svg width="37" height="38" viewBox="0 0 37 38" fill="none" xmlns="http://www.w3.org/2000/svg">
<path d="M4.45142 27.9369C5.89806 28.7589 16.37 34.9631 23.8163 30.1814C31.2626 25.3997 30.8519 17.1614 30.8519 13.3864C31.5264 11.934 32.9514 11.1957 32.9514 7.26434C31.5517 8.59325 30.1604 9.04542 28.7777 8.62085C27.4229 6.49795 25.559 5.559 23.186 5.80402C19.6264 6.17156 18.3241 9.76083 18.7073 14.4045C13.2188 17.2571 8.91504 12.3366 6.69705 8.62085C5.95597 11.5472 5.24139 15.0604 6.69705 18.9469C7.66749 21.5378 10.0003 23.7283 13.6955 25.5183C9.95064 27.6043 6.86928 28.4105 4.45142 27.9369Z" fill="white"/>
<path fill-rule="evenodd" clip-rule="evenodd" d="M29.4539 7.59348C28.7367 6.58277 27.8754 5.79826 26.8589 5.28618C25.7118 4.70834 24.4371 4.51274 23.0735 4.65352C20.8725 4.88079 19.3351 6.14227 18.4569 7.99407C17.7067 9.57578 17.4451 11.5571 17.5347 13.6779C15.4879 14.4927 13.6818 14.0514 12.0811 13.0012C10.2499 11.7996 8.72714 9.8106 7.65601 8.01617C7.42015 7.62104 6.97749 7.40889 6.53138 7.47717C6.08528 7.54544 5.72197 7.88095 5.60836 8.32956C4.85877 11.2895 4.05575 15.1132 5.64719 19.3622C6.55864 21.7956 8.47474 23.8191 11.2277 25.4883C8.49153 26.7495 6.32305 27.1263 4.66206 26.801C4.119 26.6946 3.58122 27.0096 3.39338 27.5439C3.20554 28.0783 3.42331 28.6738 3.90713 28.9487C3.94131 28.9681 3.98077 28.9907 4.02533 29.0162C4.92376 29.5301 7.89675 31.2307 11.5852 32.2752C15.4273 33.3631 20.2912 33.8084 24.4125 31.1619C32.055 26.2542 32.0038 17.9369 31.9794 13.9765C31.9788 13.871 31.9781 13.7685 31.9777 13.6693C32.0839 13.4796 32.2156 13.283 32.3857 13.0337C32.3937 13.0219 32.4019 13.01 32.4101 12.998C32.6297 12.6762 32.9005 12.2794 33.1495 11.7948C33.6874 10.7477 34.0765 9.39008 34.0765 7.26429C34.0765 6.80496 33.8119 6.38918 33.4025 6.20503C32.993 6.02088 32.5164 6.10328 32.1881 6.41496C31.1338 7.41588 30.2462 7.71039 29.4539 7.59348ZM25.8686 7.36267C25.1518 7.00156 24.308 6.8502 23.2985 6.95444C21.94 7.09471 21.0464 7.81163 20.4794 9.00727C19.8807 10.2697 19.6456 12.0921 19.8284 14.3067C19.8671 14.7765 19.6245 15.2235 19.2151 15.4363C16.0498 17.0814 13.1771 16.4638 10.8704 14.9503C9.44608 14.0158 8.22627 12.7379 7.2319 11.4382C6.85477 13.64 6.79998 16.003 7.74698 18.5314C8.57087 20.7311 10.6106 22.7456 14.1751 24.4723C14.5588 24.6582 14.8081 25.05 14.8201 25.4857C14.832 25.9215 14.6044 26.3271 14.2316 26.5348C12.2899 27.6164 10.4656 28.3956 8.77331 28.8286C9.78475 29.2613 10.9412 29.6942 12.1828 30.0457C15.7999 31.07 19.8952 31.336 23.2203 29.2007C29.7687 24.9956 29.7429 17.9236 29.7282 13.914C29.7275 13.7316 29.7269 13.5556 29.7269 13.3864C29.7269 13.214 29.7644 13.0439 29.8366 12.8883C30.0493 12.4304 30.3154 12.0403 30.5364 11.7163L30.5446 11.7044C30.7772 11.3634 30.9778 11.0694 31.1598 10.7151C31.3166 10.4099 31.4692 10.0403 31.5888 9.55665C30.5896 9.97527 29.5383 10.0611 28.4557 9.72867C28.2016 9.65065 27.9824 9.48286 27.837 9.25494C27.2491 8.33368 26.5877 7.72493 25.8686 7.36267Z" fill="white"/>
</svg>
