<svg width="499" height="93" viewBox="0 0 499 93" fill="none" xmlns="http://www.w3.org/2000/svg">
<path d="M108.671 0.475569C108.259 0.269524 107.744 0.166504 107.332 0.166504C97.5451 0.166504 76.2198 35.0905 70.5536 44.6715C65.8147 41.6839 60.1485 39.5204 54.4824 39.5204C52.1129 39.5204 49.7434 39.8295 47.477 40.7567C40.7806 43.2292 37.793 47.6591 37.793 52.192C37.793 58.9914 44.1803 65.9968 54.2764 67.7481C47.2709 75.6807 27.1819 89.8976 13.3771 89.8976C12.759 89.8976 12.1408 89.7946 11.5227 89.7946C8.22606 89.3825 4.10523 88.4553 2.14783 85.6738C1.52971 84.8496 1.22064 83.7164 1.22064 82.6862C1.22064 81.5529 1.52971 80.5227 2.35387 79.8016C2.45689 79.6986 2.4569 79.6986 2.4569 79.5955L2.35387 79.4925H2.25085C0.911584 80.3167 0.293457 81.759 0.293457 83.4073V83.8194C0.499499 85.8798 1.73575 87.8372 3.38408 88.9704C6.78377 91.2369 10.8016 92.2671 15.1285 92.2671C31.0967 92.2671 50.9797 78.6684 59.5304 68.2633H60.9727C67.9781 68.2633 74.9835 66.6149 81.3708 63.4213C80.4436 66.5119 79.8255 70.3237 79.8255 74.0324C79.8255 79.0804 81.0618 84.1284 84.4614 87.1161C84.5645 87.2191 84.6675 87.3221 84.7705 87.3221C85.0796 87.3221 85.2856 87.013 85.2856 86.807V86.601C83.8433 83.2013 83.2252 79.9046 83.2252 76.6079C83.2252 70.9418 85.0796 65.3787 87.14 59.4035C88.1702 56.5189 89.3034 53.7373 90.4366 50.8527C95.1756 39.2114 101.254 28.0851 106.199 16.4438C107.538 13.1471 108.877 9.74744 109.702 6.24473C109.908 5.62661 110.011 4.5964 110.011 3.56619C110.011 2.32994 109.702 0.990673 108.671 0.475569ZM54.8945 67.13C46.3438 65.8938 39.9565 60.8458 38.7202 54.9736C38.5142 54.3554 38.4112 53.6343 38.4112 52.9132C38.4112 48.9984 40.8836 44.8775 46.3438 42.508C48.6102 41.5809 50.8767 41.1688 53.1431 41.1688C58.0881 41.1688 62.9301 43.0231 67.154 45.7017C67.7721 46.2168 68.3902 46.5259 69.0083 47.041C64.6814 54.0464 60.2516 60.9488 54.8945 67.13ZM81.4738 62.9062C74.9835 65.9968 67.9781 67.5421 60.8697 67.5421H60.0455C64.5784 61.876 68.5962 55.7977 72.408 49.6165C76.5288 53.0162 79.6195 56.7249 81.8859 61.7729L81.4738 62.9062ZM108.465 3.97827C107.538 6.75983 103.623 12.426 101.975 15.8257C96.7209 27.0549 90.9518 38.1812 86.4188 49.6165C85.2856 52.295 84.2554 54.9736 83.3282 57.6521C81.1648 53.3252 77.7651 49.9255 73.9533 47.041C76.7349 42.508 98.9874 0.887652 107.126 0.887652C107.538 0.887652 107.95 0.990672 108.259 1.19671C108.568 1.50578 108.774 1.91786 108.774 2.43296C108.774 2.94807 108.568 3.56619 108.465 3.97827Z" fill="#F5F5F5"/>
<path d="M148.437 58.8884C148.437 63.5243 146.892 67.3361 143.904 70.2206C140.814 73.1052 136.693 74.6505 131.439 74.7536H117.119V41.7869H125.979C129.791 41.6839 133.499 42.199 136.899 43.2292C140.299 44.2594 143.08 46.0108 145.244 48.4833C147.407 51.0588 148.437 54.4585 148.437 58.8884ZM117.119 10.1595H127.73C137.208 10.2625 142.256 14.8985 142.771 23.9643C142.668 28.9093 141.02 32.6181 137.826 35.1936C134.53 37.7691 130.306 39.0053 125.258 38.9023H117.119V10.1595ZM103.52 7.89306C105.375 7.89306 107.023 8.30515 108.362 9.12931C109.702 10.0565 110.32 11.4988 110.32 13.5592V71.3539C110.32 73.4143 109.702 74.8566 108.362 75.6807C107.023 76.6079 105.375 77.02 103.52 77.123V77.7412H129.275C132.16 77.7412 134.942 77.5351 137.62 77.2261C140.196 76.917 142.874 76.0928 145.45 74.7536C146.583 74.2384 147.51 73.6203 148.437 72.8992C152.97 69.2935 155.237 64.3485 155.237 58.0642C155.237 54.0464 154.104 50.6467 151.837 48.0712C149.468 45.4957 146.686 43.6413 143.286 42.302C139.887 41.0658 136.487 40.4476 132.984 40.3446C139.165 39.3144 143.492 37.5631 145.862 34.9875C148.231 32.515 149.468 28.6002 149.468 23.3462C149.262 17.8861 147.098 13.7653 143.08 11.0867C139.062 8.51119 134.633 7.17192 129.791 7.17192H103.52V7.89306Z" fill="#F5F5F5"/>
<path d="M229.023 44.5685C228.714 51.4709 227.169 57.24 224.181 61.876C221.193 66.5119 217.485 70.0146 212.952 72.178C207.492 74.7536 201.31 75.4747 194.614 74.2385C187.918 73.1052 181.942 70.0146 176.688 64.9666C171.434 59.9186 168.344 53.0162 167.417 44.2594C166.901 36.9449 168.241 30.1456 171.537 23.9643C174.731 17.8861 180.088 13.6622 187.403 11.2928C195.335 9.23234 202.444 9.43838 208.728 11.9109C215.012 14.4864 220.06 18.6072 223.769 24.3764C227.375 30.1456 229.126 36.8419 229.023 44.5685ZM200.074 6.34775C190.493 6.34775 182.251 8.92327 175.349 14.1773C168.447 19.4314 163.811 26.0247 161.647 34.0603C159.484 42.096 160.411 50.6467 164.635 59.6095C167.932 65.9968 172.568 70.8388 178.44 74.0324C184.312 77.2261 190.596 78.7714 197.499 78.5653C206.358 78.2563 213.673 75.9898 219.442 71.869C225.108 67.8512 229.332 62.7001 231.908 56.5189C234.483 50.3376 235.41 43.9503 234.792 37.46C233.865 27.8791 230.259 20.3586 223.975 14.6924C217.691 9.12931 209.655 6.34775 200.074 6.34775Z" fill="#F5F5F5"/>
<path d="M245.635 13.6622V56.931C246.15 65.1726 248.52 70.8388 252.847 73.8264C255.525 75.7838 258.513 77.123 261.706 77.7412C264.9 78.3593 268.094 78.6683 271.287 78.6683C284.783 78.1532 291.788 71.2508 292.51 57.7551V13.6622C292.51 11.6018 293.231 10.1595 294.57 9.23233C295.909 8.40817 297.455 7.99609 299.309 7.89306V7.27494H282.826V7.89306C284.68 7.99609 286.328 8.40817 287.668 9.23233C289.007 10.1595 289.625 11.6018 289.625 13.6622V53.6343C289.625 60.5367 288.08 65.8938 285.092 69.7055C282.104 73.6203 277.881 75.5777 272.626 75.6807C265.518 75.6807 260.367 73.8264 257.276 70.1176C254.083 66.5119 252.537 61.1548 252.434 54.2524V13.4562C252.434 11.6018 253.156 10.1595 254.598 9.23233C255.937 8.30515 257.482 7.89306 259.234 7.89306V7.27494H238.836V7.89306C240.69 7.99609 242.338 8.40817 243.678 9.23233C245.017 10.1595 245.635 11.6018 245.635 13.6622Z" fill="#F5F5F5"/>
<path d="M352.178 7.27494C338.888 7.17192 325.702 7.17192 312.412 7.27494C310.351 7.27494 308.394 7.0689 306.54 6.65682L302.419 23.4492L303.037 23.5522C304.17 19.4314 305.819 16.1347 308.188 13.7653C310.557 11.3958 313.957 10.2625 318.49 10.2625H328.895V71.3539C328.895 73.4143 328.277 74.8566 326.938 75.6807C325.598 76.6079 323.95 77.02 322.096 77.123V77.7412H342.494V77.123C340.743 77.02 339.094 76.6079 337.755 75.6807C336.416 74.8566 335.695 73.4143 335.695 71.4569V10.2625H346.203C350.736 10.2625 354.135 11.3958 356.505 13.7653C358.874 16.1347 360.523 19.4314 361.656 23.5522L362.274 23.4492L358.05 6.65682C356.299 7.0689 354.341 7.27494 352.178 7.27494Z" fill="#F5F5F5"/>
<path d="M398.959 13.6622V56.931C399.474 65.1726 401.844 70.8388 406.17 73.8264C408.849 75.7838 411.837 77.123 415.03 77.7412C418.224 78.3593 421.418 78.6683 424.611 78.6683C438.107 78.1532 445.112 71.2508 445.833 57.7551V13.6622C445.833 11.6018 446.555 10.1595 447.894 9.23233C449.233 8.40817 450.778 7.99609 452.633 7.89306V7.27494H436.149V7.89306C438.004 7.99609 439.652 8.40817 440.991 9.23233C442.331 10.1595 442.949 11.6018 442.949 13.6622V53.6343C442.949 60.5367 441.404 65.8938 438.416 69.7055C435.428 73.6203 431.204 75.5777 425.95 75.6807C418.842 75.6807 413.691 73.8264 410.6 70.1176C407.407 66.5119 405.861 61.1548 405.758 54.2524V13.4562C405.758 11.6018 406.479 10.1595 407.922 9.23233C409.261 8.30515 410.806 7.89306 412.558 7.89306V7.27494H392.16V7.89306C394.014 7.99609 395.662 8.40817 397.002 9.23233C398.341 10.1595 398.959 11.6018 398.959 13.6622Z" fill="#F5F5F5"/>
<path d="M457.415 73.8264C460.197 75.7838 463.493 77.02 467.202 77.6381C470.911 78.3593 474.311 78.6684 477.298 78.5653C482.964 78.6684 487.806 77.2261 491.927 74.3415C496.048 71.5599 498.314 66.924 498.727 60.6397C498.727 54.5615 496.666 49.7195 492.648 46.1138C488.527 42.6111 483.892 39.6235 478.74 37.151C474.723 35.0905 471.323 32.9271 468.335 30.6607C465.348 28.3942 463.699 25.6126 463.39 22.316C463.287 18.2982 464.627 15.0015 467.511 12.632C470.293 10.2625 473.898 9.12931 478.225 9.23233C482.037 9.33535 485.231 10.5716 488.012 12.9411C490.794 15.3106 492.648 19.5344 493.678 25.6126L496.563 25.5096L494.709 11.3958C491.721 8.82025 487.909 7.17192 483.273 6.65682C478.637 6.14171 474.311 6.24473 470.499 7.17192C463.802 8.92327 459.579 12.529 457.621 17.9891C455.664 23.4492 457.003 28.8063 461.536 33.9573C464.833 37.048 469.057 39.9325 474.105 42.508C479.256 45.0836 483.686 48.0712 487.497 51.4709C491.309 54.8705 492.751 59.1974 491.824 64.5545C491 68.0572 489.146 70.7357 486.261 72.6931C483.376 74.6505 480.183 75.5777 476.577 75.6807C472.353 75.7838 468.541 74.3415 465.142 71.5599C461.639 68.7784 459.373 64.3485 458.239 58.2702H455.355L457.415 73.8264Z" fill="#F5F5F5"/>
</svg>
