<svg width="674" height="65" viewBox="0 0 674 65" fill="none" xmlns="http://www.w3.org/2000/svg">
<path d="M56.4184 29.4482C57.3504 29.6633 58.2108 29.9501 59.0712 30.3802C56.2033 31.8859 54.124 32.6029 52.7618 32.6029C51.3995 32.6029 50.6826 32.2444 50.6109 31.5274C50.5392 30.8104 51.041 30.1652 52.0448 29.5916C53.0486 29.018 54.4825 28.9463 56.4184 29.4482ZM67.5315 7.65208C66.5994 6.50492 65.6674 5.57285 64.7353 4.85587C63.8032 4.1389 62.6561 3.49362 61.2938 2.99174C62.0825 2.34646 63.0863 1.84457 64.2334 1.55778C64.3051 1.48608 64.3768 1.48608 64.3768 1.41439C64.3768 1.34269 64.3768 1.27099 64.3768 1.19929C64.3051 1.12759 64.2334 1.0559 64.1617 1.0559C62.6561 1.27099 61.3655 1.77287 60.29 2.56155C57.0636 1.55778 53.8372 1.0559 50.4675 0.9842C43.0109 0.554011 35.9128 2.13136 29.2449 5.50115C25.0148 7.79548 21.0714 11.0219 17.4148 15.1803C13.7582 19.2671 11.2488 23.7124 9.95827 28.4444C9.24129 31.0255 9.0979 33.6783 9.52808 36.4029C10.03 39.0557 11.679 40.9198 14.4752 42.067C18.0601 43.0707 21.7167 42.5689 25.445 40.5613C29.1016 38.5538 32.3279 35.7576 35.1242 32.0293C37.7053 28.4444 39.3543 24.7878 40.2147 20.9879C41.0034 17.1879 40.3581 14.0332 38.2789 11.5955C38.0638 11.3804 37.777 11.237 37.3468 11.237C36.9166 11.1653 36.5581 11.3087 36.2713 11.5955C36.1996 11.6672 36.1996 11.6672 36.2713 11.7389C36.2713 11.7389 36.343 11.7389 36.4147 11.8105C36.4864 11.8105 36.5581 11.8105 36.6298 11.7389C36.8449 11.5238 37.06 11.4521 37.2751 11.5955C37.4185 11.7389 37.5619 11.9539 37.7053 12.169C38.7807 14.1049 38.8524 16.9728 37.9204 20.5577C36.9883 24.2143 35.3392 27.7991 32.9732 31.1689C30.6789 34.2519 28.0261 36.6179 25.0148 38.1953C22.0752 39.8443 19.1356 40.2745 16.2677 39.6293C13.4715 38.8406 11.679 36.833 10.962 33.75C10.2451 30.5953 10.8903 26.7954 13.0413 22.4218C15.1922 17.9766 19.2073 13.5313 25.1582 8.94264C29.8185 5.50115 35.3392 3.13513 41.6486 1.98797C48.0297 0.840803 53.9807 1.19929 59.5731 3.06343C57.2787 5.07097 55.2712 7.72378 53.4788 11.0936C51.758 14.4634 50.1807 17.7615 48.8184 20.9879C48.2448 22.3501 47.6712 23.569 47.1694 24.7161C45.592 28.0142 44.0147 31.3123 42.4373 34.5387C40.9317 37.4783 39.2826 40.633 37.2751 44.0028C35.3393 47.3726 33.26 50.2405 31.1808 52.6782C28.0261 56.048 24.011 58.8442 19.2073 60.9235C14.4035 63.0027 9.81487 63.2178 5.29792 61.6404C3.64887 60.9952 2.43001 59.848 1.56964 58.2707C0.852663 56.765 0.709267 55.1877 1.28285 53.6103C1.28285 53.5386 1.28285 53.4669 1.21115 53.4669H1.13945C1.13945 53.3952 1.06776 53.4669 1.06776 53.4669C0.279082 54.6141 0.0639884 55.8329 0.35078 57.1952C0.709268 58.5574 1.28285 59.7046 2.21492 60.6367C4.86773 63.2895 8.73941 64.4366 13.8299 64.0782C20.5695 63.2895 26.2336 60.8518 30.8223 56.6933C35.4109 52.5348 39.2826 47.516 42.4373 41.7085C45.6637 35.901 48.4599 30.0218 50.826 24.1426C51.2561 23.1388 51.6863 22.135 52.1165 21.2029C52.6901 19.9124 53.2637 18.4067 53.9807 16.6143C54.841 14.0332 55.8448 11.5238 56.992 9.01434C58.1391 6.50492 59.2863 4.71248 60.5051 3.49362C64.2334 5.28606 66.4561 8.08227 67.173 11.8823C67.89 15.6822 67.3881 19.3388 65.6674 22.9237C65.0221 24.1426 64.1617 25.4331 62.9429 26.8671C61.7957 28.301 60.6485 29.3765 59.5014 30.0935C58.4976 29.5199 57.4221 29.0897 56.275 28.8029C54.2674 28.3727 52.7618 28.5161 51.6146 29.1614C50.5392 29.8784 50.0373 30.667 50.0373 31.5991C50.0373 32.5312 50.7543 33.1765 52.1165 33.5349C53.5505 33.8934 55.6297 33.535 58.5693 32.5312C59.358 32.2444 60.1466 31.8859 60.9353 31.4557C62.7278 32.6029 63.9466 34.2519 64.6636 36.2595C65.8825 39.916 65.9542 43.3575 64.9504 46.6556C63.8749 50.0254 61.9391 52.8933 58.9995 55.331C58.2108 56.048 57.0637 56.8367 55.4863 57.8405C53.909 58.8442 52.1882 59.7046 50.3241 60.4933C48.4599 61.2103 46.5958 61.6404 44.9467 61.7121C43.2977 61.8555 41.8637 61.5687 40.7883 60.8518C39.6411 59.7763 39.2826 58.5574 39.7128 57.1952C40.143 55.8329 40.86 54.7575 41.9354 53.8254C44.5166 51.6745 47.5996 50.0971 51.2561 49.0933C54.9127 48.0896 58.3542 47.8028 61.5806 48.1613C61.7957 48.233 61.9391 48.233 62.0108 48.0896C62.0825 48.0179 62.0825 47.8745 62.0108 47.8028C62.0108 47.6594 61.8674 47.5877 61.724 47.516C59.6448 47.1575 56.8486 47.3009 53.2637 47.9462C49.392 48.7349 45.9505 50.0971 42.8675 52.033C39.8562 54.0405 38.4939 56.4782 38.7807 59.4895C39.4977 62.1423 41.1468 63.5763 43.7996 63.7914C46.3807 64.0065 49.1769 63.5763 52.1165 62.5008C55.0561 61.4253 57.3504 60.3499 58.9278 59.2027C61.2938 57.6254 63.3013 55.6895 65.0221 53.3952C66.7428 51.1009 67.89 48.5915 68.4636 45.7236C68.8938 42.8557 68.5353 39.9877 67.3881 37.1198C66.3127 34.3236 64.3051 32.3161 61.5089 31.1689C65.7391 28.7312 68.4636 25.1463 69.8258 20.486C71.1164 15.8256 70.3994 11.5238 67.5315 7.65208Z" fill="#F5F5F5"/>
<path d="M127.544 11.0219L145.11 36.5462V51.6745C145.11 53.6103 144.106 54.8292 142.17 55.331C141.597 55.5461 140.951 55.6178 140.306 55.6178V56.048H154.502V55.6178C153.283 55.5461 152.136 55.2593 151.204 54.6858C150.272 54.1122 149.77 53.1084 149.77 51.7462V35.0406L164.827 10.8785C166.476 8.79924 168.555 7.65208 170.993 7.43699V7.00679H157.585V7.43699C158.159 7.43699 158.876 7.58038 159.808 7.86717C160.668 8.15396 161.385 8.58415 161.887 9.22943C162.389 9.87471 162.389 10.7351 161.815 11.7388C159.306 15.8256 156.725 19.9841 154.144 24.0708C152.28 27.0821 150.415 30.0935 148.48 33.1765C145.54 28.9463 142.672 24.7878 139.804 20.5577C137.725 17.5464 135.646 14.5351 133.567 11.4521C132.921 10.52 132.85 9.73131 133.28 9.15773C133.638 8.58415 134.284 8.15396 135.144 7.86717C135.933 7.58038 136.721 7.43699 137.367 7.43699V7.00679H121.593V7.43699C123.959 7.65208 125.895 8.79924 127.544 11.0219Z" fill="#F5F5F5"/>
<path d="M80.038 11.8823V41.9953C80.3964 47.7311 82.0455 51.6745 85.0568 53.7537C86.9209 55.116 89.0002 56.048 91.2228 56.4782C93.4454 56.9084 95.668 57.1235 97.8907 57.1235C107.283 56.765 112.159 51.9613 112.66 42.5689V11.8823C112.66 10.4483 113.162 9.44452 114.094 8.79924C115.026 8.22567 116.102 7.93888 117.392 7.86717V7.43699H105.921V7.86717C107.211 7.93888 108.359 8.22567 109.291 8.79924C110.223 9.44452 110.653 10.4483 110.653 11.8823V39.701C110.653 44.5047 109.577 48.233 107.498 50.8858C105.419 53.6103 102.479 54.9726 98.8228 55.0443C93.8756 55.0443 90.2907 53.7537 88.1398 51.1726C85.9172 48.6632 84.8417 44.9349 84.77 40.1311V11.7389C84.77 10.4483 85.2719 9.44452 86.2757 8.79924C87.2077 8.15396 88.2832 7.86717 89.5021 7.86717V7.43699H75.3059V7.86717C76.5965 7.93888 77.7436 8.22567 78.6757 8.79924C79.6078 9.44452 80.038 10.4483 80.038 11.8823Z" fill="#F5F5F5"/>
<path d="M207.253 13.4596L216.502 37.1915H198.219L207.253 13.4596ZM197.645 56.4782L197.574 56.048C196.068 55.9763 194.778 55.6178 193.63 54.8292C192.483 54.1122 192.196 52.8933 192.77 51.2443L197.43 39.2708H217.362L222.453 51.9613C222.74 52.8933 222.596 53.682 222.094 54.2556C221.521 54.9009 220.804 55.3311 219.872 55.5461C218.94 55.8329 218.151 55.9763 217.362 56.048V56.4782H234.283L234.355 56.048C232.849 55.9763 231.487 55.5461 230.268 54.7575C229.049 54.0405 228.117 53.0367 227.543 51.7462L209.906 7.36529H207.54C205.676 12.2407 203.811 17.1162 201.876 21.9916C198.004 31.9576 194.132 41.8519 190.189 51.8179C189.687 53.1084 188.827 54.1122 187.608 54.8292C186.389 55.5461 185.027 55.9763 183.593 56.048L183.664 56.4782H197.645Z" fill="#F5F5F5"/>
<path d="M270.412 11.4521C276.794 8.44076 282.673 7.93888 287.978 10.0181C293.212 12.0973 297.012 16.5426 299.378 23.2105H301.242L300.024 13.603C297.658 11.237 294.933 9.44452 291.993 8.36906C289.054 7.2936 285.827 6.79171 282.386 6.79171C276.578 6.79171 271.416 8.15397 266.899 10.9502C262.382 13.7464 259.084 17.4747 257.005 22.135C254.926 26.7954 254.496 32.1727 255.714 38.1236C257.292 44.3613 260.59 49.0217 265.537 52.248C270.484 55.4744 276.005 57.1235 282.099 57.1235C285.971 57.1235 289.699 56.4065 293.284 54.9726C295.793 53.9688 298.016 52.5348 299.952 50.6707L301.099 41.35H299.378C298.088 46.2971 296.009 49.8103 293.069 51.8896C290.129 53.9688 286.401 55.0443 281.884 55.0443C277.51 54.9726 273.495 53.6103 269.695 50.8141C265.895 48.0896 263.099 44.5764 261.379 40.2028C259.299 34.6821 259.084 29.2331 260.59 23.7124C262.095 18.2633 265.322 14.1766 270.412 11.4521Z" fill="#F5F5F5"/>
<path d="M352.607 33.3916C352.392 38.1953 351.317 42.2104 349.237 45.4368C347.158 48.6632 344.577 51.1009 341.422 52.6065C337.622 54.399 333.32 54.9009 328.66 54.0405C324 53.2518 319.841 51.1009 316.185 47.5877C312.528 44.0745 310.377 39.2708 309.732 33.1765C309.373 28.0859 310.305 23.3539 312.6 19.052C314.822 14.8219 318.551 11.8822 323.641 10.2332C329.162 8.79924 334.109 8.94264 338.483 10.6634C342.856 12.4558 346.369 15.3237 348.951 19.3388C351.46 23.3539 352.679 28.0142 352.607 33.3916ZM332.46 6.79171C325.792 6.79171 320.056 8.58416 315.253 12.2407C310.449 15.8973 307.222 20.486 305.717 26.0784C304.211 31.6708 304.856 37.6217 307.796 43.8594C310.09 48.3047 313.317 51.6745 317.404 53.8971C321.49 56.1197 325.864 57.1952 330.668 57.0518C336.834 56.8367 341.924 55.2593 345.939 52.3914C349.883 49.5952 352.822 46.0103 354.615 41.7085C356.407 37.4066 357.052 32.9614 356.622 28.4444C355.977 21.7765 353.467 16.5426 349.094 12.5992C344.72 8.72755 339.128 6.79171 332.46 6.79171Z" fill="#F5F5F5"/>
<path d="M359.436 56.048V56.4782H386.538C387.972 56.4065 389.334 56.5499 390.625 56.8367L393.493 45.15L393.063 45.0783C392.274 48.0179 391.127 50.2405 389.478 51.8896C387.829 53.5386 385.463 54.399 382.308 54.399H368.9V11.7389C368.9 10.3766 369.402 9.37283 370.334 8.72755C371.266 8.15397 372.414 7.86717 373.632 7.86717V7.36529H359.436V7.86717C360.727 7.86717 361.874 8.15397 362.806 8.72755C363.738 9.37283 364.168 10.3766 364.168 11.8105V52.033C364.168 53.4669 363.738 54.4707 362.806 55.0443C361.874 55.6895 360.727 55.9763 359.436 56.048Z" fill="#F5F5F5"/>
<path d="M395.635 56.048V56.4782H422.737C424.171 56.4065 425.533 56.5499 426.824 56.8367L429.692 45.15L429.261 45.0783C428.473 48.0179 427.326 50.2405 425.677 51.8896C424.028 53.5386 421.661 54.399 418.507 54.399H405.099V11.7389C405.099 10.3766 405.601 9.37283 406.533 8.72755C407.465 8.15397 408.613 7.86717 409.831 7.86717V7.36529H395.635V7.86717C396.926 7.86717 398.073 8.15397 399.005 8.72755C399.937 9.37283 400.367 10.3766 400.367 11.8105V52.033C400.367 53.4669 399.937 54.4707 399.005 55.0443C398.073 55.6895 396.926 55.9763 395.635 56.048Z" fill="#F5F5F5"/>
<path d="M441.298 9.44452H457.359C458.721 9.44452 459.868 9.87471 460.8 10.8068C461.732 11.7389 462.449 12.886 463.094 14.1049C463.668 15.3954 464.098 16.6143 464.457 17.7615L464.887 17.6898C464.457 15.969 463.955 14.1049 463.453 12.0256C462.951 9.94641 462.592 8.29737 462.234 7.00681C461.015 7.2936 459.725 7.43699 458.362 7.36529H431.834V7.86717C433.125 7.86717 434.272 8.15397 435.204 8.72755C436.136 9.37283 436.566 10.3766 436.566 11.8105V52.033C436.566 53.4669 436.136 54.4707 435.204 55.0443C434.272 55.6895 433.125 55.9763 431.834 56.048V56.4782H459.438C460.728 56.4782 461.947 56.6216 463.023 56.8367C463.453 55.1876 463.883 53.6103 464.241 52.033L465.962 45.15L465.532 45.0783C464.743 48.0179 463.596 50.2405 461.947 51.8896C460.298 53.5386 457.932 54.399 454.777 54.399H441.298V32.9614H451.838C452.913 32.9614 453.702 33.3916 454.204 34.1802C454.706 34.9689 455.064 35.901 455.279 36.9764C455.494 38.0519 455.566 38.984 455.566 39.7726H455.996V24.0709H455.566C455.566 24.9312 455.494 25.8633 455.279 26.8671C455.064 27.9425 454.706 28.8746 454.204 29.6633C453.63 30.4519 452.77 30.8821 451.694 30.8821H441.298V9.44452Z" fill="#F5F5F5"/>
<path d="M482.285 11.4521C488.666 8.44076 494.545 7.93888 499.851 10.0181C505.085 12.0973 508.884 16.5426 511.251 23.2105H513.115L511.896 13.603C509.53 11.237 506.805 9.44452 503.866 8.36906C500.926 7.2936 497.7 6.79171 494.258 6.79171C488.451 6.79171 483.288 8.15397 478.771 10.9502C474.255 13.7464 470.956 17.4747 468.877 22.135C466.798 26.7954 466.368 32.1727 467.587 38.1236C469.164 44.3613 472.462 49.0217 477.409 52.248C482.356 55.4744 487.877 57.1235 493.971 57.1235C497.843 57.1235 501.571 56.4065 505.156 54.9726C507.666 53.9688 509.888 52.5348 511.824 50.6707L512.971 41.35H511.251C509.96 46.2971 507.881 49.8103 504.941 51.8896C502.002 53.9688 498.273 55.0443 493.756 55.0443C489.383 54.9726 485.368 53.6103 481.568 50.8141C477.768 48.0896 474.971 44.5764 473.251 40.2028C471.172 34.6821 470.956 29.2331 472.462 23.7124C473.968 18.2633 477.194 14.1766 482.285 11.4521Z" fill="#F5F5F5"/>
<path d="M550.625 7.43699C541.376 7.36529 532.199 7.36529 522.95 7.43699C521.516 7.43699 520.153 7.2936 518.863 7.00681L515.995 18.6935L516.425 18.7652C517.214 15.8973 518.361 13.603 520.01 11.9539C521.659 10.3049 524.025 9.51622 527.18 9.51622H534.421V52.033C534.421 53.4669 533.991 54.4707 533.059 55.0443C532.127 55.6895 530.98 55.9763 529.689 56.048V56.4782H543.885V56.048C542.666 55.9763 541.519 55.6895 540.587 55.0443C539.655 54.4707 539.153 53.4669 539.153 52.1046V9.51622H546.466C549.621 9.51622 551.987 10.3049 553.636 11.9539C555.285 13.603 556.432 15.8973 557.221 18.7652L557.651 18.6935L554.712 7.00681C553.493 7.2936 552.131 7.43699 550.625 7.43699Z" fill="#F5F5F5"/>
<path d="M574.022 7.86717H574.094V7.36529H559.826V7.86717C561.188 7.86717 562.335 8.15397 563.267 8.72755C564.199 9.37283 564.629 10.3766 564.629 11.8105V52.033C564.629 53.4669 564.199 54.4707 563.267 55.0443C562.335 55.6895 561.188 55.9763 559.826 56.048V56.4782H574.094V56.048H574.022C572.803 55.9763 571.656 55.6895 570.724 55.0443C569.792 54.4707 569.29 53.4669 569.29 52.1046V11.7389C569.29 10.3766 569.792 9.37283 570.724 8.72755C571.656 8.15397 572.803 7.86717 574.022 7.86717Z" fill="#F5F5F5"/>
<path d="M622.874 33.3916C622.659 38.1953 621.583 42.2104 619.504 45.4368C617.425 48.6632 614.844 51.1009 611.689 52.6065C607.889 54.399 603.587 54.9009 598.927 54.0405C594.266 53.2518 590.108 51.1009 586.451 47.5877C582.795 44.0745 580.644 39.2708 579.999 33.1765C579.64 28.0859 580.572 23.3539 582.866 19.052C585.089 14.8219 588.817 11.8822 593.908 10.2332C599.429 8.79924 604.376 8.94264 608.749 10.6634C613.123 12.4558 616.636 15.3237 619.217 19.3388C621.727 23.3539 622.945 28.0142 622.874 33.3916ZM602.727 6.79171C596.059 6.79171 590.323 8.58416 585.519 12.2407C580.716 15.8973 577.489 20.486 575.983 26.0784C574.478 31.6708 575.123 37.6217 578.063 43.8594C580.357 48.3047 583.583 51.6745 587.67 53.8971C591.757 56.1197 596.13 57.1952 600.934 57.0518C607.1 56.8367 612.191 55.2593 616.206 52.3914C620.149 49.5952 623.089 46.0103 624.881 41.7085C626.674 37.4066 627.319 32.9614 626.889 28.4444C626.244 21.7765 623.734 16.5426 619.361 12.5992C614.987 8.72755 609.395 6.79171 602.727 6.79171Z" fill="#F5F5F5"/>
<path d="M634.157 11.8823V52.033C634.157 53.4669 633.726 54.4707 632.794 55.0443C631.862 55.6895 630.715 55.9763 629.353 56.048V56.4782H640.896V56.048C639.606 55.9763 638.53 55.6895 637.598 55.0443C636.666 54.4707 636.164 53.4669 636.164 52.033V13.3879L666.851 56.4782H668.858V11.8105C668.858 10.4483 669.36 9.44452 670.292 8.79924C671.224 8.22567 672.3 7.93888 673.59 7.86717V7.43699H662.119V7.86717C663.409 7.93888 664.556 8.22567 665.489 8.79924C666.421 9.44452 666.851 10.4483 666.851 11.8823V48.3047L637.741 7.43699H629.353V7.86717C630.715 7.93888 631.862 8.22567 632.794 8.79924C633.726 9.44452 634.157 10.4483 634.157 11.8823Z" fill="#F5F5F5"/>
</svg>
