<svg width="485" height="348" viewBox="0 0 485 348" fill="none" xmlns="http://www.w3.org/2000/svg">
<path d="M15.0425 103.375H13.3638V93.6529C13.3638 91.5073 12.9945 89.8981 12.2559 88.8253C11.5173 87.7302 10.4429 87.1826 9.03282 87.1826C8.11514 87.1826 7.19746 87.4173 6.27977 87.8866C5.36209 88.356 4.56751 89.0041 3.89604 89.831C3.22456 90.6356 2.74334 91.552 2.45237 92.5801V103.375H0.773682V78.902H2.45237V90.0992C3.16861 88.7359 4.16463 87.6519 5.44043 86.8474C6.71623 86.0428 8.07038 85.6405 9.50286 85.6405C10.4877 85.6405 11.327 85.8193 12.0209 86.1769C12.7147 86.5345 13.2855 87.0485 13.7331 87.719C14.1808 88.3895 14.5053 89.1941 14.7068 90.1328C14.9306 91.0715 15.0425 92.1442 15.0425 93.3511V103.375Z" fill="white" fill-opacity="0.19"/>
<path d="M29.015 103.375V85.9422H30.6937V103.375H29.015ZM29.015 81.9863V78.902H30.6937V81.9863H29.015Z" fill="white" fill-opacity="0.19"/>
<path d="M50.3689 103.71C48.9812 103.71 47.6942 103.476 46.5079 103.006C45.3217 102.537 44.2809 101.822 43.3856 100.861L44.1578 99.6873C45.1202 100.604 46.0939 101.274 47.0787 101.699C48.0635 102.101 49.1379 102.302 50.3018 102.302C51.8014 102.302 53.01 101.989 53.9277 101.364C54.8678 100.738 55.3378 99.8661 55.3378 98.7486C55.3378 97.9887 55.114 97.4076 54.6664 97.0053C54.2411 96.5807 53.6144 96.2454 52.7862 95.9996C51.9805 95.7314 50.9956 95.452 49.8317 95.1615C48.6455 94.8486 47.6383 94.5245 46.8101 94.1892C46.0043 93.854 45.4 93.4182 44.9971 92.8818C44.5942 92.3454 44.3928 91.619 44.3928 90.7027C44.3928 89.5628 44.6726 88.6242 45.2321 87.8866C45.8141 87.1267 46.5863 86.568 47.5487 86.2104C48.5336 85.8304 49.6191 85.6405 50.8054 85.6405C52.1707 85.6405 53.357 85.864 54.3642 86.311C55.3938 86.758 56.1772 87.3502 56.7144 88.0878L55.8079 89.1606C55.2483 88.4454 54.5209 87.9201 53.6256 87.5849C52.7303 87.2273 51.7454 87.0485 50.6711 87.0485C49.8653 87.0485 49.1043 87.1602 48.3881 87.3837C47.6718 87.6072 47.0899 87.976 46.6422 88.4901C46.217 88.9818 46.0043 89.6522 46.0043 90.5015C46.0043 91.172 46.161 91.6972 46.4744 92.0772C46.8101 92.4571 47.3025 92.77 47.9516 93.0159C48.6007 93.2394 49.4065 93.4852 50.3689 93.7534C51.7342 94.0887 52.9093 94.4351 53.8942 94.7927C54.879 95.1503 55.64 95.6196 56.1772 96.2007C56.7144 96.7595 56.9829 97.5529 56.9829 98.581C56.9829 100.168 56.3786 101.419 55.17 102.336C53.9613 103.252 52.361 103.71 50.3689 103.71Z" fill="white" fill-opacity="0.19"/>
<path d="M77.6145 102.537C77.5026 102.582 77.2788 102.693 76.9431 102.872C76.6073 103.051 76.1821 103.219 75.6673 103.375C75.1525 103.509 74.5817 103.576 73.955 103.576C73.3507 103.576 72.7799 103.464 72.2427 103.241C71.7279 102.995 71.3139 102.637 71.0005 102.168C70.6871 101.699 70.5305 101.129 70.5305 100.458V87.3167H68.0796V85.9422H70.5305V79.9748H72.2092V85.9422H76.2716V87.3167H72.2092V100.056C72.2539 100.704 72.4889 101.196 72.9142 101.531C73.3395 101.844 73.8319 102 74.3914 102C75.0853 102 75.6896 101.889 76.2044 101.665C76.7192 101.419 77.0214 101.263 77.1109 101.196L77.6145 102.537Z" fill="white" fill-opacity="0.19"/>
<path d="M96.4678 103.71C95.2367 103.71 94.0952 103.476 93.0432 103.006C92.0136 102.537 91.1183 101.889 90.3573 101.062C89.5963 100.212 89.0032 99.2403 88.5779 98.1451C88.1527 97.05 87.94 95.899 87.94 94.6921C87.94 93.4629 88.1527 92.3119 88.5779 91.2391C89.0032 90.1439 89.5963 89.1829 90.3573 88.356C91.1407 87.5067 92.0472 86.8474 93.0768 86.378C94.1288 85.8863 95.2591 85.6405 96.4678 85.6405C97.6764 85.6405 98.7955 85.8863 99.8251 86.378C100.855 86.8474 101.761 87.5067 102.545 88.356C103.328 89.1829 103.932 90.1439 104.358 91.2391C104.783 92.3119 104.995 93.4629 104.995 94.6921C104.995 95.899 104.783 97.05 104.358 98.1451C103.932 99.2403 103.328 100.212 102.545 101.062C101.784 101.889 100.877 102.537 99.8251 103.006C98.7955 103.476 97.6764 103.71 96.4678 103.71ZM89.6187 94.7592C89.6187 96.1225 89.9209 97.3741 90.5252 98.5139C91.1519 99.6314 91.9801 100.525 93.0097 101.196C94.0393 101.866 95.1808 102.202 96.4342 102.202C97.6876 102.202 98.8291 101.866 99.8587 101.196C100.911 100.503 101.739 99.5867 102.343 98.4469C102.97 97.2847 103.283 96.0219 103.283 94.6586C103.283 93.2953 102.97 92.0437 102.343 90.9038C101.739 89.764 100.911 88.8588 99.8587 88.1883C98.8291 87.4955 97.6988 87.1491 96.4678 87.1491C95.2143 87.1491 94.0728 87.4955 93.0432 88.1883C92.0136 88.8812 91.1855 89.7975 90.5588 90.9374C89.9321 92.0772 89.6187 93.3511 89.6187 94.7592Z" fill="white" fill-opacity="0.19"/>
<path d="M126.174 87.4508C124.607 87.4955 123.23 87.9648 122.044 88.8588C120.88 89.7305 120.063 90.9374 119.593 92.4795V103.375H117.915V85.9422H119.526V90.2333C120.13 89.0041 120.936 88.0095 121.943 87.2496C122.951 86.4674 124.014 86.0204 125.133 85.9087C125.357 85.8863 125.558 85.8751 125.737 85.8751C125.916 85.8751 126.062 85.8751 126.174 85.8751V87.4508Z" fill="white" fill-opacity="0.19"/>
<path d="M139.429 109.275C139.787 109.298 140.101 109.298 140.369 109.275C140.66 109.275 140.873 109.231 141.007 109.141C141.209 109.074 141.41 108.895 141.612 108.605C141.835 108.337 142.126 107.789 142.484 106.962C142.843 106.158 143.346 104.962 143.995 103.375L136.206 85.9422H137.986L144.902 101.598L151.314 85.9422H153.027L143.458 108.873C143.324 109.231 143.134 109.544 142.887 109.812C142.664 110.102 142.384 110.326 142.048 110.482C141.712 110.661 141.309 110.762 140.839 110.784C140.638 110.806 140.425 110.817 140.201 110.817C139.978 110.84 139.72 110.84 139.429 110.817V109.275Z" fill="white" fill-opacity="0.19"/>
<path d="M189.203 103.71C187.972 103.71 186.831 103.476 185.779 103.006C184.749 102.537 183.854 101.889 183.093 101.062C182.332 100.212 181.739 99.2403 181.314 98.1451C180.888 97.05 180.676 95.899 180.676 94.6921C180.676 93.4629 180.888 92.3119 181.314 91.2391C181.739 90.1439 182.332 89.1829 183.093 88.356C183.876 87.5067 184.783 86.8474 185.812 86.378C186.864 85.8863 187.995 85.6405 189.203 85.6405C190.412 85.6405 191.531 85.8863 192.561 86.378C193.59 86.8474 194.497 87.5067 195.28 88.356C196.064 89.1829 196.668 90.1439 197.093 91.2391C197.519 92.3119 197.731 93.4629 197.731 94.6921C197.731 95.899 197.519 97.05 197.093 98.1451C196.668 99.2403 196.064 100.212 195.28 101.062C194.519 101.889 193.613 102.537 192.561 103.006C191.531 103.476 190.412 103.71 189.203 103.71ZM182.354 94.7592C182.354 96.1225 182.657 97.3741 183.261 98.5139C183.888 99.6314 184.716 100.525 185.745 101.196C186.775 101.866 187.916 102.202 189.17 102.202C190.423 102.202 191.565 101.866 192.594 101.196C193.646 100.503 194.474 99.5867 195.079 98.4469C195.706 97.2847 196.019 96.0219 196.019 94.6586C196.019 93.2953 195.706 92.0437 195.079 90.9038C194.474 89.764 193.646 88.8588 192.594 88.1883C191.565 87.4955 190.434 87.1491 189.203 87.1491C187.95 87.1491 186.808 87.4955 185.779 88.1883C184.749 88.8812 183.921 89.7975 183.294 90.9374C182.668 92.0772 182.354 93.3511 182.354 94.7592Z" fill="white" fill-opacity="0.19"/>
<path d="M211.16 103.375V87.3167H208.709V85.9422H211.16V85.3723C211.16 83.9642 211.362 82.7462 211.764 81.7181C212.167 80.69 212.738 79.9078 213.477 79.3714C214.215 78.835 215.088 78.5668 216.095 78.5668C216.767 78.5668 217.416 78.6673 218.043 78.8685C218.669 79.0696 219.184 79.3378 219.587 79.6731L218.983 80.88C218.692 80.6118 218.311 80.4106 217.841 80.2765C217.371 80.1201 216.89 80.0419 216.398 80.0419C215.256 80.0419 214.372 80.5 213.745 81.4164C213.141 82.3104 212.839 83.6178 212.839 85.3387V85.9422H217.808V87.3167H212.839V103.375H211.16Z" fill="white" fill-opacity="0.19"/>
<path d="M254.192 103.71C252.983 103.71 251.853 103.476 250.801 103.006C249.749 102.515 248.831 101.855 248.048 101.028C247.265 100.179 246.649 99.2068 246.201 98.1116C245.776 97.0165 245.563 95.8431 245.563 94.5915C245.563 92.9153 245.933 91.4067 246.671 90.0657C247.41 88.7247 248.428 87.6519 249.727 86.8474C251.025 86.0428 252.502 85.6405 254.158 85.6405C255.748 85.6405 257.146 86.0092 258.355 86.7468C259.564 87.462 260.47 88.4454 261.075 89.6969L259.429 90.2333C258.915 89.2723 258.176 88.5236 257.214 87.9872C256.274 87.4284 255.233 87.1491 254.091 87.1491C252.815 87.1491 251.663 87.4731 250.633 88.1213C249.604 88.7694 248.775 89.6634 248.149 90.8033C247.544 91.9207 247.242 93.1835 247.242 94.5915C247.242 95.9772 247.556 97.2512 248.182 98.4133C248.809 99.5755 249.637 100.503 250.667 101.196C251.719 101.866 252.871 102.202 254.125 102.202C254.931 102.202 255.714 102.056 256.475 101.766C257.258 101.453 257.93 101.051 258.489 100.559C259.071 100.067 259.452 99.542 259.631 98.9833L261.276 99.4526C260.985 100.28 260.481 101.017 259.765 101.665C259.049 102.291 258.21 102.794 257.247 103.174C256.307 103.531 255.289 103.71 254.192 103.71Z" fill="white" fill-opacity="0.19"/>
<path d="M282.223 87.4508C280.657 87.4955 279.28 87.9648 278.094 88.8588C276.93 89.7305 276.113 90.9374 275.643 92.4795V103.375H273.964V85.9422H275.576V90.2333C276.18 89.0041 276.986 88.0095 277.993 87.2496C279 86.4674 280.064 86.0204 281.183 85.9087C281.406 85.8863 281.608 85.8751 281.787 85.8751C281.966 85.8751 282.111 85.8751 282.223 85.8751V87.4508Z" fill="white" fill-opacity="0.19"/>
<path d="M301.035 103.71C299.804 103.71 298.663 103.476 297.611 103.006C296.559 102.515 295.641 101.855 294.858 101.028C294.097 100.179 293.492 99.2068 293.045 98.1116C292.619 96.9941 292.407 95.8208 292.407 94.5915C292.407 92.9377 292.776 91.4402 293.515 90.0992C294.253 88.7583 295.272 87.6855 296.57 86.8809C297.868 86.0539 299.323 85.6405 300.934 85.6405C302.591 85.6405 304.057 86.0539 305.333 86.8809C306.608 87.7078 307.616 88.803 308.354 90.1663C309.115 91.5073 309.496 92.9824 309.496 94.5915C309.496 94.7256 309.496 94.8597 309.496 94.9938C309.496 95.1279 309.485 95.2397 309.462 95.3291H294.153C294.242 96.6477 294.611 97.8434 295.26 98.9162C295.91 99.989 296.738 100.838 297.745 101.464C298.775 102.068 299.894 102.369 301.102 102.369C302.311 102.369 303.452 102.056 304.527 101.431C305.601 100.805 306.351 100 306.776 99.0168L308.254 99.4191C307.918 100.246 307.381 100.984 306.642 101.632C305.926 102.28 305.075 102.794 304.09 103.174C303.128 103.531 302.11 103.71 301.035 103.71ZM294.085 94.0216H307.884C307.795 92.6583 307.437 91.4514 306.81 90.401C306.183 89.3505 305.355 88.5236 304.325 87.9201C303.318 87.3167 302.199 87.015 300.968 87.015C299.737 87.015 298.618 87.3167 297.611 87.9201C296.603 88.5236 295.786 89.3505 295.16 90.401C294.533 91.4514 294.175 92.6583 294.085 94.0216Z" fill="white" fill-opacity="0.19"/>
<path d="M320.642 98.3463C320.642 97.2959 320.956 96.3907 321.583 95.6308C322.209 94.8486 323.071 94.2451 324.168 93.8205C325.264 93.3735 326.529 93.15 327.962 93.15C328.857 93.15 329.786 93.2282 330.748 93.3847C331.711 93.5411 332.572 93.7534 333.333 94.0216V92.3789C333.333 90.7697 332.863 89.4846 331.923 88.5236C331.006 87.5625 329.73 87.082 328.096 87.082C327.223 87.082 326.316 87.2608 325.376 87.6184C324.436 87.976 323.474 88.4901 322.489 89.1606L321.784 87.9537C322.926 87.1938 324.022 86.6239 325.074 86.2439C326.149 85.8416 327.212 85.6405 328.264 85.6405C330.345 85.6405 331.99 86.2551 333.199 87.4843C334.408 88.7136 335.012 90.3898 335.012 92.513V101.162C335.012 101.431 335.068 101.632 335.18 101.766C335.314 101.9 335.504 101.978 335.751 102V103.375C335.549 103.397 335.381 103.409 335.247 103.409C335.113 103.409 335.001 103.409 334.911 103.409C334.486 103.341 334.15 103.163 333.904 102.872C333.68 102.582 333.557 102.258 333.535 101.9V100.525C332.729 101.531 331.688 102.313 330.412 102.872C329.159 103.431 327.838 103.71 326.451 103.71C325.354 103.71 324.358 103.476 323.463 103.006C322.59 102.537 321.896 101.9 321.381 101.095C320.889 100.268 320.642 99.352 320.642 98.3463ZM332.662 99.7879C332.886 99.4973 333.054 99.2179 333.165 98.9497C333.277 98.6815 333.333 98.4357 333.333 98.2122V95.3291C332.528 95.0162 331.688 94.7815 330.815 94.6251C329.942 94.4686 329.047 94.3904 328.129 94.3904C326.384 94.3904 324.962 94.7368 323.866 95.4297C322.791 96.1225 322.254 97.0612 322.254 98.2457C322.254 98.9833 322.444 99.6649 322.825 100.291C323.205 100.917 323.731 101.419 324.403 101.799C325.097 102.179 325.891 102.369 326.786 102.369C328.04 102.369 329.193 102.135 330.245 101.665C331.319 101.174 332.125 100.548 332.662 99.7879Z" fill="white" fill-opacity="0.19"/>
<path d="M356.674 102.537C356.562 102.582 356.338 102.693 356.002 102.872C355.667 103.051 355.241 103.219 354.727 103.375C354.212 103.509 353.641 103.576 353.014 103.576C352.41 103.576 351.839 103.464 351.302 103.241C350.787 102.995 350.373 102.637 350.06 102.168C349.747 101.699 349.59 101.129 349.59 100.458V87.3167H347.139V85.9422H349.59V79.9748H351.269V85.9422H355.331V87.3167H351.269V100.056C351.313 100.704 351.548 101.196 351.974 101.531C352.399 101.844 352.891 102 353.451 102C354.145 102 354.749 101.889 355.264 101.665C355.779 101.419 356.081 101.263 356.17 101.196L356.674 102.537Z" fill="white" fill-opacity="0.19"/>
<path d="M368.536 103.375V85.9422H370.215V103.375H368.536ZM368.536 81.9863V78.902H370.215V81.9863H368.536Z" fill="white" fill-opacity="0.19"/>
<path d="M391.703 103.71C390.472 103.71 389.33 103.476 388.278 103.006C387.249 102.537 386.353 101.889 385.592 101.062C384.831 100.212 384.238 99.2403 383.813 98.1451C383.388 97.05 383.175 95.899 383.175 94.6921C383.175 93.4629 383.388 92.3119 383.813 91.2391C384.238 90.1439 384.831 89.1829 385.592 88.356C386.376 87.5067 387.282 86.8474 388.312 86.378C389.364 85.8863 390.494 85.6405 391.703 85.6405C392.912 85.6405 394.031 85.8863 395.06 86.378C396.09 86.8474 396.996 87.5067 397.78 88.356C398.563 89.1829 399.167 90.1439 399.593 91.2391C400.018 92.3119 400.231 93.4629 400.231 94.6921C400.231 95.899 400.018 97.05 399.593 98.1451C399.167 99.2403 398.563 100.212 397.78 101.062C397.019 101.889 396.112 102.537 395.06 103.006C394.031 103.476 392.912 103.71 391.703 103.71ZM384.854 94.7592C384.854 96.1225 385.156 97.3741 385.76 98.5139C386.387 99.6314 387.215 100.525 388.245 101.196C389.274 101.866 390.416 102.202 391.669 102.202C392.923 102.202 394.064 101.866 395.094 101.196C396.146 100.503 396.974 99.5867 397.578 98.4469C398.205 97.2847 398.518 96.0219 398.518 94.6586C398.518 93.2953 398.205 92.0437 397.578 90.9038C396.974 89.764 396.146 88.8588 395.094 88.1883C394.064 87.4955 392.934 87.1491 391.703 87.1491C390.449 87.1491 389.308 87.4955 388.278 88.1883C387.249 88.8812 386.421 89.7975 385.794 90.9374C385.167 92.0772 384.854 93.3511 384.854 94.7592Z" fill="white" fill-opacity="0.19"/>
<path d="M427.419 103.375H425.74V93.6529C425.74 91.4179 425.415 89.7863 424.766 88.7583C424.14 87.7078 423.132 87.1826 421.745 87.1826C420.76 87.1826 419.786 87.4173 418.824 87.8866C417.884 88.356 417.055 89.0041 416.339 89.831C415.645 90.6356 415.142 91.552 414.828 92.5801V103.375H413.15V85.9422H414.728V90.0992C415.198 89.2053 415.824 88.4342 416.608 87.786C417.391 87.1155 418.264 86.5903 419.227 86.2104C420.189 85.8304 421.185 85.6405 422.215 85.6405C423.177 85.6405 423.983 85.8193 424.632 86.1769C425.303 86.5121 425.841 87.0038 426.243 87.6519C426.669 88.3001 426.971 89.1047 427.15 90.0657C427.329 91.0268 427.419 92.1219 427.419 93.3511V103.375Z" fill="white" fill-opacity="0.19"/>
<path d="M15.0425 143.28H13.3638V133.558C13.3638 131.412 12.9945 129.803 12.2559 128.73C11.5173 127.635 10.4429 127.087 9.03282 127.087C8.11514 127.087 7.19746 127.322 6.27977 127.791C5.36209 128.261 4.56751 128.909 3.89604 129.736C3.22456 130.54 2.74334 131.457 2.45237 132.485V143.28H0.773682V118.807H2.45237V130.004C3.16861 128.641 4.16463 127.557 5.44043 126.752C6.71623 125.948 8.07038 125.545 9.50286 125.545C10.4877 125.545 11.327 125.724 12.0209 126.082C12.7147 126.439 13.2855 126.953 13.7331 127.624C14.1808 128.294 14.5053 129.099 14.7068 130.038C14.9306 130.976 15.0425 132.049 15.0425 133.256V143.28Z" fill="white" fill-opacity="0.19"/>
<path d="M29.015 143.28V125.847H30.6937V143.28H29.015ZM29.015 121.891V118.807H30.6937V121.891H29.015Z" fill="white" fill-opacity="0.19"/>
<path d="M50.3689 143.615C48.9812 143.615 47.6942 143.38 46.5079 142.911C45.3217 142.442 44.2809 141.726 43.3856 140.765L44.1578 139.592C45.1202 140.508 46.0939 141.179 47.0787 141.604C48.0635 142.006 49.1379 142.207 50.3018 142.207C51.8014 142.207 53.01 141.894 53.9277 141.268C54.8678 140.643 55.3378 139.771 55.3378 138.653C55.3378 137.893 55.114 137.312 54.6664 136.91C54.2411 136.485 53.6144 136.15 52.7862 135.904C51.9805 135.636 50.9956 135.357 49.8317 135.066C48.6455 134.753 47.6383 134.429 46.8101 134.094C46.0043 133.759 45.4 133.323 44.9971 132.787C44.5942 132.25 44.3928 131.524 44.3928 130.607C44.3928 129.468 44.6726 128.529 45.2321 127.791C45.8141 127.032 46.5863 126.473 47.5487 126.115C48.5336 125.735 49.6191 125.545 50.8054 125.545C52.1707 125.545 53.357 125.769 54.3642 126.216C55.3938 126.663 56.1772 127.255 56.7144 127.993L55.8079 129.065C55.2483 128.35 54.5209 127.825 53.6256 127.49C52.7303 127.132 51.7454 126.953 50.6711 126.953C49.8653 126.953 49.1043 127.065 48.3881 127.289C47.6718 127.512 47.0899 127.881 46.6422 128.395C46.217 128.887 46.0043 129.557 46.0043 130.406C46.0043 131.077 46.161 131.602 46.4744 131.982C46.8101 132.362 47.3025 132.675 47.9516 132.921C48.6007 133.144 49.4065 133.39 50.3689 133.658C51.7342 133.993 52.9093 134.34 53.8942 134.697C54.879 135.055 55.64 135.524 56.1772 136.106C56.7144 136.664 56.9829 137.458 56.9829 138.486C56.9829 140.073 56.3786 141.324 55.17 142.241C53.9613 143.157 52.361 143.615 50.3689 143.615Z" fill="white" fill-opacity="0.19"/>
<path d="M77.6145 142.442C77.5026 142.486 77.2788 142.598 76.9431 142.777C76.6073 142.956 76.1821 143.123 75.6673 143.28C75.1525 143.414 74.5817 143.481 73.955 143.481C73.3507 143.481 72.7799 143.369 72.2427 143.146C71.7279 142.9 71.3139 142.542 71.0005 142.073C70.6871 141.604 70.5305 141.034 70.5305 140.363V127.221H68.0796V125.847H70.5305V119.88H72.2092V125.847H76.2716V127.221H72.2092V139.961C72.2539 140.609 72.4889 141.101 72.9142 141.436C73.3395 141.749 73.8319 141.905 74.3914 141.905C75.0853 141.905 75.6896 141.794 76.2044 141.57C76.7192 141.324 77.0214 141.168 77.1109 141.101L77.6145 142.442Z" fill="white" fill-opacity="0.19"/>
<path d="M96.4678 143.615C95.2367 143.615 94.0952 143.38 93.0432 142.911C92.0136 142.442 91.1183 141.794 90.3573 140.967C89.5963 140.117 89.0032 139.145 88.5779 138.05C88.1527 136.955 87.94 135.804 87.94 134.597C87.94 133.368 88.1527 132.217 88.5779 131.144C89.0032 130.049 89.5963 129.088 90.3573 128.261C91.1407 127.411 92.0472 126.752 93.0768 126.283C94.1288 125.791 95.2591 125.545 96.4678 125.545C97.6764 125.545 98.7955 125.791 99.8251 126.283C100.855 126.752 101.761 127.411 102.545 128.261C103.328 129.088 103.932 130.049 104.358 131.144C104.783 132.217 104.995 133.368 104.995 134.597C104.995 135.804 104.783 136.955 104.358 138.05C103.932 139.145 103.328 140.117 102.545 140.967C101.784 141.794 100.877 142.442 99.8251 142.911C98.7955 143.38 97.6764 143.615 96.4678 143.615ZM89.6187 134.664C89.6187 136.027 89.9209 137.279 90.5252 138.419C91.1519 139.536 91.9801 140.43 93.0097 141.101C94.0393 141.771 95.1808 142.106 96.4342 142.106C97.6876 142.106 98.8291 141.771 99.8587 141.101C100.911 140.408 101.739 139.491 102.343 138.352C102.97 137.189 103.283 135.927 103.283 134.563C103.283 133.2 102.97 131.948 102.343 130.809C101.739 129.669 100.911 128.764 99.8587 128.093C98.8291 127.4 97.6988 127.054 96.4678 127.054C95.2143 127.054 94.0728 127.4 93.0432 128.093C92.0136 128.786 91.1855 129.702 90.5588 130.842C89.9321 131.982 89.6187 133.256 89.6187 134.664Z" fill="white" fill-opacity="0.19"/>
<path d="M126.174 127.356C124.607 127.4 123.23 127.87 122.044 128.764C120.88 129.635 120.063 130.842 119.593 132.384V143.28H117.915V125.847H119.526V130.138C120.13 128.909 120.936 127.914 121.943 127.154C122.951 126.372 124.014 125.925 125.133 125.813C125.357 125.791 125.558 125.78 125.737 125.78C125.916 125.78 126.062 125.78 126.174 125.78V127.356Z" fill="white" fill-opacity="0.19"/>
<path d="M139.429 149.18C139.787 149.202 140.101 149.202 140.369 149.18C140.66 149.18 140.873 149.135 141.007 149.046C141.209 148.979 141.41 148.8 141.612 148.51C141.835 148.241 142.126 147.694 142.484 146.867C142.843 146.062 143.346 144.867 143.995 143.28L136.206 125.847H137.986L144.902 141.503L151.314 125.847H153.027L143.458 148.778C143.324 149.135 143.134 149.448 142.887 149.717C142.664 150.007 142.384 150.231 142.048 150.387C141.712 150.566 141.309 150.666 140.839 150.689C140.638 150.711 140.425 150.722 140.201 150.722C139.978 150.745 139.72 150.745 139.429 150.722V149.18Z" fill="white" fill-opacity="0.19"/>
<path d="M189.203 143.615C187.972 143.615 186.831 143.38 185.779 142.911C184.749 142.442 183.854 141.794 183.093 140.967C182.332 140.117 181.739 139.145 181.314 138.05C180.888 136.955 180.676 135.804 180.676 134.597C180.676 133.368 180.888 132.217 181.314 131.144C181.739 130.049 182.332 129.088 183.093 128.261C183.876 127.411 184.783 126.752 185.812 126.283C186.864 125.791 187.995 125.545 189.203 125.545C190.412 125.545 191.531 125.791 192.561 126.283C193.59 126.752 194.497 127.411 195.28 128.261C196.064 129.088 196.668 130.049 197.093 131.144C197.519 132.217 197.731 133.368 197.731 134.597C197.731 135.804 197.519 136.955 197.093 138.05C196.668 139.145 196.064 140.117 195.28 140.967C194.519 141.794 193.613 142.442 192.561 142.911C191.531 143.38 190.412 143.615 189.203 143.615ZM182.354 134.664C182.354 136.027 182.657 137.279 183.261 138.419C183.888 139.536 184.716 140.43 185.745 141.101C186.775 141.771 187.916 142.106 189.17 142.106C190.423 142.106 191.565 141.771 192.594 141.101C193.646 140.408 194.474 139.491 195.079 138.352C195.706 137.189 196.019 135.927 196.019 134.563C196.019 133.2 195.706 131.948 195.079 130.809C194.474 129.669 193.646 128.764 192.594 128.093C191.565 127.4 190.434 127.054 189.203 127.054C187.95 127.054 186.808 127.4 185.779 128.093C184.749 128.786 183.921 129.702 183.294 130.842C182.668 131.982 182.354 133.256 182.354 134.664Z" fill="white" fill-opacity="0.19"/>
<path d="M211.16 143.28V127.221H208.709V125.847H211.16V125.277C211.16 123.869 211.362 122.651 211.764 121.623C212.167 120.595 212.738 119.813 213.477 119.276C214.215 118.74 215.088 118.472 216.095 118.472C216.767 118.472 217.416 118.572 218.043 118.773C218.669 118.974 219.184 119.243 219.587 119.578L218.983 120.785C218.692 120.517 218.311 120.315 217.841 120.181C217.371 120.025 216.89 119.947 216.398 119.947C215.256 119.947 214.372 120.405 213.745 121.321C213.141 122.215 212.839 123.523 212.839 125.244V125.847H217.808V127.221H212.839V143.28H211.16Z" fill="white" fill-opacity="0.19"/>
<path d="M254.192 143.615C252.983 143.615 251.853 143.38 250.801 142.911C249.749 142.419 248.831 141.76 248.048 140.933C247.265 140.084 246.649 139.112 246.201 138.016C245.776 136.921 245.563 135.748 245.563 134.496C245.563 132.82 245.933 131.311 246.671 129.971C247.41 128.63 248.428 127.557 249.727 126.752C251.025 125.948 252.502 125.545 254.158 125.545C255.748 125.545 257.146 125.914 258.355 126.652C259.564 127.367 260.47 128.35 261.075 129.602L259.429 130.138C258.915 129.177 258.176 128.428 257.214 127.892C256.274 127.333 255.233 127.054 254.091 127.054C252.815 127.054 251.663 127.378 250.633 128.026C249.604 128.674 248.775 129.568 248.149 130.708C247.544 131.826 247.242 133.088 247.242 134.496C247.242 135.882 247.556 137.156 248.182 138.318C248.809 139.48 249.637 140.408 250.667 141.101C251.719 141.771 252.871 142.106 254.125 142.106C254.931 142.106 255.714 141.961 256.475 141.671C257.258 141.358 257.93 140.955 258.489 140.464C259.071 139.972 259.452 139.447 259.631 138.888L261.276 139.357C260.985 140.184 260.481 140.922 259.765 141.57C259.049 142.196 258.21 142.699 257.247 143.079C256.307 143.436 255.289 143.615 254.192 143.615Z" fill="white" fill-opacity="0.19"/>
<path d="M282.223 127.356C280.657 127.4 279.28 127.87 278.094 128.764C276.93 129.635 276.113 130.842 275.643 132.384V143.28H273.964V125.847H275.576V130.138C276.18 128.909 276.986 127.914 277.993 127.154C279 126.372 280.064 125.925 281.183 125.813C281.406 125.791 281.608 125.78 281.787 125.78C281.966 125.78 282.111 125.78 282.223 125.78V127.356Z" fill="white" fill-opacity="0.19"/>
<path d="M301.035 143.615C299.804 143.615 298.663 143.38 297.611 142.911C296.559 142.419 295.641 141.76 294.858 140.933C294.097 140.084 293.492 139.112 293.045 138.016C292.619 136.899 292.407 135.726 292.407 134.496C292.407 132.842 292.776 131.345 293.515 130.004C294.253 128.663 295.272 127.59 296.57 126.786C297.868 125.959 299.323 125.545 300.934 125.545C302.591 125.545 304.057 125.959 305.333 126.786C306.608 127.613 307.616 128.708 308.354 130.071C309.115 131.412 309.496 132.887 309.496 134.496C309.496 134.63 309.496 134.765 309.496 134.899C309.496 135.033 309.485 135.144 309.462 135.234H294.153C294.242 136.553 294.611 137.748 295.26 138.821C295.91 139.894 296.738 140.743 297.745 141.369C298.775 141.972 299.894 142.274 301.102 142.274C302.311 142.274 303.452 141.961 304.527 141.335C305.601 140.71 306.351 139.905 306.776 138.922L308.254 139.324C307.918 140.151 307.381 140.888 306.642 141.536C305.926 142.185 305.075 142.699 304.09 143.079C303.128 143.436 302.11 143.615 301.035 143.615ZM294.085 133.926H307.884C307.795 132.563 307.437 131.356 306.81 130.306C306.183 129.255 305.355 128.428 304.325 127.825C303.318 127.221 302.199 126.92 300.968 126.92C299.737 126.92 298.618 127.221 297.611 127.825C296.603 128.428 295.786 129.255 295.16 130.306C294.533 131.356 294.175 132.563 294.085 133.926Z" fill="white" fill-opacity="0.19"/>
<path d="M320.642 138.251C320.642 137.201 320.956 136.295 321.583 135.536C322.209 134.753 323.071 134.15 324.168 133.725C325.264 133.278 326.529 133.055 327.962 133.055C328.857 133.055 329.786 133.133 330.748 133.289C331.711 133.446 332.572 133.658 333.333 133.926V132.284C333.333 130.675 332.863 129.389 331.923 128.428C331.006 127.467 329.73 126.987 328.096 126.987C327.223 126.987 326.316 127.166 325.376 127.523C324.436 127.881 323.474 128.395 322.489 129.065L321.784 127.858C322.926 127.099 324.022 126.529 325.074 126.149C326.149 125.746 327.212 125.545 328.264 125.545C330.345 125.545 331.99 126.16 333.199 127.389C334.408 128.618 335.012 130.295 335.012 132.418V141.067C335.012 141.335 335.068 141.536 335.18 141.671C335.314 141.805 335.504 141.883 335.751 141.905V143.28C335.549 143.302 335.381 143.313 335.247 143.313C335.113 143.313 335.001 143.313 334.911 143.313C334.486 143.246 334.15 143.067 333.904 142.777C333.68 142.486 333.557 142.162 333.535 141.805V140.43C332.729 141.436 331.688 142.218 330.412 142.777C329.159 143.336 327.838 143.615 326.451 143.615C325.354 143.615 324.358 143.38 323.463 142.911C322.59 142.442 321.896 141.805 321.381 141C320.889 140.173 320.642 139.257 320.642 138.251ZM332.662 139.693C332.886 139.402 333.054 139.123 333.165 138.855C333.277 138.586 333.333 138.34 333.333 138.117V135.234C332.528 134.921 331.688 134.686 330.815 134.53C329.942 134.373 329.047 134.295 328.129 134.295C326.384 134.295 324.962 134.642 323.866 135.334C322.791 136.027 322.254 136.966 322.254 138.151C322.254 138.888 322.444 139.57 322.825 140.196C323.205 140.821 323.731 141.324 324.403 141.704C325.097 142.084 325.891 142.274 326.786 142.274C328.04 142.274 329.193 142.039 330.245 141.57C331.319 141.078 332.125 140.453 332.662 139.693Z" fill="white" fill-opacity="0.19"/>
<path d="M356.674 142.442C356.562 142.486 356.338 142.598 356.002 142.777C355.667 142.956 355.241 143.123 354.727 143.28C354.212 143.414 353.641 143.481 353.014 143.481C352.41 143.481 351.839 143.369 351.302 143.146C350.787 142.9 350.373 142.542 350.06 142.073C349.747 141.604 349.59 141.034 349.59 140.363V127.221H347.139V125.847H349.59V119.88H351.269V125.847H355.331V127.221H351.269V139.961C351.313 140.609 351.548 141.101 351.974 141.436C352.399 141.749 352.891 141.905 353.451 141.905C354.145 141.905 354.749 141.794 355.264 141.57C355.779 141.324 356.081 141.168 356.17 141.101L356.674 142.442Z" fill="white" fill-opacity="0.19"/>
<path d="M368.536 143.28V125.847H370.215V143.28H368.536ZM368.536 121.891V118.807H370.215V121.891H368.536Z" fill="white" fill-opacity="0.19"/>
<path d="M391.703 143.615C390.472 143.615 389.33 143.38 388.278 142.911C387.249 142.442 386.353 141.794 385.592 140.967C384.831 140.117 384.238 139.145 383.813 138.05C383.388 136.955 383.175 135.804 383.175 134.597C383.175 133.368 383.388 132.217 383.813 131.144C384.238 130.049 384.831 129.088 385.592 128.261C386.376 127.411 387.282 126.752 388.312 126.283C389.364 125.791 390.494 125.545 391.703 125.545C392.912 125.545 394.031 125.791 395.06 126.283C396.09 126.752 396.996 127.411 397.78 128.261C398.563 129.088 399.167 130.049 399.593 131.144C400.018 132.217 400.231 133.368 400.231 134.597C400.231 135.804 400.018 136.955 399.593 138.05C399.167 139.145 398.563 140.117 397.78 140.967C397.019 141.794 396.112 142.442 395.06 142.911C394.031 143.38 392.912 143.615 391.703 143.615ZM384.854 134.664C384.854 136.027 385.156 137.279 385.76 138.419C386.387 139.536 387.215 140.43 388.245 141.101C389.274 141.771 390.416 142.106 391.669 142.106C392.923 142.106 394.064 141.771 395.094 141.101C396.146 140.408 396.974 139.491 397.578 138.352C398.205 137.189 398.518 135.927 398.518 134.563C398.518 133.2 398.205 131.948 397.578 130.809C396.974 129.669 396.146 128.764 395.094 128.093C394.064 127.4 392.934 127.054 391.703 127.054C390.449 127.054 389.308 127.4 388.278 128.093C387.249 128.786 386.421 129.702 385.794 130.842C385.167 131.982 384.854 133.256 384.854 134.664Z" fill="white" fill-opacity="0.19"/>
<path d="M427.419 143.28H425.74V133.558C425.74 131.323 425.415 129.691 424.766 128.663C424.14 127.613 423.132 127.087 421.745 127.087C420.76 127.087 419.786 127.322 418.824 127.791C417.884 128.261 417.055 128.909 416.339 129.736C415.645 130.54 415.142 131.457 414.828 132.485V143.28H413.15V125.847H414.728V130.004C415.198 129.11 415.824 128.339 416.608 127.691C417.391 127.02 418.264 126.495 419.227 126.115C420.189 125.735 421.185 125.545 422.215 125.545C423.177 125.545 423.983 125.724 424.632 126.082C425.303 126.417 425.841 126.909 426.243 127.557C426.669 128.205 426.971 129.009 427.15 129.971C427.329 130.932 427.419 132.027 427.419 133.256V143.28Z" fill="white" fill-opacity="0.19"/>
<path d="M16.9036 299.269H15.2249V289.547C15.2249 287.401 14.8556 285.792 14.117 284.719C13.3784 283.624 12.304 283.076 10.8939 283.076C9.97622 283.076 9.05854 283.311 8.14086 283.78C7.22318 284.25 6.4286 284.898 5.75712 285.725C5.08565 286.529 4.60442 287.446 4.31345 288.474V299.269H2.63477V274.796H4.31345V285.993C5.02969 284.63 6.02571 283.546 7.30152 282.741C8.57732 281.936 9.93146 281.534 11.3639 281.534C12.3488 281.534 13.1881 281.713 13.882 282.071C14.5758 282.428 15.1466 282.942 15.5942 283.613C16.0419 284.283 16.3664 285.088 16.5679 286.026C16.7917 286.965 16.9036 288.038 16.9036 289.245V299.269Z" fill="white" fill-opacity="0.19"/>
<path d="M30.876 299.269V281.836H32.5547V299.269H30.876ZM30.876 277.88V274.796H32.5547V277.88H30.876Z" fill="white" fill-opacity="0.19"/>
<path d="M52.23 299.604C50.8423 299.604 49.5553 299.369 48.369 298.9C47.1828 298.431 46.142 297.715 45.2467 296.754L46.0189 295.581C46.9813 296.497 47.9549 297.168 48.9398 297.592C49.9246 297.995 50.999 298.196 52.1629 298.196C53.6625 298.196 54.8711 297.883 55.7888 297.257C56.7289 296.631 57.1989 295.76 57.1989 294.642C57.1989 293.882 56.9751 293.301 56.5274 292.899C56.1022 292.474 55.4755 292.139 54.6473 291.893C53.8415 291.625 52.8567 291.346 51.6928 291.055C50.5065 290.742 49.4993 290.418 48.6712 290.083C47.8654 289.748 47.2611 289.312 46.8582 288.775C46.4553 288.239 46.2539 287.513 46.2539 286.596C46.2539 285.457 46.5337 284.518 47.0932 283.78C47.6752 283.02 48.4474 282.462 49.4098 282.104C50.3946 281.724 51.4802 281.534 52.6665 281.534C54.0318 281.534 55.2181 281.758 56.2253 282.205C57.2549 282.652 58.0383 283.244 58.5754 283.981L57.6689 285.054C57.1094 284.339 56.382 283.814 55.4867 283.479C54.5914 283.121 53.6065 282.942 52.5322 282.942C51.7264 282.942 50.9654 283.054 50.2491 283.277C49.5329 283.501 48.951 283.87 48.5033 284.384C48.078 284.875 47.8654 285.546 47.8654 286.395C47.8654 287.066 48.0221 287.591 48.3354 287.971C48.6712 288.351 49.1636 288.664 49.8127 288.91C50.4618 289.133 51.2676 289.379 52.23 289.647C53.5953 289.982 54.7704 290.329 55.7552 290.686C56.7401 291.044 57.5011 291.513 58.0383 292.094C58.5754 292.653 58.844 293.447 58.844 294.475C58.844 296.061 58.2397 297.313 57.031 298.229C55.8224 299.146 54.222 299.604 52.23 299.604Z" fill="white" fill-opacity="0.19"/>
<path d="M79.4756 298.431C79.3637 298.475 79.1399 298.587 78.8041 298.766C78.4684 298.945 78.0431 299.112 77.5283 299.269C77.0135 299.403 76.4428 299.47 75.8161 299.47C75.2117 299.47 74.641 299.358 74.1038 299.135C73.589 298.889 73.1749 298.531 72.8616 298.062C72.5482 297.592 72.3916 297.023 72.3916 296.352V283.21H69.9407V281.836H72.3916V275.868H74.0702V281.836H78.1327V283.21H74.0702V295.95C74.115 296.598 74.35 297.09 74.7753 297.425C75.2006 297.738 75.693 297.894 76.2525 297.894C76.9464 297.894 77.5507 297.782 78.0655 297.559C78.5803 297.313 78.8825 297.157 78.972 297.09L79.4756 298.431Z" fill="white" fill-opacity="0.19"/>
<path d="M98.3288 299.604C97.0978 299.604 95.9563 299.369 94.9043 298.9C93.8747 298.431 92.9794 297.782 92.2184 296.955C91.4574 296.106 90.8643 295.134 90.439 294.039C90.0137 292.944 89.8011 291.793 89.8011 290.586C89.8011 289.357 90.0137 288.206 90.439 287.133C90.8643 286.038 91.4574 285.077 92.2184 284.25C93.0018 283.4 93.9083 282.741 94.9379 282.272C95.9899 281.78 97.1202 281.534 98.3288 281.534C99.5375 281.534 100.657 281.78 101.686 282.272C102.716 282.741 103.622 283.4 104.406 284.25C105.189 285.077 105.793 286.038 106.219 287.133C106.644 288.206 106.857 289.357 106.857 290.586C106.857 291.793 106.644 292.944 106.219 294.039C105.793 295.134 105.189 296.106 104.406 296.955C103.645 297.782 102.738 298.431 101.686 298.9C100.657 299.369 99.5375 299.604 98.3288 299.604ZM91.4798 290.653C91.4798 292.016 91.782 293.268 92.3863 294.408C93.013 295.525 93.8411 296.419 94.8707 297.09C95.9003 297.76 97.0418 298.095 98.2953 298.095C99.5487 298.095 100.69 297.76 101.72 297.09C102.772 296.397 103.6 295.48 104.204 294.341C104.831 293.178 105.144 291.916 105.144 290.552C105.144 289.189 104.831 287.937 104.204 286.798C103.6 285.658 102.772 284.753 101.72 284.082C100.69 283.389 99.5599 283.043 98.3288 283.043C97.0754 283.043 95.9339 283.389 94.9043 284.082C93.8747 284.775 93.0466 285.691 92.4199 286.831C91.7932 287.971 91.4798 289.245 91.4798 290.653Z" fill="white" fill-opacity="0.19"/>
<path d="M128.035 283.344C126.468 283.389 125.091 283.859 123.905 284.753C122.741 285.624 121.924 286.831 121.454 288.373V299.269H119.776V281.836H121.387V286.127C121.992 284.898 122.797 283.903 123.804 283.143C124.812 282.361 125.875 281.914 126.994 281.802C127.218 281.78 127.419 281.769 127.598 281.769C127.777 281.769 127.923 281.769 128.035 281.769V283.344Z" fill="white" fill-opacity="0.19"/>
<path d="M141.29 305.169C141.648 305.191 141.962 305.191 142.23 305.169C142.521 305.169 142.734 305.124 142.868 305.035C143.07 304.968 143.271 304.789 143.473 304.499C143.696 304.23 143.987 303.683 144.346 302.856C144.704 302.051 145.207 300.855 145.856 299.269L138.067 281.836H139.847L146.763 297.492L153.175 281.836H154.888L145.319 304.767C145.185 305.124 144.995 305.437 144.748 305.705C144.525 305.996 144.245 306.219 143.909 306.376C143.573 306.555 143.171 306.655 142.7 306.678C142.499 306.7 142.286 306.711 142.063 306.711C141.839 306.733 141.581 306.733 141.29 306.711V305.169Z" fill="white" fill-opacity="0.19"/>
<path d="M191.064 299.604C189.833 299.604 188.692 299.369 187.64 298.9C186.61 298.431 185.715 297.782 184.954 296.955C184.193 296.106 183.6 295.134 183.175 294.039C182.749 292.944 182.537 291.793 182.537 290.586C182.537 289.357 182.749 288.206 183.175 287.133C183.6 286.038 184.193 285.077 184.954 284.25C185.737 283.4 186.644 282.741 187.674 282.272C188.726 281.78 189.856 281.534 191.064 281.534C192.273 281.534 193.392 281.78 194.422 282.272C195.451 282.741 196.358 283.4 197.141 284.25C197.925 285.077 198.529 286.038 198.954 287.133C199.38 288.206 199.592 289.357 199.592 290.586C199.592 291.793 199.38 292.944 198.954 294.039C198.529 295.134 197.925 296.106 197.141 296.955C196.38 297.782 195.474 298.431 194.422 298.9C193.392 299.369 192.273 299.604 191.064 299.604ZM184.215 290.653C184.215 292.016 184.518 293.268 185.122 294.408C185.749 295.525 186.577 296.419 187.606 297.09C188.636 297.76 189.778 298.095 191.031 298.095C192.284 298.095 193.426 297.76 194.455 297.09C195.507 296.397 196.336 295.48 196.94 294.341C197.567 293.178 197.88 291.916 197.88 290.552C197.88 289.189 197.567 287.937 196.94 286.798C196.336 285.658 195.507 284.753 194.455 284.082C193.426 283.389 192.296 283.043 191.064 283.043C189.811 283.043 188.67 283.389 187.64 284.082C186.61 284.775 185.782 285.691 185.156 286.831C184.529 287.971 184.215 289.245 184.215 290.653Z" fill="white" fill-opacity="0.19"/>
<path d="M213.021 299.269V283.21H210.57V281.836H213.021V281.266C213.021 279.858 213.223 278.64 213.626 277.612C214.028 276.584 214.599 275.801 215.338 275.265C216.076 274.729 216.949 274.46 217.957 274.46C218.628 274.46 219.277 274.561 219.904 274.762C220.531 274.963 221.045 275.232 221.448 275.567L220.844 276.774C220.553 276.505 220.172 276.304 219.702 276.17C219.232 276.014 218.751 275.936 218.259 275.936C217.117 275.936 216.233 276.394 215.606 277.31C215.002 278.204 214.7 279.511 214.7 281.232V281.836H219.669V283.21H214.7V299.269H213.021Z" fill="white" fill-opacity="0.19"/>
<path d="M256.053 299.604C254.844 299.604 253.714 299.369 252.662 298.9C251.61 298.408 250.692 297.749 249.909 296.922C249.126 296.073 248.51 295.1 248.062 294.005C247.637 292.91 247.425 291.737 247.425 290.485C247.425 288.809 247.794 287.3 248.533 285.959C249.271 284.618 250.29 283.546 251.588 282.741C252.886 281.936 254.363 281.534 256.019 281.534C257.609 281.534 259.008 281.903 260.216 282.64C261.425 283.356 262.331 284.339 262.936 285.591L261.291 286.127C260.776 285.166 260.037 284.417 259.075 283.881C258.135 283.322 257.094 283.043 255.952 283.043C254.677 283.043 253.524 283.367 252.494 284.015C251.465 284.663 250.636 285.557 250.01 286.697C249.405 287.814 249.103 289.077 249.103 290.485C249.103 291.871 249.417 293.145 250.043 294.307C250.67 295.469 251.498 296.397 252.528 297.09C253.58 297.76 254.732 298.095 255.986 298.095C256.792 298.095 257.575 297.95 258.336 297.659C259.119 297.347 259.791 296.944 260.35 296.453C260.932 295.961 261.313 295.436 261.492 294.877L263.137 295.346C262.846 296.173 262.343 296.911 261.626 297.559C260.91 298.185 260.071 298.688 259.108 299.068C258.168 299.425 257.15 299.604 256.053 299.604Z" fill="white" fill-opacity="0.19"/>
<path d="M284.084 283.344C282.518 283.389 281.141 283.859 279.955 284.753C278.791 285.624 277.974 286.831 277.504 288.373V299.269H275.825V281.836H277.437V286.127C278.041 284.898 278.847 283.903 279.854 283.143C280.861 282.361 281.925 281.914 283.044 281.802C283.268 281.78 283.469 281.769 283.648 281.769C283.827 281.769 283.973 281.769 284.084 281.769V283.344Z" fill="white" fill-opacity="0.19"/>
<path d="M302.896 299.604C301.665 299.604 300.524 299.369 299.472 298.9C298.42 298.408 297.502 297.749 296.719 296.922C295.958 296.073 295.353 295.1 294.906 294.005C294.48 292.888 294.268 291.714 294.268 290.485C294.268 288.831 294.637 287.334 295.376 285.993C296.114 284.652 297.133 283.579 298.431 282.775C299.729 281.948 301.184 281.534 302.796 281.534C304.452 281.534 305.918 281.948 307.194 282.775C308.469 283.601 309.477 284.697 310.215 286.06C310.976 287.401 311.357 288.876 311.357 290.485C311.357 290.619 311.357 290.753 311.357 290.888C311.357 291.022 311.346 291.133 311.323 291.223H296.014C296.103 292.541 296.472 293.737 297.122 294.81C297.771 295.883 298.599 296.732 299.606 297.358C300.636 297.961 301.755 298.263 302.963 298.263C304.172 298.263 305.314 297.95 306.388 297.324C307.462 296.698 308.212 295.894 308.637 294.91L310.115 295.313C309.779 296.14 309.242 296.877 308.503 297.525C307.787 298.174 306.936 298.688 305.951 299.068C304.989 299.425 303.971 299.604 302.896 299.604ZM295.946 289.915H309.745C309.656 288.552 309.298 287.345 308.671 286.295C308.044 285.244 307.216 284.417 306.186 283.814C305.179 283.21 304.06 282.909 302.829 282.909C301.598 282.909 300.479 283.21 299.472 283.814C298.465 284.417 297.648 285.244 297.021 286.295C296.394 287.345 296.036 288.552 295.946 289.915Z" fill="white" fill-opacity="0.19"/>
<path d="M322.504 294.24C322.504 293.19 322.817 292.284 323.444 291.524C324.07 290.742 324.932 290.139 326.029 289.714C327.126 289.267 328.39 289.044 329.823 289.044C330.718 289.044 331.647 289.122 332.609 289.278C333.572 289.435 334.433 289.647 335.194 289.915V288.273C335.194 286.663 334.724 285.378 333.784 284.417C332.867 283.456 331.591 282.976 329.957 282.976C329.084 282.976 328.178 283.154 327.237 283.512C326.297 283.87 325.335 284.384 324.35 285.054L323.645 283.847C324.787 283.087 325.883 282.518 326.935 282.138C328.01 281.735 329.073 281.534 330.125 281.534C332.206 281.534 333.852 282.149 335.06 283.378C336.269 284.607 336.873 286.283 336.873 288.407V297.056C336.873 297.324 336.929 297.525 337.041 297.659C337.175 297.794 337.366 297.872 337.612 297.894V299.269C337.41 299.291 337.242 299.302 337.108 299.302C336.974 299.302 336.862 299.302 336.772 299.302C336.347 299.235 336.011 299.056 335.765 298.766C335.541 298.475 335.418 298.151 335.396 297.794V296.419C334.59 297.425 333.549 298.207 332.274 298.766C331.02 299.325 329.7 299.604 328.312 299.604C327.215 299.604 326.219 299.369 325.324 298.9C324.451 298.431 323.757 297.794 323.242 296.989C322.75 296.162 322.504 295.246 322.504 294.24ZM334.523 295.682C334.747 295.391 334.915 295.112 335.027 294.843C335.139 294.575 335.194 294.329 335.194 294.106V291.223C334.389 290.91 333.549 290.675 332.676 290.519C331.803 290.362 330.908 290.284 329.991 290.284C328.245 290.284 326.823 290.63 325.727 291.323C324.652 292.016 324.115 292.955 324.115 294.139C324.115 294.877 324.305 295.559 324.686 296.184C325.066 296.81 325.592 297.313 326.264 297.693C326.958 298.073 327.752 298.263 328.648 298.263C329.901 298.263 331.054 298.028 332.106 297.559C333.18 297.067 333.986 296.441 334.523 295.682Z" fill="white" fill-opacity="0.19"/>
<path d="M358.535 298.431C358.423 298.475 358.199 298.587 357.864 298.766C357.528 298.945 357.103 299.112 356.588 299.269C356.073 299.403 355.502 299.47 354.875 299.47C354.271 299.47 353.7 299.358 353.163 299.135C352.648 298.889 352.234 298.531 351.921 298.062C351.608 297.592 351.451 297.023 351.451 296.352V283.21H349V281.836H351.451V275.868H353.13V281.836H357.192V283.21H353.13V295.95C353.174 296.598 353.409 297.09 353.835 297.425C354.26 297.738 354.752 297.894 355.312 297.894C356.006 297.894 356.61 297.782 357.125 297.559C357.64 297.313 357.942 297.157 358.031 297.09L358.535 298.431Z" fill="white" fill-opacity="0.19"/>
<path d="M370.397 299.269V281.836H372.076V299.269H370.397ZM370.397 277.88V274.796H372.076V277.88H370.397Z" fill="white" fill-opacity="0.19"/>
<path d="M393.564 299.604C392.333 299.604 391.191 299.369 390.139 298.9C389.11 298.431 388.215 297.782 387.454 296.955C386.693 296.106 386.099 295.134 385.674 294.039C385.249 292.944 385.036 291.793 385.036 290.586C385.036 289.357 385.249 288.206 385.674 287.133C386.099 286.038 386.693 285.077 387.454 284.25C388.237 283.4 389.143 282.741 390.173 282.272C391.225 281.78 392.355 281.534 393.564 281.534C394.773 281.534 395.892 281.78 396.921 282.272C397.951 282.741 398.857 283.4 399.641 284.25C400.424 285.077 401.029 286.038 401.454 287.133C401.879 288.206 402.092 289.357 402.092 290.586C402.092 291.793 401.879 292.944 401.454 294.039C401.029 295.134 400.424 296.106 399.641 296.955C398.88 297.782 397.973 298.431 396.921 298.9C395.892 299.369 394.773 299.604 393.564 299.604ZM386.715 290.653C386.715 292.016 387.017 293.268 387.621 294.408C388.248 295.525 389.076 296.419 390.106 297.09C391.135 297.76 392.277 298.095 393.53 298.095C394.784 298.095 395.925 297.76 396.955 297.09C398.007 296.397 398.835 295.48 399.439 294.341C400.066 293.178 400.379 291.916 400.379 290.552C400.379 289.189 400.066 287.937 399.439 286.798C398.835 285.658 398.007 284.753 396.955 284.082C395.925 283.389 394.795 283.043 393.564 283.043C392.311 283.043 391.169 283.389 390.139 284.082C389.11 284.775 388.282 285.691 387.655 286.831C387.028 287.971 386.715 289.245 386.715 290.653Z" fill="white" fill-opacity="0.19"/>
<path d="M429.28 299.269H427.601V289.547C427.601 287.312 427.276 285.68 426.627 284.652C426.001 283.601 424.993 283.076 423.606 283.076C422.621 283.076 421.647 283.311 420.685 283.78C419.745 284.25 418.917 284.898 418.2 285.725C417.506 286.529 417.003 287.446 416.689 288.474V299.269H415.011V281.836H416.589V285.993C417.059 285.099 417.685 284.328 418.469 283.68C419.252 283.009 420.125 282.484 421.088 282.104C422.05 281.724 423.046 281.534 424.076 281.534C425.038 281.534 425.844 281.713 426.493 282.071C427.164 282.406 427.702 282.897 428.105 283.546C428.53 284.194 428.832 284.998 429.011 285.959C429.19 286.92 429.28 288.016 429.28 289.245V299.269Z" fill="white" fill-opacity="0.19"/>
<path d="M15.0425 249.505H13.3638V239.783C13.3638 237.638 12.9945 236.028 12.2559 234.956C11.5173 233.861 10.4429 233.313 9.03282 233.313C8.11514 233.313 7.19746 233.548 6.27977 234.017C5.36209 234.486 4.56751 235.134 3.89604 235.961C3.22456 236.766 2.74334 237.682 2.45237 238.71V249.505H0.773682V225.032H2.45237V236.23C3.16861 234.866 4.16463 233.782 5.44043 232.978C6.71623 232.173 8.07038 231.771 9.50286 231.771C10.4877 231.771 11.327 231.95 12.0209 232.307C12.7147 232.665 13.2855 233.179 13.7331 233.849C14.1808 234.52 14.5053 235.324 14.7068 236.263C14.9306 237.202 15.0425 238.275 15.0425 239.481V249.505Z" fill="white" fill-opacity="0.19"/>
<path d="M29.015 249.505V232.073H30.6937V249.505H29.015ZM29.015 228.117V225.032H30.6937V228.117H29.015Z" fill="white" fill-opacity="0.19"/>
<path d="M50.3689 249.841C48.9812 249.841 47.6942 249.606 46.5079 249.137C45.3217 248.667 44.2809 247.952 43.3856 246.991L44.1578 245.818C45.1202 246.734 46.0939 247.404 47.0787 247.829C48.0635 248.231 49.1379 248.433 50.3018 248.433C51.8014 248.433 53.01 248.12 53.9277 247.494C54.8678 246.868 55.3378 245.996 55.3378 244.879C55.3378 244.119 55.114 243.538 54.6664 243.136C54.2411 242.711 53.6144 242.376 52.7862 242.13C51.9805 241.862 50.9956 241.582 49.8317 241.292C48.6455 240.979 47.6383 240.655 46.8101 240.32C46.0043 239.984 45.4 239.549 44.9971 239.012C44.5942 238.476 44.3928 237.749 44.3928 236.833C44.3928 235.693 44.6726 234.755 45.2321 234.017C45.8141 233.257 46.5863 232.698 47.5487 232.341C48.5336 231.961 49.6191 231.771 50.8054 231.771C52.1707 231.771 53.357 231.994 54.3642 232.441C55.3938 232.888 56.1772 233.481 56.7144 234.218L55.8079 235.291C55.2483 234.576 54.5209 234.051 53.6256 233.715C52.7303 233.358 51.7454 233.179 50.6711 233.179C49.8653 233.179 49.1043 233.291 48.3881 233.514C47.6718 233.738 47.0899 234.106 46.6422 234.62C46.217 235.112 46.0043 235.783 46.0043 236.632C46.0043 237.302 46.161 237.828 46.4744 238.208C46.8101 238.588 47.3025 238.9 47.9516 239.146C48.6007 239.37 49.4065 239.616 50.3689 239.884C51.7342 240.219 52.9093 240.565 53.8942 240.923C54.879 241.281 55.64 241.75 56.1772 242.331C56.7144 242.89 56.9829 243.683 56.9829 244.711C56.9829 246.298 56.3786 247.55 55.17 248.466C53.9613 249.382 52.361 249.841 50.3689 249.841Z" fill="white" fill-opacity="0.19"/>
<path d="M77.6145 248.667C77.5026 248.712 77.2788 248.824 76.9431 249.002C76.6073 249.181 76.1821 249.349 75.6673 249.505C75.1525 249.639 74.5817 249.707 73.955 249.707C73.3507 249.707 72.7799 249.595 72.2427 249.371C71.7279 249.125 71.3139 248.768 71.0005 248.298C70.6871 247.829 70.5305 247.259 70.5305 246.589V233.447H68.0796V232.073H70.5305V226.105H72.2092V232.073H76.2716V233.447H72.2092V246.186C72.2539 246.835 72.4889 247.326 72.9142 247.662C73.3395 247.974 73.8319 248.131 74.3914 248.131C75.0853 248.131 75.6896 248.019 76.2044 247.796C76.7192 247.55 77.0214 247.393 77.1109 247.326L77.6145 248.667Z" fill="white" fill-opacity="0.19"/>
<path d="M96.4678 249.841C95.2367 249.841 94.0952 249.606 93.0432 249.137C92.0136 248.667 91.1183 248.019 90.3573 247.192C89.5963 246.343 89.0032 245.371 88.5779 244.276C88.1527 243.18 87.94 242.029 87.94 240.822C87.94 239.593 88.1527 238.442 88.5779 237.369C89.0032 236.274 89.5963 235.313 90.3573 234.486C91.1407 233.637 92.0472 232.978 93.0768 232.508C94.1288 232.017 95.2591 231.771 96.4678 231.771C97.6764 231.771 98.7955 232.017 99.8251 232.508C100.855 232.978 101.761 233.637 102.545 234.486C103.328 235.313 103.932 236.274 104.358 237.369C104.783 238.442 104.995 239.593 104.995 240.822C104.995 242.029 104.783 243.18 104.358 244.276C103.932 245.371 103.328 246.343 102.545 247.192C101.784 248.019 100.877 248.667 99.8251 249.137C98.7955 249.606 97.6764 249.841 96.4678 249.841ZM89.6187 240.89C89.6187 242.253 89.9209 243.504 90.5252 244.644C91.1519 245.762 91.9801 246.656 93.0097 247.326C94.0393 247.997 95.1808 248.332 96.4342 248.332C97.6876 248.332 98.8291 247.997 99.8587 247.326C100.911 246.633 101.739 245.717 102.343 244.577C102.97 243.415 103.283 242.152 103.283 240.789C103.283 239.426 102.97 238.174 102.343 237.034C101.739 235.894 100.911 234.989 99.8587 234.319C98.8291 233.626 97.6988 233.279 96.4678 233.279C95.2143 233.279 94.0728 233.626 93.0432 234.319C92.0136 235.012 91.1855 235.928 90.5588 237.068C89.9321 238.208 89.6187 239.481 89.6187 240.89Z" fill="white" fill-opacity="0.19"/>
<path d="M126.174 233.581C124.607 233.626 123.23 234.095 122.044 234.989C120.88 235.861 120.063 237.068 119.593 238.61V249.505H117.915V232.073H119.526V236.364C120.13 235.134 120.936 234.14 121.943 233.38C122.951 232.598 124.014 232.151 125.133 232.039C125.357 232.017 125.558 232.006 125.737 232.006C125.916 232.006 126.062 232.006 126.174 232.006V233.581Z" fill="white" fill-opacity="0.19"/>
<path d="M139.429 255.406C139.787 255.428 140.101 255.428 140.369 255.406C140.66 255.406 140.873 255.361 141.007 255.272C141.209 255.205 141.41 255.026 141.612 254.735C141.835 254.467 142.126 253.919 142.484 253.092C142.843 252.288 143.346 251.092 143.995 249.505L136.206 232.073H137.986L144.902 247.729L151.314 232.073H153.027L143.458 255.003C143.324 255.361 143.134 255.674 142.887 255.942C142.664 256.233 142.384 256.456 142.048 256.613C141.712 256.791 141.309 256.892 140.839 256.914C140.638 256.937 140.425 256.948 140.201 256.948C139.978 256.97 139.72 256.97 139.429 256.948V255.406Z" fill="white" fill-opacity="0.19"/>
<path d="M189.203 249.841C187.972 249.841 186.831 249.606 185.779 249.137C184.749 248.667 183.854 248.019 183.093 247.192C182.332 246.343 181.739 245.371 181.314 244.276C180.888 243.18 180.676 242.029 180.676 240.822C180.676 239.593 180.888 238.442 181.314 237.369C181.739 236.274 182.332 235.313 183.093 234.486C183.876 233.637 184.783 232.978 185.812 232.508C186.864 232.017 187.995 231.771 189.203 231.771C190.412 231.771 191.531 232.017 192.561 232.508C193.59 232.978 194.497 233.637 195.28 234.486C196.064 235.313 196.668 236.274 197.093 237.369C197.519 238.442 197.731 239.593 197.731 240.822C197.731 242.029 197.519 243.18 197.093 244.276C196.668 245.371 196.064 246.343 195.28 247.192C194.519 248.019 193.613 248.667 192.561 249.137C191.531 249.606 190.412 249.841 189.203 249.841ZM182.354 240.89C182.354 242.253 182.657 243.504 183.261 244.644C183.888 245.762 184.716 246.656 185.745 247.326C186.775 247.997 187.916 248.332 189.17 248.332C190.423 248.332 191.565 247.997 192.594 247.326C193.646 246.633 194.474 245.717 195.079 244.577C195.706 243.415 196.019 242.152 196.019 240.789C196.019 239.426 195.706 238.174 195.079 237.034C194.474 235.894 193.646 234.989 192.594 234.319C191.565 233.626 190.434 233.279 189.203 233.279C187.95 233.279 186.808 233.626 185.779 234.319C184.749 235.012 183.921 235.928 183.294 237.068C182.668 238.208 182.354 239.481 182.354 240.89Z" fill="white" fill-opacity="0.19"/>
<path d="M211.16 249.505V233.447H208.709V232.073H211.16V231.503C211.16 230.095 211.362 228.877 211.764 227.848C212.167 226.82 212.738 226.038 213.477 225.502C214.215 224.965 215.088 224.697 216.095 224.697C216.767 224.697 217.416 224.798 218.043 224.999C218.669 225.2 219.184 225.468 219.587 225.803L218.983 227.01C218.692 226.742 218.311 226.541 217.841 226.407C217.371 226.25 216.89 226.172 216.398 226.172C215.256 226.172 214.372 226.63 213.745 227.547C213.141 228.441 212.839 229.748 212.839 231.469V232.073H217.808V233.447H212.839V249.505H211.16Z" fill="white" fill-opacity="0.19"/>
<path d="M254.192 249.841C252.983 249.841 251.853 249.606 250.801 249.137C249.749 248.645 248.831 247.986 248.048 247.159C247.265 246.309 246.649 245.337 246.201 244.242C245.776 243.147 245.563 241.973 245.563 240.722C245.563 239.046 245.933 237.537 246.671 236.196C247.41 234.855 248.428 233.782 249.727 232.978C251.025 232.173 252.502 231.771 254.158 231.771C255.748 231.771 257.146 232.14 258.355 232.877C259.564 233.592 260.47 234.576 261.075 235.827L259.429 236.364C258.915 235.403 258.176 234.654 257.214 234.118C256.274 233.559 255.233 233.279 254.091 233.279C252.815 233.279 251.663 233.604 250.633 234.252C249.604 234.9 248.775 235.794 248.149 236.934C247.544 238.051 247.242 239.314 247.242 240.722C247.242 242.108 247.556 243.382 248.182 244.544C248.809 245.706 249.637 246.633 250.667 247.326C251.719 247.997 252.871 248.332 254.125 248.332C254.931 248.332 255.714 248.187 256.475 247.896C257.258 247.583 257.93 247.181 258.489 246.689C259.071 246.198 259.452 245.672 259.631 245.114L261.276 245.583C260.985 246.41 260.481 247.147 259.765 247.796C259.049 248.421 258.21 248.924 257.247 249.304C256.307 249.662 255.289 249.841 254.192 249.841Z" fill="white" fill-opacity="0.19"/>
<path d="M282.223 233.581C280.657 233.626 279.28 234.095 278.094 234.989C276.93 235.861 276.113 237.068 275.643 238.61V249.505H273.964V232.073H275.576V236.364C276.18 235.134 276.986 234.14 277.993 233.38C279 232.598 280.064 232.151 281.183 232.039C281.406 232.017 281.608 232.006 281.787 232.006C281.966 232.006 282.111 232.006 282.223 232.006V233.581Z" fill="white" fill-opacity="0.19"/>
<path d="M301.035 249.841C299.804 249.841 298.663 249.606 297.611 249.137C296.559 248.645 295.641 247.986 294.858 247.159C294.097 246.309 293.492 245.337 293.045 244.242C292.619 243.125 292.407 241.951 292.407 240.722C292.407 239.068 292.776 237.571 293.515 236.23C294.253 234.889 295.272 233.816 296.57 233.011C297.868 232.184 299.323 231.771 300.934 231.771C302.591 231.771 304.057 232.184 305.333 233.011C306.608 233.838 307.616 234.933 308.354 236.297C309.115 237.638 309.496 239.113 309.496 240.722C309.496 240.856 309.496 240.99 309.496 241.124C309.496 241.258 309.485 241.37 309.462 241.459H294.153C294.242 242.778 294.611 243.974 295.26 245.047C295.91 246.119 296.738 246.969 297.745 247.594C298.775 248.198 299.894 248.5 301.102 248.5C302.311 248.5 303.452 248.187 304.527 247.561C305.601 246.935 306.351 246.131 306.776 245.147L308.254 245.549C307.918 246.376 307.381 247.114 306.642 247.762C305.926 248.41 305.075 248.924 304.09 249.304C303.128 249.662 302.11 249.841 301.035 249.841ZM294.085 240.152H307.884C307.795 238.789 307.437 237.582 306.81 236.531C306.183 235.481 305.355 234.654 304.325 234.051C303.318 233.447 302.199 233.145 300.968 233.145C299.737 233.145 298.618 233.447 297.611 234.051C296.603 234.654 295.786 235.481 295.16 236.531C294.533 237.582 294.175 238.789 294.085 240.152Z" fill="white" fill-opacity="0.19"/>
<path d="M320.642 244.477C320.642 243.426 320.956 242.521 321.583 241.761C322.209 240.979 323.071 240.375 324.168 239.951C325.264 239.504 326.529 239.28 327.962 239.28C328.857 239.28 329.786 239.359 330.748 239.515C331.711 239.671 332.572 239.884 333.333 240.152V238.509C333.333 236.9 332.863 235.615 331.923 234.654C331.006 233.693 329.73 233.212 328.096 233.212C327.223 233.212 326.316 233.391 325.376 233.749C324.436 234.106 323.474 234.62 322.489 235.291L321.784 234.084C322.926 233.324 324.022 232.754 325.074 232.374C326.149 231.972 327.212 231.771 328.264 231.771C330.345 231.771 331.99 232.385 333.199 233.615C334.408 234.844 335.012 236.52 335.012 238.643V247.293C335.012 247.561 335.068 247.762 335.18 247.896C335.314 248.03 335.504 248.109 335.751 248.131V249.505C335.549 249.528 335.381 249.539 335.247 249.539C335.113 249.539 335.001 249.539 334.911 249.539C334.486 249.472 334.15 249.293 333.904 249.002C333.68 248.712 333.557 248.388 333.535 248.03V246.656C332.729 247.662 331.688 248.444 330.412 249.002C329.159 249.561 327.838 249.841 326.451 249.841C325.354 249.841 324.358 249.606 323.463 249.137C322.59 248.667 321.896 248.03 321.381 247.226C320.889 246.399 320.642 245.482 320.642 244.477ZM332.662 245.918C332.886 245.628 333.054 245.348 333.165 245.08C333.277 244.812 333.333 244.566 333.333 244.343V241.459C332.528 241.147 331.688 240.912 330.815 240.755C329.942 240.599 329.047 240.521 328.129 240.521C326.384 240.521 324.962 240.867 323.866 241.56C322.791 242.253 322.254 243.192 322.254 244.376C322.254 245.114 322.444 245.795 322.825 246.421C323.205 247.047 323.731 247.55 324.403 247.93C325.097 248.31 325.891 248.5 326.786 248.5C328.04 248.5 329.193 248.265 330.245 247.796C331.319 247.304 332.125 246.678 332.662 245.918Z" fill="white" fill-opacity="0.19"/>
<path d="M356.674 248.667C356.562 248.712 356.338 248.824 356.002 249.002C355.667 249.181 355.241 249.349 354.727 249.505C354.212 249.639 353.641 249.707 353.014 249.707C352.41 249.707 351.839 249.595 351.302 249.371C350.787 249.125 350.373 248.768 350.06 248.298C349.747 247.829 349.59 247.259 349.59 246.589V233.447H347.139V232.073H349.59V226.105H351.269V232.073H355.331V233.447H351.269V246.186C351.313 246.835 351.548 247.326 351.974 247.662C352.399 247.974 352.891 248.131 353.451 248.131C354.145 248.131 354.749 248.019 355.264 247.796C355.779 247.55 356.081 247.393 356.17 247.326L356.674 248.667Z" fill="white" fill-opacity="0.19"/>
<path d="M368.536 249.505V232.073H370.215V249.505H368.536ZM368.536 228.117V225.032H370.215V228.117H368.536Z" fill="white" fill-opacity="0.19"/>
<path d="M391.703 249.841C390.472 249.841 389.33 249.606 388.278 249.137C387.249 248.667 386.353 248.019 385.592 247.192C384.831 246.343 384.238 245.371 383.813 244.276C383.388 243.18 383.175 242.029 383.175 240.822C383.175 239.593 383.388 238.442 383.813 237.369C384.238 236.274 384.831 235.313 385.592 234.486C386.376 233.637 387.282 232.978 388.312 232.508C389.364 232.017 390.494 231.771 391.703 231.771C392.912 231.771 394.031 232.017 395.06 232.508C396.09 232.978 396.996 233.637 397.78 234.486C398.563 235.313 399.167 236.274 399.593 237.369C400.018 238.442 400.231 239.593 400.231 240.822C400.231 242.029 400.018 243.18 399.593 244.276C399.167 245.371 398.563 246.343 397.78 247.192C397.019 248.019 396.112 248.667 395.06 249.137C394.031 249.606 392.912 249.841 391.703 249.841ZM384.854 240.89C384.854 242.253 385.156 243.504 385.76 244.644C386.387 245.762 387.215 246.656 388.245 247.326C389.274 247.997 390.416 248.332 391.669 248.332C392.923 248.332 394.064 247.997 395.094 247.326C396.146 246.633 396.974 245.717 397.578 244.577C398.205 243.415 398.518 242.152 398.518 240.789C398.518 239.426 398.205 238.174 397.578 237.034C396.974 235.894 396.146 234.989 395.094 234.319C394.064 233.626 392.934 233.279 391.703 233.279C390.449 233.279 389.308 233.626 388.278 234.319C387.249 235.012 386.421 235.928 385.794 237.068C385.167 238.208 384.854 239.481 384.854 240.89Z" fill="white" fill-opacity="0.19"/>
<path d="M427.419 249.505H425.74V239.783C425.74 237.548 425.415 235.917 424.766 234.889C424.14 233.838 423.132 233.313 421.745 233.313C420.76 233.313 419.786 233.548 418.824 234.017C417.884 234.486 417.055 235.134 416.339 235.961C415.645 236.766 415.142 237.682 414.828 238.71V249.505H413.15V232.073H414.728V236.23C415.198 235.336 415.824 234.565 416.608 233.916C417.391 233.246 418.264 232.721 419.227 232.341C420.189 231.961 421.185 231.771 422.215 231.771C423.177 231.771 423.983 231.95 424.632 232.307C425.303 232.642 425.841 233.134 426.243 233.782C426.669 234.43 426.971 235.235 427.15 236.196C427.329 237.157 427.419 238.252 427.419 239.481V249.505Z" fill="white" fill-opacity="0.19"/>
<path d="M291.714 88.1126L295.376 80.7558C303.424 59.7946 314.051 40.6646 327.626 23.3649C351.938 35.4344 365.23 55.2448 367.131 82.0621C366.84 115.865 355.498 143.815 332.368 166.28C309.238 188.746 280.197 200.937 245.612 202.485C254.032 183.727 261.717 164.972 268.664 145.85C275.979 126.36 283.661 106.869 291.714 88.1126ZM118.223 330.27C135.506 325.454 151.31 317.702 165.638 307.749C179.965 297.796 191.717 287.482 200.891 276.806C218.138 256.191 232.068 233.379 243.051 208.737C286.103 209.006 319.928 197.172 344.526 173.234C369.125 149.295 380.838 122.447 380.034 92.6879C379.23 62.9288 362.618 39.0843 329.828 21.1554C336.065 13.058 343.78 7.52913 353.341 4.93543C353.708 4.56716 354.075 4.19891 354.442 3.83066C354.809 3.46241 354.808 3.095 354.439 2.7284C354.071 2.36183 353.703 2.36267 353.335 2.36351C341.196 3.86083 330.905 9.02814 322.461 17.498C297.049 7.63555 269.077 4.39247 238.544 7.76878C208.012 11.1451 179.7 20.3951 153.609 35.5187C127.519 50.6423 108.063 70.8946 95.6108 96.2749C88.6541 111.355 86.117 128.262 88.3667 146.628C90.2493 165.362 99.1112 178.936 114.586 187.719C137.053 197.221 158.755 194.232 180.062 179.119C201.001 164.008 216.779 144.498 227.026 120.225C237.274 95.9523 237.226 75.0096 226.882 57.0295C226.881 56.6621 226.881 56.6621 226.513 56.663C226.145 56.6638 226.145 56.6638 226.145 56.6638C225.778 57.0321 225.779 57.3995 225.78 57.7669C232.065 70.6123 233.199 83.8368 228.814 97.4413C224.431 111.413 218.572 123.919 211.238 134.958C201.704 149.309 188.117 161.465 170.108 170.691C152.099 179.918 134.806 180.325 118.597 171.911C99.8002 158.359 91.2994 141.845 93.8306 122.366C95.9939 102.888 103.681 85.234 117.26 69.7715C141.851 42.5264 173.085 24.0843 211.331 14.8117C249.21 5.53999 285.642 7.29412 320.26 20.4424C315.487 25.2297 311.452 30.3828 307.416 35.5358C302.28 42.5285 296.779 50.6243 291.279 59.0874C285.412 67.9189 280.648 76.3804 276.987 84.4719C267.833 103.966 259.784 124.192 252.103 144.418C245.156 163.907 237.474 183.398 228.685 202.156C225.373 201.796 221.693 201.437 217.643 200.712C213.595 200.353 209.546 199.628 206.233 199.268C205.865 199.269 205.865 199.269 205.497 199.27C205.13 199.638 205.13 199.638 205.499 200.004C205.5 200.372 205.5 200.372 205.868 200.371C212.13 203.296 219.126 205.485 226.489 206.938C216.601 227.536 203.401 248.141 186.522 268.388C169.275 289.002 149.81 305.213 127.759 316.653C105.339 328.095 81.7968 331.087 57.1295 324.897C38.3511 319.429 24.7108 308.07 16.2075 290.453C12.1356 279.807 11.7425 268.786 14.6618 258.124C17.5811 247.462 23.8162 238.63 33.0009 232.363C33.368 231.994 33.7351 231.626 33.7343 231.259C33.3655 230.892 33.3646 230.525 32.9958 230.158C32.627 229.792 31.8911 229.793 31.524 230.162C17.1964 240.115 9.87001 254.461 9.91113 272.464C10.321 290.834 16.2411 305.15 27.6703 315.044C39.0996 324.939 53.4642 331.152 70.0281 333.686C86.592 336.22 102.412 335.082 118.223 330.27Z" fill="white"/>
<path fill-rule="evenodd" clip-rule="evenodd" d="M295.376 80.7548L291.713 88.1116C283.661 106.868 275.978 126.359 268.664 145.849C262.006 164.172 254.672 182.16 246.662 200.134C246.313 200.918 245.963 201.701 245.611 202.484C246.475 202.446 247.335 202.4 248.192 202.348C281.643 200.32 309.814 188.184 332.367 166.279C355.497 143.814 366.84 115.864 367.131 82.0609C365.23 55.2436 351.938 35.4332 327.626 23.3638C314.051 40.6635 303.423 59.7936 295.376 80.7548ZM328.275 26.2728C315.404 42.9862 305.263 61.4159 297.523 81.5768L297.484 81.6791L293.802 89.0757C285.778 107.769 278.119 127.2 270.821 146.644C264.279 164.649 257.087 182.326 249.248 199.979C281.66 197.769 308.9 185.868 330.763 164.633C353.399 142.648 364.525 115.33 364.83 82.1326C363.009 56.7989 350.769 38.0325 328.275 26.2728ZM353.341 4.93423C344.513 7.32896 337.26 12.2257 331.29 19.3361C330.794 19.9269 330.307 20.533 329.828 21.1543C330.513 21.5285 331.19 21.9053 331.86 22.2846C363.304 40.081 379.247 63.5486 380.034 92.6866C380.837 122.446 369.124 149.294 344.525 173.232C319.927 197.171 286.102 209.005 243.05 208.736C232.068 233.378 218.137 256.19 200.89 276.805C191.716 287.481 179.964 297.796 165.637 307.748C151.309 317.702 135.505 325.453 118.222 330.269C102.41 335.082 86.5908 336.22 70.0269 333.686C53.463 331.152 39.0985 324.938 27.6692 315.044C16.24 305.15 10.32 290.834 9.91013 272.464C9.86907 254.461 17.1955 240.114 31.5232 230.161C31.8903 229.793 32.6262 229.792 32.995 230.158C33.1794 230.341 33.2718 230.525 33.3642 230.708C33.4566 230.892 33.549 231.075 33.7334 231.259C33.7343 231.626 33.3671 231.994 33 232.363C23.8154 238.63 17.5802 247.462 14.6609 258.124C11.7415 268.786 12.1346 279.807 16.2064 290.453C24.7096 308.07 38.35 319.429 57.1283 324.897C81.7956 331.087 105.338 328.094 127.757 316.653C149.809 305.213 169.274 289.002 186.521 268.387C202.817 248.84 215.684 228.958 225.451 209.071C225.801 208.36 226.146 207.648 226.488 206.937C225.711 206.784 224.938 206.622 224.17 206.452C219.108 205.334 214.242 203.861 209.696 202.031C208.814 201.677 207.945 201.309 207.088 200.927C207.087 200.927 207.085 200.926 207.084 200.925C206.799 200.799 206.517 200.671 206.236 200.541C206.191 200.52 206.146 200.5 206.101 200.479C206.023 200.443 205.945 200.407 205.867 200.37C205.683 200.371 205.591 200.371 205.545 200.325C205.499 200.279 205.499 200.187 205.498 200.004C205.314 199.82 205.222 199.729 205.222 199.637C205.221 199.545 205.313 199.453 205.497 199.269L206.233 199.267C206.28 199.272 206.328 199.278 206.377 199.283C206.746 199.324 207.124 199.369 207.51 199.418C207.559 199.424 207.608 199.431 207.657 199.437C207.703 199.443 207.75 199.449 207.797 199.455C208.601 199.559 209.437 199.676 210.297 199.797C210.429 199.816 210.561 199.834 210.694 199.853C212.913 200.167 215.278 200.502 217.643 200.711C221.247 201.357 224.559 201.712 227.58 202.036C227.953 202.076 228.321 202.116 228.685 202.155C237.473 183.397 245.156 163.906 252.102 144.417C259.783 124.192 267.832 103.965 276.987 84.471C280.648 76.3794 285.412 67.9179 291.279 59.0864C296.779 50.6232 302.28 42.5275 307.416 35.5348C310.951 31.0209 314.486 26.507 318.516 22.2389C319.087 21.6346 319.668 21.0351 320.26 20.4413C319.474 20.1427 318.687 19.85 317.899 19.5632C294.354 10.993 269.978 7.66453 244.886 9.46293C242.859 9.60819 240.828 9.78689 238.792 9.99897C229.728 10.9431 220.573 12.5489 211.331 14.811C206.485 15.986 201.751 17.3083 197.129 18.777C165.276 28.899 138.734 45.9784 117.26 69.7711C103.68 85.2336 95.9935 102.887 93.8301 122.365C91.2989 141.844 99.7996 158.359 118.596 171.911C134.806 180.324 152.099 179.917 170.108 170.691C188.117 161.464 201.703 149.308 211.237 134.957C218.571 123.918 224.43 111.412 228.814 97.4405C231.574 88.8769 232.147 80.4639 230.625 72.2013C229.805 67.7434 228.374 63.3293 226.348 58.9589C226.343 58.9492 226.339 58.9394 226.334 58.9296C226.273 58.798 226.212 58.6664 226.149 58.5348C226.028 58.2784 225.905 58.0222 225.78 57.7661C225.78 57.7311 225.78 57.696 225.78 57.661C225.781 57.4511 225.794 57.2411 225.887 57.031C225.941 56.9084 226.023 56.7858 226.145 56.663L226.513 56.6622C226.697 56.6618 226.789 56.6616 226.835 56.7074C226.881 56.7532 226.881 56.8451 226.882 57.0288C226.912 57.0807 226.942 57.1328 226.971 57.1848C227.081 57.3771 227.19 57.5697 227.297 57.7627C227.316 57.7968 227.335 57.8309 227.354 57.865C229.811 62.2926 231.649 66.8985 232.869 71.6879C236.552 86.1445 234.604 102.274 227.026 120.225C216.779 144.498 201.001 164.007 180.062 179.119C158.755 194.232 137.052 197.22 114.585 187.719C99.1106 178.936 90.2486 165.362 88.3661 146.628C86.1165 128.262 88.6536 111.355 95.6104 96.2746C108.063 70.8943 127.519 50.6418 153.609 35.5181C167.279 27.5941 181.559 21.2825 196.449 16.5833C201.168 15.0941 205.948 13.7668 210.789 12.6014C210.791 12.601 210.792 12.6006 210.794 12.6002C219.831 10.4252 229.081 8.81447 238.544 7.76796C240.608 7.53969 242.661 7.34168 244.702 7.17392C272.848 4.8603 298.767 8.3013 322.461 17.4969C330.724 9.20802 340.756 4.08204 352.559 2.46333C352.583 2.46003 352.607 2.45675 352.631 2.45349C352.756 2.43647 352.882 2.41984 353.008 2.4036C353.116 2.38954 353.225 2.37577 353.335 2.3623C353.703 2.36146 354.071 2.36062 354.439 2.72719C354.808 3.0938 354.809 3.4612 354.442 3.82945L353.341 4.93423ZM321.906 14.8252C296.479 5.22895 268.592 2.13474 238.291 5.48555C207.446 8.89645 178.827 18.2451 152.455 33.5321C126.005 48.8642 106.215 69.442 93.5453 95.2643L93.5332 95.2889L93.5217 95.3138C86.3753 110.805 83.7885 128.137 86.0804 146.882C88.0403 166.319 97.3118 180.557 113.448 189.715L113.565 189.781L113.688 189.833C136.965 199.678 159.506 196.516 181.394 180.991L181.409 180.98C202.684 165.626 218.731 145.784 229.145 121.117C239.508 96.5694 239.67 74.9852 229.123 56.3182C229.06 56.0131 228.898 55.5178 228.458 55.0799C227.863 54.4892 227.167 54.4054 226.975 54.3846C226.783 54.3637 226.58 54.3653 226.52 54.3658L226.508 54.3658L225.187 54.3688L224.515 55.0429C223.471 56.0907 223.477 57.2872 223.48 57.7285C223.48 57.7437 223.48 57.758 223.48 57.7714L223.481 58.2996L223.713 58.7741C229.747 71.1071 230.82 83.7192 226.625 96.737L226.619 96.754C222.294 110.541 216.523 122.847 209.321 133.688C200.022 147.686 186.745 159.586 169.058 168.648C151.685 177.549 135.233 177.901 119.806 169.95C101.616 156.786 93.7193 141.064 96.1108 122.661L96.1135 122.64L96.1159 122.619C98.2263 103.617 105.713 86.4063 118.978 71.297C143.242 44.4183 174.06 26.2104 211.874 17.0425L211.879 17.0413C248.145 8.16426 282.999 9.51692 316.172 21.3818C312.344 25.5137 308.96 29.8347 305.642 34.0723L305.582 34.1482L305.561 34.1768C300.393 41.2135 294.869 49.3443 289.357 57.8259C283.44 66.7327 278.616 75.2946 274.898 83.5107C265.709 103.079 257.638 123.365 249.952 143.603L249.944 143.625L249.936 143.647C243.189 162.575 235.755 181.48 227.295 199.696C224.423 199.387 221.364 199.045 218.049 198.451L217.948 198.433L217.846 198.423C215.884 198.25 213.909 197.986 211.982 197.716C211.663 197.671 211.344 197.626 211.027 197.581C209.448 197.358 207.899 197.138 206.481 196.984L206.355 196.971L204.539 196.975L203.867 197.649L203.85 197.665C203.783 197.732 203.623 197.892 203.491 198.057C203.357 198.225 202.92 198.791 202.922 199.642C202.923 200.259 203.155 200.726 203.334 200.999C203.429 201.284 203.602 201.633 203.923 201.953C204.427 202.454 205.005 202.59 205.286 202.633C210.797 205.169 216.825 207.146 223.134 208.574C213.482 228.116 200.799 247.671 184.753 266.918C167.677 287.327 148.448 303.329 126.706 314.611C104.78 325.799 81.8227 328.716 57.731 322.681C39.6193 317.396 26.5317 306.5 18.3204 289.544C14.46 279.394 14.0932 268.904 16.8792 258.729C19.6565 248.586 25.5692 240.214 34.2975 234.259L34.4767 234.136L34.6603 233.952C34.8217 233.791 35.109 233.503 35.3476 233.184C35.584 232.868 36.0353 232.186 36.0331 231.253L36.031 230.302L35.4363 229.711C35.4311 229.701 35.4253 229.69 35.4188 229.677L35.405 229.649C35.3038 229.447 35.0705 228.981 34.6174 228.531C33.9029 227.82 32.9856 227.586 32.2532 227.588C31.5874 227.589 30.7698 227.787 30.0922 228.358C15.1981 238.756 7.56781 253.791 7.61041 272.469L7.61046 272.492L7.61097 272.515C8.0317 291.373 14.1337 306.366 26.1628 316.779C37.9655 326.997 52.7498 333.366 69.6786 335.956C86.5715 338.54 102.731 337.381 118.865 332.474C136.408 327.583 152.436 319.716 166.95 309.634C181.401 299.595 193.308 289.154 202.636 278.3L202.655 278.277C219.729 257.87 233.571 235.336 244.538 211.037C287.325 211.027 321.286 199.055 346.131 174.877C371.119 150.559 383.156 123.115 382.333 92.6247C381.521 62.5904 365.067 38.545 333.333 20.4794C338.979 13.8698 345.755 9.37175 353.944 7.15027L354.537 6.98933L356.072 5.44957C356.505 5.01458 357.019 4.28 357.016 3.27246C357.014 2.26493 356.498 1.53277 356.062 1.09976C355.013 0.0568548 353.814 0.0633282 353.372 0.0657464L353.329 0.0659406L353.191 0.0662573L353.053 0.0832594C340.903 1.58194 330.501 6.62092 321.906 14.8252Z" fill="white"/>
<path fill-rule="evenodd" clip-rule="evenodd" d="M320.896 90.7011L317.233 98.0578C309.181 116.815 301.498 136.305 294.183 155.795C287.526 174.118 280.192 192.106 272.182 210.08C271.833 210.864 271.483 211.647 271.131 212.43C271.995 212.392 272.855 212.346 273.712 212.294C307.163 210.267 335.334 198.13 357.887 176.226C381.017 153.76 392.36 125.811 392.65 92.0074C390.749 65.1901 377.458 45.3797 353.145 33.3102C339.57 50.6099 328.943 69.7399 320.896 90.7011ZM353.795 36.2192C340.924 52.9325 330.783 71.3622 323.043 91.5231L323.004 91.6253L319.321 99.022C311.298 117.715 303.638 137.147 296.341 156.59C289.799 174.595 282.607 192.272 274.768 209.925C307.18 207.715 334.42 195.814 356.283 174.579C378.919 152.595 390.045 125.277 390.35 92.0791C388.528 66.7454 376.288 47.979 353.795 36.2192ZM378.86 14.8807C370.032 17.2754 362.779 22.1722 356.809 29.2824C356.313 29.8733 355.826 30.4794 355.348 31.1007C356.032 31.4749 356.709 31.8517 357.38 32.231C388.823 50.0275 404.766 73.4951 405.553 102.633C406.357 132.392 394.644 159.241 370.045 183.179C345.447 207.117 311.622 218.952 268.57 218.682C257.588 243.324 243.657 266.136 226.41 286.751C217.236 297.427 205.485 307.741 191.157 317.694C176.829 327.647 161.025 335.399 143.742 340.215C127.931 345.027 112.111 346.166 95.5473 343.631C78.9834 341.097 64.6188 334.884 53.1896 324.99C41.7603 315.095 35.8402 300.779 35.4303 282.409C35.3892 264.406 42.7156 250.06 57.0432 240.107C57.4103 239.739 58.1462 239.737 58.515 240.103C58.6994 240.287 58.7918 240.47 58.8843 240.654C58.9767 240.837 59.0691 241.021 59.2535 241.204C59.2543 241.571 58.8872 241.94 58.5201 242.308C49.3354 248.575 43.1003 257.407 40.181 268.069C37.2617 278.731 37.6548 289.753 41.7267 300.399C50.23 318.015 63.8703 329.374 82.6487 334.843C107.316 341.033 130.858 338.04 153.278 326.599C175.329 315.158 194.794 298.948 212.041 278.333C228.338 258.786 241.204 238.904 250.971 219.017C251.321 218.306 251.666 217.594 252.008 216.883C251.231 216.73 250.458 216.568 249.689 216.398C244.628 215.28 239.762 213.807 235.216 211.977C234.334 211.623 233.465 211.255 232.608 210.873C232.607 210.873 232.605 210.872 232.604 210.871C232.319 210.745 232.037 210.617 231.756 210.487C231.711 210.466 231.666 210.446 231.621 210.425C231.543 210.389 231.465 210.353 231.387 210.316C231.203 210.317 231.111 210.317 231.065 210.271C231.019 210.225 231.019 210.133 231.018 209.95C230.834 209.766 230.742 209.675 230.742 209.583C230.741 209.491 230.833 209.399 231.017 209.215L231.753 209.213C231.8 209.218 231.848 209.224 231.897 209.229C232.266 209.27 232.644 209.315 233.03 209.364C233.079 209.37 233.128 209.377 233.177 209.383C233.223 209.389 233.27 209.395 233.317 209.401C234.121 209.504 234.957 209.622 235.817 209.743C235.949 209.762 236.081 209.78 236.214 209.799C238.433 210.113 240.798 210.448 243.163 210.657C246.767 211.303 250.079 211.658 253.1 211.982C253.473 212.022 253.841 212.062 254.205 212.101C262.993 193.343 270.675 173.852 277.622 154.363C285.303 134.138 293.352 113.911 302.506 94.4172C306.167 86.3256 310.932 77.8641 316.799 69.0327C322.299 60.5695 327.8 52.4738 332.935 45.4811C336.47 40.9672 340.005 36.4534 344.036 32.1853C344.606 31.5809 345.187 30.9815 345.779 30.3877C344.993 30.0891 344.206 29.7964 343.418 29.5096C319.873 20.9392 295.497 17.6107 270.405 19.409C268.378 19.5543 266.347 19.733 264.311 19.9451C255.247 20.8892 246.092 22.4949 236.851 24.757C232.004 25.932 227.27 27.2542 222.648 28.723C190.795 38.8448 164.254 55.9241 142.779 79.7167C129.2 95.1793 121.513 112.833 119.35 132.311C116.819 151.79 125.319 168.305 144.116 181.856C160.326 190.27 177.619 189.863 195.627 180.637C213.636 171.41 227.223 159.254 236.757 144.903C244.091 133.864 249.95 121.358 254.333 107.387C257.093 98.823 257.667 90.41 256.145 82.1473C255.324 77.6895 253.893 73.2754 251.867 68.905C251.863 68.8952 251.858 68.8855 251.854 68.8757C251.793 68.744 251.731 68.6124 251.669 68.4809C251.548 68.2245 251.424 67.9683 251.299 67.7122C251.299 67.6771 251.299 67.6421 251.299 67.607C251.301 67.3971 251.314 67.1872 251.407 66.9771C251.461 66.8545 251.542 66.7318 251.665 66.6091L252.033 66.6082C252.217 66.6078 252.309 66.6076 252.355 66.6534C252.401 66.6993 252.401 66.7911 252.401 66.9748C252.431 67.0268 252.461 67.0788 252.491 67.1309C252.601 67.3231 252.709 67.5158 252.817 67.7087C252.836 67.7428 252.855 67.7769 252.874 67.8111C255.33 72.2387 257.168 76.8445 258.389 81.6339C262.072 96.0906 260.124 112.22 252.546 130.171C242.298 154.444 226.521 173.953 205.582 189.065C184.275 204.177 162.572 207.166 140.105 197.664C124.63 188.882 115.768 175.307 113.886 156.573C111.636 138.207 114.173 121.3 121.13 106.22C133.583 80.8399 153.038 60.5875 179.129 45.4639C192.799 37.5399 207.079 31.2284 221.968 26.5292C226.687 25.04 231.467 23.7127 236.308 22.5474C236.31 22.547 236.312 22.5466 236.313 22.5462C245.35 20.3713 254.6 18.7605 264.063 17.714C266.128 17.4858 268.18 17.2878 270.221 17.12C298.367 14.8065 324.286 18.2476 347.98 27.4433C356.243 19.1544 366.276 14.0285 378.078 12.4098C378.102 12.4065 378.126 12.4032 378.15 12.4C378.276 12.3829 378.401 12.3663 378.527 12.3501C378.636 12.336 378.745 12.3222 378.854 12.3088C379.222 12.3079 379.59 12.3071 379.959 12.6737C380.327 13.0403 380.328 13.4077 379.961 13.7759L378.86 14.8807ZM347.425 24.7715C321.998 15.1752 294.112 12.0809 263.81 15.4316C232.966 18.8424 204.346 28.191 177.974 43.4779C151.524 58.8099 131.734 79.3877 119.065 105.21L119.053 105.235L119.041 105.259C111.895 120.75 109.308 138.082 111.6 156.827C113.56 176.265 122.832 190.502 138.968 199.661L139.085 199.727L139.208 199.779C162.485 209.623 185.026 206.461 206.913 190.937L206.929 190.926C228.203 175.572 244.251 155.73 254.665 131.063C265.028 106.515 265.19 84.9313 254.643 66.2642C254.579 65.9591 254.418 65.4639 253.977 65.0259C253.383 64.4352 252.686 64.3515 252.494 64.3306C252.302 64.3098 252.1 64.3113 252.04 64.3118L252.027 64.3119L250.707 64.3149L250.035 64.989C248.99 66.0367 248.997 67.2332 248.999 67.6745C248.999 67.6897 248.999 67.704 248.999 67.7174L249.001 68.2456L249.233 68.7202C255.267 81.0532 256.34 93.6652 252.144 106.683L252.139 106.7C247.813 120.487 242.043 132.793 234.841 143.634C225.541 157.632 212.264 169.532 194.578 178.594C177.205 187.494 160.752 187.846 145.326 179.896C127.135 166.731 119.239 151.01 121.63 132.607L121.633 132.585L121.636 132.564C123.746 113.562 131.233 96.3519 144.498 81.2427C168.762 54.3641 199.579 36.1563 237.393 26.9885L237.398 26.9873C273.664 18.1104 308.518 19.4632 341.691 31.3281C337.864 35.4601 334.48 39.781 331.161 44.0186L331.102 44.0945L331.081 44.1231C325.913 51.1597 320.389 59.2906 314.876 67.7722C308.96 76.6789 304.136 85.2409 300.417 93.4569C291.228 113.026 283.157 133.311 275.472 153.549L275.463 153.571L275.455 153.593C268.709 172.521 261.275 191.426 252.815 209.642C249.943 209.333 246.884 208.991 243.569 208.397L243.468 208.379L243.366 208.369C241.404 208.196 239.429 207.932 237.502 207.662C237.183 207.617 236.864 207.572 236.547 207.527C234.968 207.304 233.419 207.084 232.001 206.93L231.875 206.917L230.059 206.921L229.387 207.595L229.37 207.611C229.303 207.678 229.143 207.838 229.011 208.003C228.877 208.171 228.44 208.737 228.442 209.588C228.443 210.205 228.675 210.672 228.854 210.945C228.949 211.23 229.122 211.579 229.443 211.899C229.947 212.4 230.525 212.536 230.806 212.579C236.317 215.115 242.345 217.092 248.654 218.52C239.002 238.062 226.319 257.617 210.273 276.864C193.197 297.273 173.968 313.275 152.226 324.556C130.3 335.744 107.343 338.662 83.2514 332.626C65.1396 327.341 52.052 316.445 43.8407 299.489C39.9802 289.34 39.6134 278.85 42.3993 268.675C45.1766 258.532 51.0893 250.16 59.8176 244.204L59.9968 244.082L60.1803 243.898C60.3418 243.736 60.6291 243.449 60.8677 243.129C61.104 242.813 61.5553 242.132 61.5532 241.199L61.551 240.248L60.9563 239.657C60.9512 239.647 60.9454 239.635 60.9389 239.622L60.925 239.595C60.8238 239.392 60.5906 238.926 60.1375 238.476C59.423 237.766 58.5057 237.532 57.7733 237.533C57.1075 237.535 56.2898 237.732 55.6123 238.304C40.7182 248.701 33.0879 263.737 33.1306 282.415L33.1307 282.437L33.1312 282.46C33.552 301.318 39.654 316.311 51.6831 326.725C63.4859 336.942 78.2702 343.311 95.199 345.901C112.092 348.486 128.251 347.326 144.386 342.42C161.928 337.528 177.957 329.662 192.47 319.579C206.922 309.541 218.828 299.1 228.156 288.246L228.175 288.223C245.249 267.816 259.091 245.283 270.058 220.983C312.845 220.973 346.806 209.001 371.65 184.823C396.639 160.505 408.676 133.062 407.852 102.571C407.041 72.5369 390.586 48.4915 358.853 30.4258C364.498 23.8163 371.274 19.3182 379.463 17.0967L380.056 16.9358L381.591 15.396C382.025 14.9611 382.538 14.2265 382.536 13.2189C382.533 12.2114 382.017 11.4793 381.581 11.0462C380.532 10.0033 379.334 10.0098 378.892 10.0122L378.849 10.0124L378.71 10.0127L378.572 10.0297C366.422 11.5284 356.021 16.5673 347.425 24.7715Z" fill="white" fill-opacity="0.5"/>
<path d="M20.6348 158.46H484.635V247.535H20.6348V158.46Z" fill="#1B1C1E"/>
<path d="M15.285 197.854H12.3157V188.016C12.3157 186.219 11.9895 184.871 11.3372 183.973C10.7073 183.074 9.79632 182.625 8.60411 182.625C7.8393 182.625 7.06324 182.827 6.27594 183.232C5.51113 183.636 4.8363 184.186 4.25144 184.882C3.66659 185.556 3.23919 186.342 2.96926 187.241V197.854H0V173.259H2.96926V184.04C3.66659 182.782 4.61135 181.794 5.80356 181.075C7.01826 180.334 8.32293 179.963 9.71758 179.963C10.7748 179.963 11.6521 180.154 12.3494 180.536C13.0693 180.896 13.6429 181.412 14.0703 182.086C14.4976 182.76 14.8013 183.546 14.9813 184.444C15.1837 185.32 15.285 186.286 15.285 187.342V197.854Z" fill="white"/>
<path d="M28.3377 197.854V180.267H31.3069V197.854H28.3377ZM28.3377 176.965V173.259H31.3069V176.965H28.3377Z" fill="white"/>
<path d="M50.5892 198.191C49.1271 198.191 47.7549 197.955 46.4727 197.483C45.1906 196.989 44.0883 196.259 43.1661 195.293L44.3133 193.204C45.3255 194.148 46.3378 194.822 47.35 195.226C48.3623 195.63 49.397 195.832 50.4542 195.832C51.6689 195.832 52.6587 195.608 53.4235 195.159C54.1883 194.687 54.5707 194.002 54.5707 193.103C54.5707 192.452 54.3683 191.969 53.9634 191.655C53.581 191.34 53.0299 191.082 52.31 190.88C51.5902 190.655 50.7354 190.408 49.7457 190.138C48.531 189.779 47.5075 189.397 46.6752 188.993C45.8429 188.589 45.2131 188.083 44.7857 187.477C44.3583 186.87 44.1446 186.107 44.1446 185.186C44.1446 184.063 44.437 183.119 45.0219 182.356C45.6067 181.569 46.4053 180.974 47.4175 180.57C48.4522 180.166 49.622 179.963 50.9266 179.963C52.2313 179.963 53.4123 180.166 54.4695 180.57C55.5267 180.974 56.4378 181.569 57.2026 182.356L55.8529 184.411C55.1556 183.692 54.3908 183.164 53.5585 182.827C52.7262 182.468 51.7927 182.288 50.7579 182.288C50.1506 182.288 49.5545 182.367 48.9696 182.524C48.3848 182.659 47.9011 182.917 47.5187 183.299C47.1363 183.658 46.9451 184.175 46.9451 184.849C46.9451 185.41 47.0913 185.86 47.3838 186.196C47.6987 186.511 48.1486 186.78 48.7334 187.005C49.3408 187.23 50.0718 187.477 50.9266 187.746C52.2538 188.128 53.401 188.51 54.3683 188.892C55.358 189.274 56.1228 189.768 56.6627 190.374C57.2026 190.981 57.4725 191.823 57.4725 192.901C57.4725 194.563 56.8427 195.866 55.583 196.81C54.3233 197.73 52.6587 198.191 50.5892 198.191Z" fill="white"/>
<path d="M78.5705 196.978C78.3231 197.09 77.9856 197.236 77.5583 197.416C77.1309 197.596 76.636 197.753 76.0736 197.888C75.5113 198.022 74.9152 198.09 74.2853 198.09C73.5655 198.09 72.9019 197.966 72.2946 197.719C71.6872 197.45 71.2036 197.045 70.8437 196.506C70.4838 195.945 70.3038 195.248 70.3038 194.417V182.591H67.9081V180.267H70.3038V174.404H73.2731V180.267H77.2208V182.591H73.2731V193.508C73.3181 194.137 73.5318 194.608 73.9142 194.923C74.2966 195.215 74.7465 195.361 75.2638 195.361C75.8487 195.361 76.3885 195.26 76.8834 195.058C77.3783 194.855 77.7045 194.709 77.8619 194.62L78.5705 196.978Z" fill="white"/>
<path d="M97.2204 198.191C95.8932 198.191 94.6898 197.955 93.61 197.483C92.5303 196.989 91.5968 196.327 90.8095 195.496C90.0222 194.642 89.4148 193.665 88.9874 192.564C88.56 191.464 88.3464 190.307 88.3464 189.094C88.3464 187.859 88.56 186.691 88.9874 185.59C89.4148 184.489 90.0222 183.524 90.8095 182.693C91.5968 181.839 92.5303 181.176 93.61 180.705C94.7123 180.211 95.9157 179.963 97.2204 179.963C98.5476 179.963 99.751 180.211 100.831 180.705C101.91 181.176 102.844 181.839 103.631 182.693C104.441 183.524 105.06 184.489 105.487 185.59C105.914 186.691 106.128 187.859 106.128 189.094C106.128 190.307 105.914 191.464 105.487 192.564C105.06 193.665 104.452 194.642 103.665 195.496C102.878 196.327 101.933 196.989 100.831 197.483C99.751 197.955 98.5476 198.191 97.2204 198.191ZM91.3831 189.128C91.3831 190.341 91.6418 191.441 92.1592 192.43C92.699 193.418 93.4076 194.204 94.2849 194.788C95.1622 195.35 96.1407 195.63 97.2204 195.63C98.3001 195.63 99.2786 195.338 100.156 194.754C101.056 194.17 101.764 193.384 102.282 192.396C102.822 191.385 103.091 190.273 103.091 189.06C103.091 187.847 102.822 186.747 102.282 185.758C101.764 184.77 101.056 183.984 100.156 183.4C99.2786 182.816 98.3001 182.524 97.2204 182.524C96.1407 182.524 95.1622 182.827 94.2849 183.434C93.4076 184.018 92.699 184.804 92.1592 185.792C91.6418 186.78 91.3831 187.892 91.3831 189.128Z" fill="white"/>
<path d="M127.474 182.861C125.99 182.883 124.674 183.265 123.526 184.007C122.402 184.725 121.603 185.725 121.131 187.005V197.854H118.162V180.267H120.928V184.343C121.536 183.131 122.334 182.153 123.324 181.412C124.336 180.649 125.393 180.222 126.496 180.132C126.721 180.132 126.912 180.132 127.069 180.132C127.227 180.132 127.362 180.143 127.474 180.166V182.861Z" fill="white"/>
<path d="M139.664 202.638C139.957 202.661 140.249 202.683 140.542 202.706C140.834 202.751 141.059 202.773 141.217 202.773C141.576 202.773 141.891 202.65 142.161 202.402C142.431 202.155 142.724 201.672 143.039 200.954C143.376 200.257 143.803 199.224 144.321 197.854L136.864 180.267H140.002L145.94 194.855L151.305 180.267H154.241L145.67 202.47C145.468 202.986 145.164 203.469 144.759 203.919C144.377 204.39 143.882 204.761 143.275 205.03C142.667 205.3 141.936 205.435 141.082 205.435C140.879 205.435 140.665 205.424 140.44 205.401C140.238 205.379 139.979 205.334 139.664 205.266V202.638Z" fill="white"/>
<path d="M189.417 198.191C188.09 198.191 186.886 197.955 185.806 197.483C184.727 196.989 183.793 196.327 183.006 195.496C182.218 194.642 181.611 193.665 181.184 192.564C180.756 191.464 180.543 190.307 180.543 189.094C180.543 187.859 180.756 186.691 181.184 185.59C181.611 184.489 182.218 183.524 183.006 182.693C183.793 181.839 184.727 181.176 185.806 180.705C186.909 180.211 188.112 179.963 189.417 179.963C190.744 179.963 191.947 180.211 193.027 180.705C194.107 181.176 195.04 181.839 195.828 182.693C196.637 183.524 197.256 184.489 197.683 185.59C198.111 186.691 198.324 187.859 198.324 189.094C198.324 190.307 198.111 191.464 197.683 192.564C197.256 193.665 196.649 194.642 195.861 195.496C195.074 196.327 194.129 196.989 193.027 197.483C191.947 197.955 190.744 198.191 189.417 198.191ZM183.579 189.128C183.579 190.341 183.838 191.441 184.355 192.43C184.895 193.418 185.604 194.204 186.481 194.788C187.358 195.35 188.337 195.63 189.417 195.63C190.496 195.63 191.475 195.338 192.352 194.754C193.252 194.17 193.961 193.384 194.478 192.396C195.018 191.385 195.288 190.273 195.288 189.06C195.288 187.847 195.018 186.747 194.478 185.758C193.961 184.77 193.252 183.984 192.352 183.4C191.475 182.816 190.496 182.524 189.417 182.524C188.337 182.524 187.358 182.827 186.481 183.434C185.604 184.018 184.895 184.804 184.355 185.792C183.838 186.78 183.579 187.892 183.579 189.128Z" fill="white"/>
<path d="M211.006 197.854V182.591H208.61V180.267H211.006V179.896C211.006 178.459 211.22 177.223 211.647 176.19C212.097 175.134 212.727 174.326 213.537 173.764C214.346 173.203 215.303 172.922 216.405 172.922C217.102 172.922 217.788 173.023 218.463 173.225C219.138 173.405 219.745 173.663 220.285 174L219.543 176.19C219.228 175.965 218.834 175.786 218.362 175.651C217.912 175.516 217.462 175.449 217.012 175.449C216.045 175.449 215.291 175.831 214.751 176.594C214.234 177.335 213.975 178.402 213.975 179.795V180.267H218.665V182.591H213.975V197.854H211.006Z" fill="white"/>
<path d="M254.069 198.191C252.741 198.191 251.527 197.955 250.424 197.483C249.345 196.989 248.4 196.315 247.59 195.462C246.803 194.608 246.184 193.631 245.734 192.531C245.307 191.43 245.093 190.262 245.093 189.027C245.093 187.364 245.464 185.848 246.207 184.478C246.949 183.108 247.995 182.019 249.345 181.21C250.694 180.379 252.258 179.963 254.035 179.963C255.767 179.963 257.274 180.357 258.556 181.143C259.861 181.906 260.828 182.94 261.458 184.242L258.556 185.152C258.106 184.321 257.476 183.681 256.667 183.232C255.857 182.76 254.957 182.524 253.967 182.524C252.888 182.524 251.898 182.805 250.998 183.366C250.121 183.928 249.423 184.703 248.906 185.691C248.389 186.657 248.13 187.769 248.13 189.027C248.13 190.262 248.389 191.385 248.906 192.396C249.446 193.384 250.155 194.17 251.032 194.754C251.932 195.338 252.921 195.63 254.001 195.63C254.698 195.63 255.362 195.507 255.992 195.26C256.644 195.013 257.207 194.687 257.679 194.283C258.174 193.856 258.511 193.395 258.691 192.901L261.593 193.777C261.233 194.631 260.682 195.394 259.94 196.068C259.22 196.72 258.354 197.236 257.341 197.618C256.352 198 255.261 198.191 254.069 198.191Z" fill="white"/>
<path d="M282.705 182.861C281.221 182.883 279.905 183.265 278.758 184.007C277.633 184.725 276.834 185.725 276.362 187.005V197.854H273.393V180.267H276.16V184.343C276.767 183.131 277.565 182.153 278.555 181.412C279.567 180.649 280.625 180.222 281.727 180.132C281.952 180.132 282.143 180.132 282.301 180.132C282.458 180.132 282.593 180.143 282.705 180.166V182.861Z" fill="white"/>
<path d="M301.452 198.191C300.125 198.191 298.91 197.955 297.808 197.483C296.728 196.989 295.783 196.327 294.973 195.496C294.186 194.642 293.568 193.665 293.118 192.564C292.69 191.464 292.477 190.296 292.477 189.06C292.477 187.398 292.859 185.882 293.624 184.512C294.389 183.142 295.446 182.041 296.795 181.21C298.168 180.379 299.731 179.963 301.486 179.963C303.263 179.963 304.803 180.39 306.108 181.244C307.435 182.075 308.459 183.175 309.179 184.546C309.921 185.893 310.292 187.353 310.292 188.926C310.292 189.15 310.281 189.375 310.258 189.599C310.258 189.802 310.247 189.959 310.225 190.071H295.614C295.704 191.217 296.019 192.239 296.559 193.137C297.122 194.013 297.841 194.709 298.719 195.226C299.596 195.72 300.541 195.967 301.553 195.967C302.633 195.967 303.645 195.698 304.59 195.159C305.557 194.62 306.221 193.912 306.581 193.036L309.145 193.744C308.762 194.597 308.189 195.361 307.424 196.035C306.682 196.708 305.793 197.236 304.758 197.618C303.746 198 302.644 198.191 301.452 198.191ZM295.513 188.016H307.525C307.435 186.87 307.109 185.86 306.547 184.984C305.984 184.108 305.265 183.423 304.387 182.928C303.51 182.434 302.543 182.187 301.486 182.187C300.451 182.187 299.495 182.434 298.617 182.928C297.74 183.423 297.02 184.108 296.458 184.984C295.918 185.86 295.603 186.87 295.513 188.016Z" fill="white"/>
<path d="M320.645 192.766C320.645 191.643 320.96 190.678 321.589 189.869C322.242 189.038 323.13 188.398 324.255 187.948C325.38 187.499 326.684 187.275 328.169 187.275C328.956 187.275 329.789 187.342 330.666 187.477C331.543 187.589 332.319 187.769 332.994 188.016V186.736C332.994 185.388 332.589 184.332 331.779 183.569C330.97 182.782 329.822 182.389 328.338 182.389C327.371 182.389 326.437 182.569 325.537 182.928C324.66 183.265 323.726 183.759 322.737 184.411L321.657 182.322C322.804 181.536 323.951 180.952 325.099 180.57C326.246 180.166 327.438 179.963 328.675 179.963C330.925 179.963 332.702 180.592 334.006 181.85C335.311 183.086 335.963 184.815 335.963 187.039V194.485C335.963 194.844 336.031 195.114 336.166 195.293C336.323 195.451 336.571 195.54 336.908 195.563V197.854C336.616 197.899 336.357 197.933 336.132 197.955C335.93 197.978 335.761 197.989 335.626 197.989C334.929 197.989 334.4 197.798 334.04 197.416C333.703 197.034 333.511 196.63 333.466 196.203L333.399 195.091C332.634 196.08 331.633 196.843 330.396 197.382C329.159 197.921 327.933 198.191 326.718 198.191C325.548 198.191 324.502 197.955 323.58 197.483C322.658 196.989 321.938 196.338 321.421 195.529C320.903 194.698 320.645 193.777 320.645 192.766ZM332.117 194.013C332.387 193.699 332.6 193.384 332.758 193.07C332.915 192.733 332.994 192.452 332.994 192.227V190.037C332.297 189.768 331.566 189.566 330.801 189.431C330.036 189.274 329.283 189.195 328.54 189.195C327.033 189.195 325.807 189.498 324.862 190.105C323.94 190.689 323.479 191.497 323.479 192.531C323.479 193.092 323.625 193.642 323.918 194.182C324.233 194.698 324.682 195.125 325.267 195.462C325.875 195.799 326.617 195.967 327.494 195.967C328.417 195.967 329.294 195.788 330.126 195.428C330.958 195.046 331.622 194.575 332.117 194.013Z" fill="white"/>
<path d="M358.125 196.978C357.878 197.09 357.54 197.236 357.113 197.416C356.685 197.596 356.191 197.753 355.628 197.888C355.066 198.022 354.47 198.09 353.84 198.09C353.12 198.09 352.456 197.966 351.849 197.719C351.242 197.45 350.758 197.045 350.398 196.506C350.038 195.945 349.858 195.248 349.858 194.417V182.591H347.463V180.267H349.858V174.404H352.828V180.267H356.775V182.591H352.828V193.508C352.873 194.137 353.086 194.608 353.469 194.923C353.851 195.215 354.301 195.361 354.818 195.361C355.403 195.361 355.943 195.26 356.438 195.058C356.933 194.855 357.259 194.709 357.416 194.62L358.125 196.978Z" fill="white"/>
<path d="M369.312 197.854V180.267H372.282V197.854H369.312ZM369.312 176.965V173.259H372.282V176.965H369.312Z" fill="white"/>
<path d="M393.217 198.191C391.89 198.191 390.687 197.955 389.607 197.483C388.527 196.989 387.594 196.327 386.806 195.496C386.019 194.642 385.412 193.665 384.984 192.564C384.557 191.464 384.343 190.307 384.343 189.094C384.343 187.859 384.557 186.691 384.984 185.59C385.412 184.489 386.019 183.524 386.806 182.693C387.594 181.839 388.527 181.176 389.607 180.705C390.709 180.211 391.913 179.963 393.217 179.963C394.545 179.963 395.748 180.211 396.828 180.705C397.907 181.176 398.841 181.839 399.628 182.693C400.438 183.524 401.057 184.489 401.484 185.59C401.911 186.691 402.125 187.859 402.125 189.094C402.125 190.307 401.911 191.464 401.484 192.564C401.057 193.665 400.449 194.642 399.662 195.496C398.875 196.327 397.93 196.989 396.828 197.483C395.748 197.955 394.545 198.191 393.217 198.191ZM387.38 189.128C387.38 190.341 387.639 191.441 388.156 192.43C388.696 193.418 389.405 194.204 390.282 194.788C391.159 195.35 392.138 195.63 393.217 195.63C394.297 195.63 395.276 195.338 396.153 194.754C397.053 194.17 397.761 193.384 398.279 192.396C398.818 191.385 399.088 190.273 399.088 189.06C399.088 187.847 398.818 186.747 398.279 185.758C397.761 184.77 397.053 183.984 396.153 183.4C395.276 182.816 394.297 182.524 393.217 182.524C392.138 182.524 391.159 182.827 390.282 183.434C389.405 184.018 388.696 184.804 388.156 185.792C387.639 186.78 387.38 187.892 387.38 189.128Z" fill="white"/>
<path d="M429.443 197.854H426.474V188.016C426.474 186.152 426.182 184.793 425.597 183.939C425.035 183.063 424.169 182.625 422.999 182.625C422.189 182.625 421.379 182.827 420.569 183.232C419.782 183.636 419.074 184.186 418.444 184.882C417.836 185.556 417.398 186.342 417.128 187.241V197.854H414.159V180.267H416.858V184.04C417.33 183.209 417.938 182.49 418.68 181.884C419.422 181.277 420.266 180.806 421.211 180.469C422.155 180.132 423.145 179.963 424.18 179.963C425.192 179.963 426.036 180.154 426.71 180.536C427.408 180.896 427.948 181.412 428.33 182.086C428.735 182.737 429.016 183.512 429.174 184.411C429.354 185.309 429.443 186.286 429.443 187.342V197.854Z" fill="white"/>
</svg>
