<svg width="1063" height="151" viewBox="0 0 1063 151" fill="none" xmlns="http://www.w3.org/2000/svg">
<path d="M23.04 55.32C14.72 64.44 8.64 75.16 4.96 87.48C0.96 102.2 1.6 115 6.88 125.88C11.68 134.68 19.04 141.08 28.8 145.24C38.72 149.24 49.76 150.36 62.24 148.28C78.88 144.28 93.28 137.24 105.44 127C117.44 116.76 127.68 104.6 136.16 90.52C144.64 76.44 151.84 61.88 157.92 46.68C155.52 58.52 154.56 70.36 155.04 82.2C155.04 89.4 154.88 96.76 154.24 104.12C153.76 111.48 152 118.84 149.28 126.2C147.52 130.36 145.44 134.36 142.88 138.04C142.72 138.36 142.72 138.52 142.88 138.84C142.88 139.16 143.2 139.32 143.52 139.32C143.68 139.48 144 139.32 144.48 139.16C147.2 136.12 150.4 131 154.08 123.8C157.6 116.44 161.44 108.28 165.6 99C169.92 88.92 174.4 79.16 179.2 69.4C184 59.64 188.8 51.48 193.6 44.76C202.4 32.92 213.44 23 226.72 15.16C240 7.16 254.24 4.12 269.6 6.03999C276.96 7 283.04 10.04 288.32 15.32C290.4 17.88 291.68 20.6 292.32 23.8C292.96 27 292.48 30.04 291.04 33.24C290.56 34.52 289.6 35.8 288.48 37.08C288.16 37.24 288.16 37.56 288.32 37.88C288.48 38.2 288.64 38.36 288.8 38.36C289.12 38.36 289.28 38.36 289.44 38.04C296 31.48 297.28 24.6 293.44 17.4C289.44 10.36 282.24 5.56 271.52 2.83999C260.64 0.119991 248.16 1.71999 233.76 7.8C220.16 14.2 208.8 22.68 199.84 32.92C190.72 43.16 183.04 54.52 176.64 67.16C170.24 79.64 164.32 92.6 158.88 105.88L157.76 108.6C158.72 103.96 159.04 99.16 159.2 94.52C159.52 88.76 159.52 83 159.36 77.08C158.88 64.92 159.68 52.76 162.24 40.92C163.36 36.76 164.8 32.6 166.88 28.76C168 26.52 169.6 24.12 171.68 21.4C173.92 18.68 176 16.6 178.08 15C178.24 14.84 178.24 14.84 178.24 14.68C178.24 14.68 178.24 14.68 178.24 14.52C178.08 14.52 178.08 14.52 177.92 14.52C170.56 18.52 164.8 24.12 160.64 31C156.16 39 152 47.16 148.32 55.8C144.48 64.44 140.16 72.92 135.36 81.24C128.32 93.72 119.36 105.72 108.48 117.08C97.6 128.28 85.28 136.6 72 141.56C58.4 146.04 45.92 146.68 34.72 143.48C23.52 140.44 15.2 134.2 9.76 125.24C4.48 116.44 3.68 104.76 7.04 90.52C10.56 77.4 16.96 65.88 26.08 55.8C35.36 45.72 44.96 39.48 55.36 37.08C59.84 36.12 64.16 36.28 68.48 37.56C72.8 38.84 76.48 41.56 79.36 45.56C82.72 50.36 84 56.12 83.36 62.84C82.88 69.56 81.76 75.48 80 80.92C78.24 87.48 75.2 93.88 71.2 100.44C67.2 107 62.4 112.28 56.48 116.28C50.72 120.28 44 122.04 36.48 121.08C26.88 119.16 21.76 113.08 20.96 103C20.8 97.72 22.08 92.76 25.12 88.28L24.96 88.12C24.96 87.96 24.8 87.96 24.8 87.96C24.8 87.96 24.64 87.96 24.48 87.96C21.28 91.8 19.84 96.6 19.84 101.88C20.16 109.4 22.88 115.16 28 119C33.12 122.84 39.36 123.96 46.88 122.36C54.24 120.6 60.48 117.08 65.92 111.8C71.2 106.52 75.68 100.6 79.2 94.2C82.08 89.24 84.64 83 86.56 75.64C88.48 68.12 88.96 60.92 87.84 54.04C86.72 47 83.2 41.88 77.12 38.36C67.68 33.88 58.24 33.56 48.8 37.24C39.52 41.08 30.88 47.16 23.04 55.32ZM224.176 30.36H260.016C263.056 30.36 265.616 31.32 267.696 33.4C269.776 35.48 271.376 38.04 272.816 40.76C274.096 43.64 275.056 46.36 275.856 48.92L276.816 48.76C275.856 44.92 274.736 40.76 273.616 36.12C272.496 31.48 271.696 27.8 270.896 24.92C268.176 25.56 265.296 25.88 262.256 25.72H203.056V26.84C205.936 26.84 208.496 27.48 210.576 28.76C212.656 30.2 213.616 32.44 213.616 35.64V125.4C213.616 128.6 212.656 130.84 210.576 132.12C208.496 133.56 205.936 134.2 203.056 134.36V135.32H264.656C267.536 135.32 270.256 135.64 272.656 136.12C273.616 132.44 274.576 128.92 275.376 125.4L279.216 110.04L278.256 109.88C276.496 116.44 273.936 121.4 270.256 125.08C266.576 128.76 261.296 130.68 254.256 130.68H224.176V82.84H247.696C250.096 82.84 251.856 83.8 252.976 85.56C254.096 87.32 254.896 89.4 255.376 91.8C255.856 94.2 256.016 96.28 256.016 98.04H256.976V63H256.016C256.016 64.92 255.856 67 255.376 69.24C254.896 71.64 254.096 73.72 252.976 75.48C251.696 77.24 249.776 78.2 247.376 78.2H224.176V30.36ZM299.194 35.48L339.674 135.48H344.794L348.154 126.52L363.194 87.48L382.554 135.48H387.674L425.914 35.48C426.714 33.4 428.634 31.48 431.514 29.72C434.234 28.12 437.594 27.16 441.274 26.84V25.88H409.114V26.84C410.874 26.84 412.634 27.16 414.714 27.64C416.634 28.28 418.234 29.24 419.674 30.36C420.954 31.64 421.434 33.24 420.954 35.16L388.474 120.28L368.954 72.12L383.034 35.48C383.834 33.4 385.754 31.48 388.634 29.72C391.354 28.12 394.714 27.16 398.394 26.84V25.88H371.994V26.84C377.114 26.68 379.194 29.56 378.074 35.16L366.394 65.72L354.074 35.16C353.434 32.28 353.914 30.2 355.354 28.76C356.794 27.48 358.874 26.84 361.274 26.84V25.88H331.674V26.84C336.794 27.16 340.314 30.04 342.074 35.48L360.474 81.08L345.594 120.28L311.194 35.16C310.714 33.24 311.194 31.64 312.474 30.36C313.754 29.24 315.354 28.28 317.434 27.64C319.514 27.16 321.274 26.84 322.874 26.84V25.88H283.994V26.84C286.874 27 289.754 27.8 292.794 29.24C295.834 30.68 297.914 32.76 299.194 35.48ZM508.707 30.36H518.628C530.628 30.36 539.428 32.92 544.868 38.04C550.308 43.16 552.868 50.04 552.708 58.52C552.388 69.72 549.028 77.56 542.628 82.2C536.228 86.84 527.588 88.92 516.708 88.6H508.707V30.36ZM498.148 35.64V125.4C498.148 128.6 497.188 130.84 495.108 132.12C493.028 133.56 490.467 134.2 487.588 134.36V135.32H519.268V134.36C516.548 134.2 513.988 133.56 511.908 132.28C509.828 131 508.707 128.76 508.707 125.72V93.24H516.708C531.908 93.4 543.428 90.2 551.268 83.64C559.108 77.24 563.108 68.28 563.268 56.92C563.428 47.8 559.428 40.12 551.588 34.2C543.748 28.28 531.748 25.4 515.908 25.72H487.588V26.84C490.467 26.84 493.028 27.48 495.108 28.76C497.188 30.2 498.148 32.44 498.148 35.64ZM596.258 39.32L616.898 92.28H576.098L596.258 39.32ZM574.818 135.32L574.658 134.36C571.298 134.2 568.418 133.4 565.858 131.64C563.298 130.04 562.658 127.32 563.938 123.64L574.338 96.92H618.818L630.178 125.24C630.818 127.32 630.498 129.08 629.378 130.36C628.098 131.8 626.498 132.76 624.418 133.24C622.338 133.88 620.578 134.2 618.818 134.36V135.32H656.578L656.738 134.36C653.378 134.2 650.338 133.24 647.618 131.48C644.898 129.88 642.818 127.64 641.538 124.76L602.178 25.72H596.898C592.738 36.6 588.578 47.48 584.258 58.36C575.618 80.6 566.978 102.68 558.178 124.92C557.058 127.8 555.138 130.04 552.418 131.64C549.698 133.24 546.658 134.2 543.457 134.36L543.617 135.32H574.818ZM679.801 30.36H691.481C702.521 30.84 710.681 33.24 715.801 37.88C720.921 42.52 723.321 48.92 723.001 57.08C722.841 65.08 720.441 71.64 715.641 76.76C710.841 82.04 702.841 84.76 691.481 85.08H679.801V30.36ZM669.401 35.64V125.4C669.401 128.6 668.281 130.84 666.201 132.12C664.121 133.56 661.561 134.2 658.681 134.36V135.32H690.361V134.36C687.641 134.2 685.081 133.56 683.001 132.12C680.921 130.84 679.801 128.6 679.801 125.56V89.72H689.881C694.041 89.72 697.561 90.84 700.601 93.24C703.481 95.64 706.041 98.68 708.281 102.36C710.361 106.04 712.441 110.04 714.361 114.04C715.801 117.08 717.401 119.96 718.841 122.68C721.881 127.96 725.081 131.64 728.441 133.56C731.801 135.48 736.121 136.28 741.241 136.12C744.441 136.12 747.961 135.8 751.801 135.32V134.36C748.281 134.36 744.921 133.4 741.721 131.64C738.521 129.88 735.801 127.64 733.561 124.92C729.881 120.28 726.841 115.16 724.281 109.72C722.201 105.4 719.961 101.56 717.561 98.04C715.161 94.52 712.281 91.96 708.761 90.36C706.041 88.92 703.001 88.12 699.321 87.8C710.841 86.68 719.321 83.32 724.921 77.4C730.521 71.64 733.401 64.92 733.561 57.4C733.721 51.48 732.281 46.2 729.081 41.4C725.881 36.76 721.081 32.92 714.681 30.04C708.121 27.16 700.121 25.72 690.681 25.72H658.681V26.84C661.561 26.84 664.121 27.48 666.201 28.76C668.281 30.2 669.401 32.44 669.401 35.64ZM755.088 134.36V135.32H786.768V134.36C784.048 134.2 781.488 133.56 779.408 132.28C777.328 131 776.207 128.76 776.207 125.72V83.96H796.368C798.768 83.96 800.528 84.92 801.808 86.68C802.928 88.44 803.728 90.52 804.208 92.92C804.688 95.32 804.848 97.4 804.848 99.16H805.808V64.12H804.848C804.848 66.04 804.688 68.12 804.208 70.36C803.728 72.76 802.768 74.84 801.648 76.6C800.528 78.36 798.608 79.32 796.208 79.32H776.207V30.52H806.128C813.168 30.52 818.448 32.28 822.128 35.96C825.808 39.64 828.368 44.76 830.128 51.16L831.088 51L824.688 24.92C821.808 25.56 818.768 25.88 815.568 25.88C801.648 25.72 787.888 25.72 773.968 25.88H755.088V26.84C757.967 27 760.528 27.64 762.608 28.92C764.688 30.36 765.648 32.6 765.648 35.64V125.4C765.648 128.6 764.688 130.84 762.608 132.12C760.528 133.56 757.967 134.2 755.088 134.36ZM846.429 35.8V103C847.229 115.8 850.909 124.6 857.629 129.24C861.789 132.28 866.429 134.36 871.389 135.32C876.349 136.28 881.309 136.76 886.269 136.76C907.229 135.96 918.109 125.24 919.229 104.28V35.8C919.229 32.6 920.349 30.36 922.429 28.92C924.509 27.64 926.909 27 929.789 26.84V25.88H904.189V26.84C907.069 27 909.629 27.64 911.709 28.92C913.789 30.36 914.749 32.6 914.749 35.8V97.88C914.749 108.6 912.349 116.92 907.709 122.84C903.069 128.92 896.509 131.96 888.349 132.12C877.309 132.12 869.309 129.24 864.509 123.48C859.549 117.88 857.149 109.56 856.989 98.84V35.48C856.989 32.6 858.109 30.36 860.349 28.92C862.429 27.48 864.829 26.84 867.549 26.84V25.88H835.869V26.84C838.749 27 841.309 27.64 843.389 28.92C845.469 30.36 846.429 32.6 846.429 35.8ZM1058.46 26.84V25.88H1036.86L1000.54 121.08L960.859 25.88H939.099V26.84C941.499 27 943.899 27.64 946.299 28.76C948.539 30.04 949.659 32.12 949.659 34.84L945.979 126.52C945.499 129.24 944.219 131.32 942.139 132.44C939.899 133.56 937.339 134.2 934.619 134.36V135.32H961.019V134.36C958.619 134.2 956.379 133.56 954.139 132.28C951.739 131.16 950.619 129.24 950.619 126.52L954.139 37.08L995.099 135.32H1000.06L1037.5 37.08C1037.98 47.48 1038.46 59.64 1038.94 73.24C1039.42 86.84 1039.9 99 1040.38 109.4C1040.86 119.8 1041.02 125.56 1041.02 126.52C1041.02 129.24 1039.9 131.16 1037.66 132.28C1035.26 133.56 1032.86 134.2 1030.46 134.36V135.32H1062.94V134.36C1060.22 134.2 1057.66 133.56 1055.42 132.44C1053.18 131.32 1051.9 129.24 1051.58 126.52C1051.1 116.12 1050.62 103.96 1050.14 90.2C1049.66 76.44 1049.18 64.12 1048.7 53.24C1048.22 42.52 1047.9 36.28 1047.9 34.84C1047.9 32.12 1049.02 30.04 1051.42 28.76C1053.66 27.64 1056.06 27 1058.46 26.84Z" fill="#F5F5F5"/>
</svg>
