<svg width="268" height="59" viewBox="0 0 268 59" fill="none" xmlns="http://www.w3.org/2000/svg">
<path d="M49.5919 15.0651L50.2385 13.7719C51.6609 10.0865 53.536 6.72433 55.9283 3.68545C60.1956 5.81913 62.5233 9.3106 62.8466 14.0306C62.7819 19.979 60.7776 24.8929 56.7042 28.837C52.6308 32.7811 47.5229 34.9148 41.4451 35.1734C42.9322 31.8759 44.29 28.5784 45.5185 25.2162C46.8117 21.7894 48.1695 18.3626 49.5919 15.0651ZM19.0092 57.6094C22.048 56.7688 24.8283 55.411 27.3499 53.6653C29.8715 51.9196 31.9405 50.1092 33.557 48.2341C36.5959 44.6133 39.0528 40.6046 40.9925 36.2726C48.5574 36.3372 54.5058 34.2682 58.8379 30.0655C63.1699 25.8628 65.2389 21.1428 65.1096 15.9056C64.9803 10.6684 62.0707 6.4657 56.3162 3.29751C57.4154 1.87505 58.7732 0.905198 60.4543 0.452601C60.5189 0.387941 60.5836 0.323284 60.6483 0.258628C60.7129 0.193972 60.7129 0.129316 60.6483 0.0646563C60.5836 1.63913e-07 60.5189 0 60.4543 0C58.3206 0.258628 56.5102 1.16383 55.0231 2.65094C50.5618 0.905198 45.6478 0.323285 40.2813 0.905198C34.9148 1.48711 29.9362 3.10354 25.3455 5.75447C20.7549 8.40541 17.3281 11.9615 15.1297 16.4229C13.9012 19.0738 13.4487 22.048 13.8366 25.2809C14.1599 28.5784 15.7116 30.9707 18.4272 32.5225C22.3713 34.2035 26.1861 33.6863 29.9362 31.0354C33.6216 28.3844 36.4019 24.9576 38.2123 20.6902C40.0227 16.4229 40.0227 12.7374 38.2123 9.56924C38.2123 9.50458 38.2123 9.50458 38.1476 9.50458C38.083 9.50458 38.083 9.50458 38.083 9.50458C38.0183 9.56923 38.0183 9.63389 38.0183 9.69855C39.1175 11.9615 39.3114 14.2892 38.5356 16.6815C37.7597 19.1385 36.7252 21.3368 35.432 23.2765C33.7509 25.7981 31.3586 27.9318 28.1904 29.5482C25.0223 31.1647 21.9834 31.2293 19.1385 29.7422C15.841 27.3499 14.3539 24.4403 14.8064 21.0135C15.1944 17.5867 16.5522 14.4832 18.9445 11.7676C23.2765 6.98296 28.7724 3.75011 35.4967 2.13368C42.1564 0.517257 48.5574 0.840542 54.6352 3.16819C53.7946 4.00874 53.0834 4.91393 52.3722 5.81913C51.467 7.04761 50.4971 8.47007 49.5272 9.95718C48.4927 11.5089 47.6522 12.9961 47.0056 14.4185C45.3892 17.8453 43.9667 21.4015 42.609 24.9576C41.3805 28.3844 40.0227 31.8112 38.4709 35.1087C37.889 35.0441 37.2424 34.9794 36.5312 34.8501C35.82 34.7855 35.1087 34.6561 34.5268 34.5915C34.4622 34.5915 34.4622 34.5915 34.3975 34.5915C34.3329 34.6561 34.3329 34.6561 34.3975 34.7208C34.3975 34.7855 34.3975 34.7855 34.4622 34.7855C35.5613 35.3027 36.7898 35.6907 38.083 35.9493C36.3372 39.5701 34.0096 43.1909 31.0353 46.747C27.9965 50.3678 24.5697 53.2127 20.6902 55.2171C16.7462 57.2214 12.6081 57.7387 8.27609 56.6395C4.97859 55.6697 2.58628 53.6653 1.09917 50.5618C0.387942 48.6867 0.323284 46.747 0.84054 44.872C1.3578 42.9969 2.45696 41.4451 4.07339 40.346C4.13805 40.2813 4.2027 40.2166 4.2027 40.152C4.13805 40.0873 4.13805 40.0227 4.07339 39.958C4.00873 39.8934 3.87942 39.8934 3.81476 39.958C1.29314 41.7038 0 44.2254 0 47.3936C0.0646566 50.6264 1.09917 53.148 3.10353 54.8938C5.1079 56.6395 7.62952 57.7387 10.5391 58.1913C13.4487 58.6439 16.2289 58.4499 19.0092 57.6094Z" fill="#F5F5F5"/>
<path d="M72.2916 13.19L80.6323 34.5915H64.1448L72.2916 13.19ZM63.6275 51.9842L63.5629 51.5963C62.2051 51.5316 61.0412 51.2083 60.0067 50.4971C58.9722 49.8505 58.7136 48.7514 59.2308 47.2643L63.4336 36.4665H81.4082L85.9988 47.9108C86.2575 48.7514 86.1281 49.4626 85.6756 49.9799C85.1583 50.5618 84.5117 50.9497 83.6712 51.1437C82.8306 51.4023 82.1194 51.5316 81.4082 51.5963V51.9842H96.6672L96.7319 51.5963C95.3741 51.5316 94.1456 51.1437 93.0464 50.4325C91.9473 49.7859 91.1067 48.8807 90.5895 47.7169L74.6839 7.69418H72.5502C70.8691 12.0909 69.188 16.4875 67.4423 20.8842C63.9508 29.8715 60.4593 38.7942 56.9032 47.7815C56.4506 48.9453 55.6747 49.8505 54.5755 50.4971C53.4764 51.1437 52.2479 51.5316 50.9548 51.5963L51.0194 51.9842H63.6275Z" fill="#F5F5F5"/>
<path d="M105.406 9.56924H110.125C114.587 9.76321 117.884 10.7331 119.953 12.6081C122.022 14.4832 122.992 17.0694 122.863 20.367C122.798 23.5998 121.828 26.2507 119.889 28.3198C117.949 30.4534 114.716 31.5526 110.125 31.6819H105.406V9.56924ZM101.203 11.7029V47.9755C101.203 49.2686 100.75 50.1738 99.9097 50.6911C99.0691 51.273 98.0346 51.5316 96.8708 51.5963V51.9842H109.673V51.5963C108.574 51.5316 107.539 51.273 106.699 50.6911C105.858 50.1738 105.406 49.2686 105.406 48.0401V33.557H109.479C111.16 33.557 112.582 34.0096 113.811 34.9794C114.975 35.9493 116.009 37.1778 116.914 38.6649C117.755 40.152 118.596 41.7684 119.371 43.3848C119.953 44.6133 120.6 45.7771 121.182 46.8763C122.41 49.01 123.703 50.4971 125.061 51.273C126.419 52.0489 128.165 52.3722 130.234 52.3075C131.527 52.3075 132.949 52.1782 134.501 51.9842V51.5963C133.079 51.5963 131.721 51.2083 130.428 50.4971C129.135 49.7859 128.035 48.8807 127.13 47.7815C125.643 45.9065 124.415 43.8374 123.38 41.6391C122.54 39.8934 121.634 38.3416 120.665 36.9191C119.695 35.4967 118.531 34.4622 117.108 33.8156C116.009 33.2337 114.781 32.9104 113.294 32.7811C117.949 32.3285 121.376 30.9707 123.639 28.5784C125.902 26.2507 127.066 23.5351 127.13 20.4963C127.195 18.104 126.613 15.9703 125.32 14.0306C124.027 12.1555 122.087 10.6037 119.501 9.43992C116.85 8.2761 113.617 7.69418 109.802 7.69418H96.8708V8.14678C98.0346 8.14678 99.0691 8.40541 99.9097 8.92266C100.75 9.50458 101.203 10.4098 101.203 11.7029Z" fill="#F5F5F5"/>
<path d="M135.183 51.5963V51.9842H147.985V51.5963C146.886 51.5316 145.851 51.273 145.01 50.7557C144.17 50.2385 143.717 49.3333 143.717 48.1048V31.2293H151.864C152.834 31.2293 153.545 31.6173 154.062 32.3285C154.515 33.0397 154.838 33.8803 155.032 34.8501C155.226 35.82 155.291 36.6605 155.291 37.3717H155.679V23.2119H155.291C155.291 23.9877 155.226 24.8283 155.032 25.7335C154.838 26.7033 154.45 27.5439 153.998 28.2551C153.545 28.9663 152.769 29.3543 151.799 29.3543H143.717V9.63389H155.808C158.653 9.63389 160.787 10.3451 162.274 11.8322C163.761 13.3193 164.795 15.3884 165.507 17.9746L165.895 17.91L163.308 7.3709C162.145 7.62953 160.916 7.75884 159.623 7.75884C153.998 7.69418 148.437 7.69418 142.812 7.75884H135.183V8.14678C136.346 8.21144 137.381 8.47007 138.221 8.98732C139.062 9.56923 139.45 10.4744 139.45 11.7029V47.9755C139.45 49.2686 139.062 50.1738 138.221 50.6911C137.381 51.273 136.346 51.5316 135.183 51.5963Z" fill="#F5F5F5"/>
<path d="M265.672 8.14678V7.75884H256.943L242.266 46.2297L226.231 7.75884H217.438V8.14678C218.408 8.21144 219.378 8.47007 220.347 8.92266C221.253 9.43992 221.705 10.2805 221.705 11.3796L220.218 48.4281C220.024 49.5273 219.507 50.3678 218.666 50.8204C217.761 51.273 216.727 51.5316 215.627 51.5963V51.9842H226.296V51.5963C225.326 51.5316 224.421 51.273 223.516 50.7557C222.546 50.3031 222.093 49.5273 222.093 48.4281L223.516 12.2848L240.068 51.9842H242.072L257.202 12.2848C257.396 16.4875 257.59 21.4015 257.784 26.8973C257.978 32.3931 258.172 37.3071 258.366 41.5098C258.56 45.7125 258.624 48.0401 258.624 48.4281C258.624 49.5273 258.172 50.3031 257.267 50.7557C256.297 51.273 255.327 51.5316 254.357 51.5963V51.9842H267.482V51.5963C266.383 51.5316 265.349 51.273 264.444 50.8204C263.538 50.3678 263.021 49.5273 262.892 48.4281C262.698 44.2254 262.504 39.3114 262.31 33.7509C262.116 28.1904 261.922 23.2119 261.728 18.8152C261.534 14.4832 261.405 11.9615 261.405 11.3796C261.405 10.2805 261.857 9.43992 262.827 8.92266C263.732 8.47007 264.702 8.21144 265.672 8.14678Z" fill="#F5F5F5"/>
<path fill-rule="evenodd" clip-rule="evenodd" d="M181.984 6C180.792 6 179.826 6.96616 179.826 8.15797C179.826 9.34979 180.792 10.3159 181.984 10.3159H198.182C199.374 10.3159 200.34 9.34979 200.34 8.15797C200.34 6.96616 199.374 6 198.182 6H181.984Z" fill="white"/>
<path fill-rule="evenodd" clip-rule="evenodd" d="M184.427 10.3162H196.245V24.3635H184.427V10.3162Z" fill="white"/>
<path d="M203.927 18.2057C195.074 14.1812 183.531 15.1196 176.619 18.2383C174.913 19.0081 174 20.797 174 22.6686L174 35.0285L174 46.3442C174 49.4494 176.517 51.9666 179.622 51.9666H191.491H201.05C204.155 51.9666 206.672 49.4494 206.672 46.3442V22.7904C206.672 20.8521 205.692 19.0079 203.927 18.2057Z" fill="white"/>
</svg>
