<svg width="599" height="177" viewBox="0 0 599 177" fill="none" xmlns="http://www.w3.org/2000/svg">
<path d="M200.801 101.338L215.806 140.356H186.145L200.801 101.338ZM185.214 172.065L185.098 171.358C182.655 171.24 180.561 170.651 178.7 169.354C176.839 168.176 176.374 166.172 177.304 163.46L184.865 143.775H217.202L225.461 164.639C225.926 166.172 225.693 167.468 224.879 168.411C223.949 169.472 222.785 170.179 221.273 170.533C219.761 171.005 218.482 171.24 217.202 171.358V172.065H244.654L244.77 171.358C242.327 171.24 240.117 170.533 238.14 169.236C236.162 168.058 234.65 166.407 233.72 164.286L205.105 91.3186H201.266C198.242 99.3344 195.218 107.35 192.077 115.366C185.796 131.751 179.514 148.018 173.117 164.403C172.302 166.525 170.907 168.176 168.929 169.354C166.952 170.533 164.742 171.24 162.415 171.358L162.532 172.065H185.214Z" fill="white"/>
<path d="M261.537 94.7371H270.029C278.055 95.0908 283.987 96.8589 287.709 100.277C291.432 103.696 293.176 108.411 292.944 114.423C292.827 120.317 291.083 125.15 287.593 128.922C284.103 132.812 278.287 134.816 270.029 135.052H261.537V94.7371ZM253.977 98.6271V164.757C253.977 167.115 253.162 168.765 251.65 169.708C250.138 170.769 248.277 171.24 246.183 171.358V172.065H269.214V171.358C267.237 171.24 265.376 170.769 263.864 169.708C262.352 168.765 261.537 167.115 261.537 164.875V138.47H268.865C271.89 138.47 274.449 139.295 276.659 141.063C278.753 142.832 280.614 145.071 282.242 147.783C283.755 150.494 285.267 153.441 286.662 156.388C287.709 158.627 288.873 160.749 289.919 162.753C292.13 166.643 294.456 169.354 296.899 170.769C299.341 172.183 302.482 172.773 306.204 172.655C308.531 172.655 311.09 172.419 313.881 172.065V171.358C311.322 171.358 308.88 170.651 306.553 169.354C304.227 168.058 302.249 166.407 300.621 164.403C297.946 160.985 295.735 157.213 293.874 153.205C292.362 150.022 290.734 147.193 288.989 144.6C287.244 142.006 285.15 140.12 282.591 138.942C280.614 137.881 278.404 137.291 275.728 137.056C284.103 136.23 290.268 133.755 294.34 129.393C298.411 125.15 300.505 120.199 300.621 114.659C300.737 110.297 299.69 106.407 297.364 102.871C295.038 99.4523 291.548 96.6232 286.895 94.5014C282.126 92.3795 276.31 91.3186 269.447 91.3186H246.183V92.1438C248.277 92.1438 250.138 92.6153 251.65 93.5583C253.162 94.6192 253.977 96.2695 253.977 98.6271Z" fill="white"/>
<path d="M316.271 171.358V172.065H339.302V171.358C337.324 171.24 335.463 170.769 333.951 169.826C332.439 168.883 331.625 167.232 331.625 164.993V134.226H346.281C348.026 134.226 349.305 134.934 350.236 136.23C351.05 137.527 351.632 139.059 351.981 140.828C352.33 142.596 352.446 144.128 352.446 145.425H353.144V119.61H352.446C352.446 121.024 352.33 122.556 351.981 124.207C351.632 125.975 350.934 127.507 350.12 128.804C349.305 130.101 347.91 130.808 346.165 130.808H331.625V94.855H353.377C358.495 94.855 362.333 96.1517 365.009 98.8629C367.684 101.574 369.545 105.346 370.825 110.061L371.523 109.943L366.87 90.7292C364.776 91.2008 362.566 91.4365 360.24 91.4365C350.12 91.3186 340.116 91.3186 329.996 91.4365H316.271V92.1438C318.364 92.2617 320.225 92.7332 321.738 93.6762C323.25 94.7371 323.948 96.3874 323.948 98.6271V164.757C323.948 167.115 323.25 168.765 321.738 169.708C320.225 170.769 318.364 171.24 316.271 171.358Z" fill="white"/>
<path d="M382.676 98.745V148.254C383.257 157.684 385.933 164.168 390.818 167.586C393.842 169.826 397.216 171.358 400.822 172.065C404.428 172.773 408.033 173.126 411.639 173.126C426.877 172.537 434.787 164.639 435.601 149.197V98.745C435.601 96.3874 436.416 94.7371 437.928 93.6762C439.44 92.7332 441.185 92.2617 443.278 92.1438V91.4365H424.667V92.1438C426.761 92.2617 428.622 92.7332 430.134 93.6762C431.646 94.7371 432.344 96.3874 432.344 98.745V144.482C432.344 152.38 430.6 158.509 427.226 162.871C423.853 167.35 419.084 169.59 413.152 169.708C405.125 169.708 399.309 167.586 395.82 163.342C392.214 159.217 390.469 153.087 390.353 145.189V98.5092C390.353 96.3874 391.167 94.7371 392.796 93.6762C394.308 92.6153 396.052 92.1438 398.03 92.1438V91.4365H374.999V92.1438C377.092 92.2617 378.953 92.7332 380.466 93.6762C381.978 94.7371 382.676 96.3874 382.676 98.745Z" fill="white"/>
<path d="M536.822 92.1438V91.4365H521.118L494.714 161.574L465.866 91.4365H450.047V92.1438C451.792 92.2617 453.536 92.7332 455.281 93.5583C456.91 94.5014 457.724 96.0338 457.724 98.0377L455.049 165.582C454.7 167.586 453.769 169.119 452.257 169.944C450.628 170.769 448.767 171.24 446.79 171.358V172.065H465.983V171.358C464.238 171.24 462.609 170.769 460.981 169.826C459.236 169.001 458.422 167.586 458.422 165.582L460.981 99.688L490.759 172.065H494.365L521.584 99.688C521.933 107.35 522.282 116.309 522.631 126.329C522.98 136.348 523.329 145.307 523.678 152.969C524.026 160.631 524.143 164.875 524.143 165.582C524.143 167.586 523.328 169.001 521.7 169.826C519.955 170.769 518.21 171.24 516.466 171.358V172.065H540.079V171.358C538.101 171.24 536.24 170.769 534.612 169.944C532.983 169.119 532.052 167.586 531.82 165.582C531.471 157.92 531.122 148.961 530.773 138.824C530.424 128.686 530.075 119.61 529.726 111.594C529.377 103.696 529.145 99.0986 529.145 98.0377C529.145 96.0338 529.959 94.5014 531.704 93.5583C533.332 92.7332 535.077 92.2617 536.822 92.1438Z" fill="white"/>
<path d="M558.926 94.7371H584.982C587.192 94.7371 589.053 95.4444 590.565 96.9768C592.077 98.5092 593.241 100.395 594.287 102.399C595.218 104.521 595.916 106.525 596.498 108.411L597.195 108.293C596.498 105.464 595.683 102.399 594.869 98.9808C594.055 95.5623 593.473 92.8511 592.892 90.7292C590.914 91.2008 588.82 91.4365 586.61 91.3186H543.572V92.1438C545.666 92.1438 547.527 92.6153 549.039 93.5583C550.551 94.6192 551.249 96.2695 551.249 98.6271V164.757C551.249 167.115 550.551 168.765 549.039 169.708C547.527 170.769 545.666 171.24 543.572 171.358V172.065H588.355C590.449 172.065 592.426 172.301 594.171 172.655C594.869 169.944 595.567 167.35 596.149 164.757L598.94 153.441L598.242 153.323C596.963 158.156 595.102 161.81 592.426 164.521C589.751 167.232 585.912 168.647 580.794 168.647H558.926V133.401H576.025C577.77 133.401 579.05 134.109 579.864 135.405C580.678 136.702 581.26 138.234 581.609 140.003C581.958 141.771 582.074 143.303 582.074 144.6H582.772V118.784H582.074C582.074 120.199 581.958 121.731 581.609 123.382C581.26 125.15 580.678 126.682 579.864 127.979C578.933 129.276 577.537 129.983 575.793 129.983H558.926V94.7371Z" fill="white"/>
<path fill-rule="evenodd" clip-rule="evenodd" d="M146.34 41.3001L144.491 45.0181C140.428 54.4976 136.551 64.348 132.859 74.198C129.5 83.4584 125.799 92.549 121.756 101.633C121.58 102.029 121.404 102.425 121.226 102.821C121.662 102.801 122.096 102.778 122.528 102.752C139.409 101.727 153.626 95.5936 165.007 84.5234C176.68 73.1696 182.404 59.0441 182.551 41.9603C181.591 28.4071 174.884 18.3951 162.614 12.2953C155.764 21.0384 150.401 30.7065 146.34 41.3001ZM162.942 13.7655C156.447 22.2122 151.329 31.5264 147.423 41.7155L147.404 41.7672L145.545 45.5054C141.496 54.9527 137.631 64.7733 133.948 74.5997C130.647 83.6991 127.017 92.633 123.061 101.555C139.418 100.438 153.165 94.4233 164.198 83.6914C175.621 72.5806 181.236 58.7742 181.39 41.9965C180.471 29.1931 174.293 19.7088 162.942 13.7655ZM175.591 2.9812C171.137 4.19146 167.476 6.66624 164.464 10.2597C164.213 10.5583 163.967 10.8647 163.726 11.1786C164.071 11.3677 164.413 11.5582 164.751 11.7499C180.619 20.7441 188.665 32.6044 189.062 47.3305C189.468 62.3704 183.557 75.9393 171.143 88.0375C158.729 100.136 141.66 106.117 119.933 105.981C114.391 118.434 107.361 129.963 98.6576 140.382C94.0276 145.777 88.0974 150.99 80.867 156.02C73.6365 161.05 65.6607 164.968 56.9389 167.402C48.9597 169.834 40.9764 170.409 32.6174 169.129C24.2584 167.848 17.0093 164.708 11.2415 159.707C5.47369 154.707 2.48615 147.472 2.27928 138.188C2.25853 129.089 5.9558 121.838 13.1863 116.808C13.3715 116.622 13.7429 116.621 13.929 116.807C14.0221 116.899 14.0687 116.992 14.1153 117.085C14.162 117.177 14.2086 117.27 14.3017 117.363C14.3021 117.549 14.1168 117.735 13.9316 117.921C9.29652 121.088 6.14996 125.552 4.67673 130.94C3.20349 136.329 3.40189 141.899 5.45675 147.279C9.74793 156.183 16.6316 161.923 26.1081 164.687C38.5565 167.815 50.4372 166.303 61.7511 160.521C72.8794 154.739 82.7022 146.546 91.4059 136.127C99.6301 126.248 106.123 116.2 111.052 106.15C111.229 105.79 111.403 105.431 111.575 105.071C111.183 104.994 110.793 104.912 110.405 104.826C107.851 104.261 105.395 103.517 103.101 102.592C102.656 102.413 102.218 102.227 101.785 102.034C101.785 102.034 101.784 102.033 101.783 102.033C101.64 101.969 101.497 101.904 101.355 101.839C101.332 101.828 101.31 101.818 101.287 101.807C101.248 101.789 101.208 101.771 101.169 101.752C101.076 101.753 101.03 101.753 101.007 101.73C100.983 101.706 100.983 101.66 100.983 101.567C100.89 101.475 100.843 101.428 100.843 101.382C100.843 101.335 100.89 101.289 100.982 101.196L101.354 101.195C101.378 101.198 101.402 101.2 101.426 101.203C101.613 101.224 101.803 101.247 101.998 101.271C102.023 101.274 102.048 101.278 102.072 101.281C102.096 101.284 102.119 101.287 102.143 101.29C102.549 101.342 102.971 101.401 103.405 101.463C103.471 101.472 103.538 101.482 103.605 101.491C104.725 101.65 105.918 101.819 107.112 101.925C108.931 102.251 110.602 102.431 112.126 102.594C112.315 102.615 112.5 102.635 112.684 102.655C117.119 93.1743 120.996 83.3239 124.502 73.4743C128.378 63.2525 132.44 53.0303 137.059 43.1782C138.907 39.0888 141.311 34.8124 144.272 30.3491C147.048 26.0719 149.824 21.9804 152.415 18.4464C154.199 16.1651 155.983 13.8838 158.017 11.7268C158.305 11.4213 158.598 11.1184 158.897 10.8183C158.5 10.6674 158.103 10.5194 157.706 10.3745C145.824 6.04312 133.522 4.36093 120.859 5.26978C119.837 5.34319 118.812 5.4335 117.784 5.54068C113.21 6.01783 108.59 6.82937 103.926 7.97258C101.481 8.56642 99.0915 9.23466 96.759 9.97695C80.6843 15.0924 67.2902 23.7241 56.4529 35.7487C49.6002 43.5633 45.721 52.4853 44.6294 62.3294C43.352 72.1739 47.6419 80.5202 57.1277 87.3691C65.3078 91.6213 74.0348 91.4157 83.123 86.7527C92.2111 82.0897 99.0677 75.9463 103.879 68.6934C107.58 63.1143 110.537 56.7941 112.749 49.7328C114.142 45.4048 114.431 41.153 113.663 36.9771C113.249 34.7242 112.527 32.4933 111.505 30.2846C111.502 30.2796 111.5 30.2747 111.498 30.2697C111.467 30.2032 111.436 30.1367 111.404 30.0702C111.343 29.9406 111.281 29.8111 111.218 29.6817C111.218 29.664 111.218 29.6463 111.218 29.6286C111.218 29.5225 111.225 29.4164 111.272 29.3102C111.299 29.2483 111.34 29.1863 111.402 29.1242L111.588 29.1238C111.681 29.1236 111.727 29.1235 111.75 29.1467C111.774 29.1698 111.774 29.2162 111.774 29.3091C111.789 29.3353 111.804 29.3616 111.819 29.3879C111.875 29.4851 111.929 29.5825 111.984 29.68C111.993 29.6972 112.003 29.7145 112.012 29.7317C113.252 31.9694 114.18 34.2971 114.795 36.7176C116.654 44.0239 115.671 52.1755 111.847 61.2476C106.675 73.515 98.7132 83.3747 88.1463 91.0121C77.3937 98.6499 66.4414 100.16 55.1033 95.3584C47.2942 90.9196 42.822 84.0593 41.872 74.5912C40.7367 65.3093 42.017 56.7646 45.5277 49.1433C51.812 36.3164 61.6302 26.081 74.7968 18.4377C81.6954 14.433 88.9018 11.2431 96.4158 8.86827C98.7972 8.11563 101.209 7.44483 103.653 6.85589C103.653 6.85569 103.654 6.85549 103.655 6.85529C108.215 5.75608 112.883 4.94203 117.659 4.41315C118.701 4.29778 119.737 4.19771 120.767 4.11293C134.97 2.9437 148.051 4.6828 160.008 9.33021C164.178 5.1411 169.241 2.55049 175.197 1.73243C175.209 1.73076 175.221 1.72911 175.233 1.72746C175.297 1.71885 175.36 1.71045 175.423 1.70225C175.478 1.69514 175.533 1.68818 175.588 1.68137C175.774 1.68095 175.96 1.68053 176.146 1.86579C176.332 2.05107 176.332 2.23675 176.147 2.42286L175.591 2.9812ZM159.728 7.97993C146.896 3.13006 132.823 1.56622 117.532 3.25964C101.966 4.98342 87.5229 9.70812 74.2141 17.434C60.8661 25.1826 50.8792 35.5824 44.4855 48.6327L44.4794 48.6452L44.4736 48.6578C40.8672 56.4868 39.5618 65.2462 40.7185 74.7197C41.7076 84.5432 46.3865 91.7386 54.5298 96.3673L54.5886 96.4007L54.6507 96.427C66.3976 101.402 77.7727 99.8043 88.8184 91.9583L88.8261 91.9527C99.5624 84.1929 107.661 74.1649 112.916 61.6985C118.146 49.2926 118.228 38.3841 112.905 28.9499C112.873 28.7958 112.791 28.5454 112.569 28.3241C112.269 28.0256 111.918 27.9833 111.821 27.9727C111.724 27.9622 111.622 27.963 111.592 27.9632L111.585 27.9632L110.919 27.9648L110.58 28.3054C110.053 28.835 110.056 29.4397 110.057 29.6627C110.057 29.6704 110.057 29.6776 110.057 29.6844L110.058 29.9513L110.175 30.1912C113.22 36.4241 113.761 42.7982 111.644 49.3772L111.641 49.3858C109.459 56.3536 106.547 62.5728 102.912 68.0519C98.219 75.1262 91.5188 81.1405 82.5932 85.7201C73.8259 90.2185 65.5232 90.3964 57.7381 86.3782C48.5583 79.7251 44.5734 71.7795 45.7803 62.4787L45.7817 62.468L45.7828 62.4573C46.8479 52.8539 50.6261 44.156 57.3202 36.5199C69.5652 22.9357 85.1172 13.7337 104.2 9.10038L104.203 9.09977C122.504 4.61345 140.093 5.29713 156.834 11.2936C154.903 13.3818 153.195 15.5656 151.52 17.7072L151.49 17.7456L151.479 17.76C148.872 21.3163 146.084 25.4255 143.302 29.712C140.316 34.2134 137.882 38.5406 136.005 42.6929C131.368 52.5827 127.295 62.8347 123.416 73.0628L123.412 73.074L123.408 73.0852C120.004 82.6511 116.252 92.2055 111.983 101.412C110.533 101.255 108.989 101.083 107.317 100.782L107.266 100.773L107.214 100.769C106.224 100.681 105.228 100.548 104.255 100.411C104.094 100.388 103.933 100.365 103.773 100.343C102.976 100.23 102.195 100.119 101.479 100.041L101.415 100.034L100.499 100.036L100.16 100.377L100.151 100.385C100.117 100.419 100.037 100.5 99.9701 100.583C99.9025 100.668 99.6818 100.955 99.6828 101.384C99.6835 101.696 99.8005 101.932 99.8907 102.07C99.9385 102.214 100.026 102.391 100.188 102.552C100.442 102.805 100.734 102.874 100.876 102.896C103.657 104.178 106.699 105.177 109.883 105.898C105.012 115.775 98.6116 125.658 90.514 135.385C81.8966 145.7 72.1924 153.787 61.2206 159.488C50.1555 165.143 38.5701 166.617 26.4122 163.567C17.2721 160.896 10.6674 155.389 6.52357 146.82C4.57539 141.69 4.39025 136.389 5.7962 131.246C7.19775 126.12 10.1816 121.889 14.5863 118.879L14.6768 118.817L14.7694 118.724C14.8509 118.642 14.9959 118.497 15.1163 118.336C15.2355 118.176 15.4633 117.832 15.4622 117.36L15.4611 116.879L15.161 116.581C15.1584 116.576 15.1555 116.57 15.1522 116.563L15.1452 116.549C15.0941 116.447 14.9764 116.212 14.7478 115.984C14.3872 115.625 13.9243 115.507 13.5547 115.508C13.2187 115.508 12.806 115.608 12.4641 115.897C4.94783 121.152 1.0972 128.751 1.11872 138.19L1.11875 138.202L1.11901 138.213C1.33136 147.744 4.41077 155.321 10.4813 160.584C16.4376 165.748 23.8985 168.967 32.4416 170.276C40.9666 171.582 49.1214 170.996 57.2636 168.516C66.1165 166.044 74.2054 162.068 81.5297 156.973C88.8225 151.9 94.8312 146.623 99.5384 141.138L99.5482 141.126C108.164 130.812 115.15 119.424 120.684 107.143C142.277 107.138 159.415 101.088 171.953 88.8686C184.564 76.5786 190.638 62.7088 190.222 47.2992C189.813 32.1201 181.509 19.9678 165.495 10.8376C168.344 7.49715 171.763 5.22387 175.896 4.10117L176.195 4.01983L176.97 3.24165C177.188 3.02181 177.448 2.65057 177.446 2.14136C177.445 1.63217 177.185 1.26214 176.965 1.0433C176.435 0.516225 175.83 0.519494 175.607 0.520716L175.586 0.520814L175.516 0.520974L175.446 0.529566C169.315 1.28697 164.065 3.8336 159.728 7.97993Z" fill="white"/>
<path fill-rule="evenodd" clip-rule="evenodd" d="M159.218 46.3264L157.369 50.0444C153.306 59.5238 149.429 69.3743 145.737 79.2243C142.378 88.4846 138.677 97.5752 134.634 106.66C134.458 107.055 134.281 107.451 134.104 107.847C134.54 107.828 134.974 107.805 135.406 107.778C152.287 106.754 166.504 100.62 177.885 89.5496C189.558 78.1959 195.282 64.0704 195.429 46.9865C194.469 33.4333 187.762 23.4214 175.492 17.3215C168.642 26.0646 163.279 35.7328 159.218 46.3264ZM175.82 18.7917C169.325 27.2385 164.207 36.5527 160.301 46.7418L160.281 46.7934L158.423 50.5316C154.374 59.979 150.509 69.7995 146.826 79.626C143.525 88.7254 139.895 97.6593 135.939 106.581C152.296 105.464 166.043 99.4496 177.076 88.7177C188.499 77.6068 194.114 63.8005 194.268 47.0228C193.348 34.2194 187.171 24.735 175.82 18.7917ZM188.469 8.00745C184.015 9.2177 180.354 11.6925 177.342 15.286C177.091 15.5846 176.845 15.8909 176.604 16.2049C176.949 16.394 177.291 16.5844 177.629 16.7761C193.497 25.7703 201.543 37.6306 201.94 52.3567C202.346 67.3967 196.435 80.9656 184.021 93.0637C171.607 105.162 154.538 111.143 132.811 111.007C127.269 123.461 120.239 134.99 111.535 145.408C106.906 150.804 100.975 156.016 93.7449 161.047C86.5144 166.077 78.5387 169.994 69.8168 172.428C61.8376 174.86 53.8543 175.436 45.4953 174.155C37.1363 172.874 29.8872 169.734 24.1194 164.733C18.3516 159.733 15.3641 152.498 15.1572 143.214C15.1365 134.115 18.8337 126.865 26.0642 121.835C26.2494 121.648 26.6208 121.648 26.8069 121.833C26.9 121.926 26.9466 122.018 26.9933 122.111C27.0399 122.204 27.0865 122.296 27.1796 122.389C27.18 122.575 26.9947 122.761 26.8095 122.947C22.1744 126.114 19.0279 130.578 17.5547 135.966C16.0814 141.355 16.2798 146.925 18.3347 152.305C22.6259 161.209 29.5095 166.949 38.986 169.713C51.4344 172.842 63.3151 171.329 74.629 165.547C85.7573 159.765 95.5802 151.572 104.284 141.154C112.508 131.275 119.001 121.227 123.93 111.176C124.107 110.817 124.281 110.457 124.453 110.097C124.061 110.02 123.671 109.938 123.283 109.853C120.729 109.287 118.273 108.543 115.979 107.618C115.534 107.439 115.096 107.253 114.663 107.06C114.663 107.06 114.662 107.059 114.661 107.059C114.518 106.995 114.375 106.93 114.233 106.865C114.21 106.855 114.188 106.844 114.165 106.834C114.126 106.815 114.086 106.797 114.047 106.779C113.954 106.779 113.908 106.779 113.885 106.756C113.861 106.733 113.861 106.686 113.861 106.593C113.768 106.501 113.721 106.455 113.721 106.408C113.721 106.362 113.767 106.315 113.86 106.222L114.231 106.221C114.256 106.224 114.28 106.227 114.304 106.229C114.49 106.25 114.681 106.273 114.876 106.298C114.901 106.301 114.926 106.304 114.95 106.307C114.974 106.31 114.997 106.313 115.021 106.316C115.426 106.368 115.849 106.428 116.283 106.489C116.349 106.498 116.416 106.508 116.483 106.517C117.603 106.676 118.796 106.845 119.99 106.951C121.809 107.277 123.48 107.457 125.004 107.621C125.192 107.641 125.378 107.661 125.562 107.681C129.997 98.2006 133.874 88.3502 137.38 78.5006C141.256 68.2788 145.318 58.0565 149.937 48.2044C151.785 44.115 154.189 39.8387 157.15 35.3753C159.926 31.0981 162.702 27.0066 165.293 23.4726C167.077 21.1913 168.861 18.9101 170.895 16.753C171.183 16.4476 171.476 16.1446 171.775 15.8445C171.378 15.6936 170.981 15.5457 170.583 15.4007C158.702 11.0694 146.4 9.38717 133.737 10.296C132.715 10.3694 131.69 10.4597 130.662 10.5669C126.088 11.0441 121.468 11.8556 116.804 12.9988C114.358 13.5927 111.969 14.2609 109.637 15.0032C93.5622 20.1187 80.1682 28.7504 69.3309 40.775C62.4781 48.5896 58.599 57.5116 57.5073 67.3556C56.2299 77.2001 60.5198 85.5464 70.0056 92.3953C78.1857 96.6475 86.9127 96.4419 96.0009 91.779C105.089 87.116 111.946 80.9726 116.757 73.7197C120.458 68.1405 123.415 61.8203 125.627 54.759C127.02 50.4311 127.309 46.1792 126.541 42.0034C126.127 39.7504 125.405 37.5196 124.382 35.3108C124.38 35.3059 124.378 35.3009 124.376 35.296C124.345 35.2295 124.314 35.163 124.282 35.0965C124.221 34.9669 124.159 34.8374 124.096 34.708C124.096 34.6903 124.096 34.6725 124.096 34.6548C124.096 34.5487 124.103 34.4426 124.15 34.3365C124.177 34.2745 124.218 34.2125 124.28 34.1505L124.466 34.1501C124.559 34.1498 124.605 34.1497 124.628 34.1729C124.652 34.1961 124.652 34.2425 124.652 34.3353C124.667 34.3616 124.682 34.3879 124.697 34.4142C124.752 34.5114 124.807 34.6087 124.862 34.7062C124.871 34.7235 124.881 34.7407 124.89 34.758C126.13 36.9956 127.058 39.3234 127.673 41.7439C129.532 49.0501 128.549 57.2018 124.725 66.2739C119.553 78.5412 111.591 88.401 101.024 96.0384C90.2716 103.676 79.3193 105.187 67.9813 100.385C60.1722 95.9459 55.6999 89.0855 54.7499 79.6175C53.6146 70.3356 54.8949 61.7909 58.4057 54.1696C64.6899 41.3426 74.5081 31.1072 87.6747 23.4639C94.5733 19.4592 101.78 16.2694 109.294 13.8945C111.675 13.1419 114.087 12.4711 116.53 11.8821C116.531 11.8819 116.532 11.8817 116.533 11.8815C121.093 10.7823 125.761 9.96827 130.537 9.43939C131.579 9.32403 132.615 9.22396 133.645 9.13918C147.848 7.96995 160.929 9.70904 172.886 14.3565C177.056 10.1673 182.119 7.57673 188.075 6.75867C188.087 6.75701 188.099 6.75535 188.111 6.7537C188.174 6.7451 188.238 6.7367 188.301 6.72849C188.356 6.72138 188.411 6.71442 188.466 6.70762C188.652 6.70719 188.838 6.70677 189.024 6.89203C189.21 7.07731 189.21 7.26299 189.025 7.4491L188.469 8.00745ZM172.606 13.0062C159.774 8.1563 145.701 6.59247 130.409 8.28588C114.844 10.0097 100.401 14.7344 87.0921 22.4602C73.7441 30.2089 63.7571 40.6086 57.3635 53.659L57.3574 53.6714L57.3516 53.684C53.7452 61.513 52.4397 70.2725 53.5964 79.7459C54.5855 89.5695 59.2644 96.7648 67.4078 101.394L67.4665 101.427L67.5287 101.453C79.2756 106.429 90.6506 104.831 101.696 96.9846L101.704 96.979C112.44 89.2192 120.539 79.1912 125.794 66.7247C131.024 54.3188 131.106 43.4104 125.783 33.9762C125.751 33.822 125.669 33.5717 125.447 33.3504C125.147 33.0518 124.796 33.0095 124.699 32.999C124.602 32.9884 124.5 32.9892 124.469 32.9895L124.463 32.9895L123.797 32.991L123.458 33.3317C122.93 33.8612 122.934 34.4659 122.935 34.6889C122.935 34.6966 122.935 34.7039 122.935 34.7106L122.936 34.9776L123.053 35.2174C126.098 41.4504 126.639 47.8244 124.522 54.4035L124.519 54.4121C122.337 61.3799 119.425 67.5991 115.79 73.0781C111.097 80.1524 104.397 86.1668 95.4711 90.7464C86.7038 95.2447 78.4012 95.4227 70.6161 91.4045C61.4363 84.7513 57.4514 76.8057 58.6582 67.505L58.6596 67.4943L58.6608 67.4835C59.7258 57.8802 63.5041 49.1822 70.1981 41.5462C82.4431 27.962 97.9951 18.7599 117.078 14.1266L117.081 14.126C135.382 9.63969 152.971 10.3234 169.712 16.3198C167.781 18.4081 166.073 20.5918 164.398 22.7335L164.368 22.7718L164.357 22.7863C161.75 26.3425 158.962 30.4518 156.18 34.7383C153.194 39.2397 150.76 43.5668 148.883 47.7191C144.246 57.609 140.173 67.861 136.294 78.0891L136.29 78.1002L136.286 78.1114C132.881 87.6774 129.13 97.2317 124.861 106.438C123.411 106.282 121.867 106.109 120.195 105.809L120.144 105.799L120.092 105.795C119.102 105.707 118.106 105.574 117.133 105.437C116.972 105.414 116.811 105.392 116.651 105.369C115.854 105.256 115.072 105.145 114.357 105.067L114.293 105.061L113.377 105.063L113.038 105.403L113.029 105.412C112.995 105.445 112.914 105.526 112.848 105.61C112.78 105.694 112.56 105.981 112.561 106.411C112.561 106.723 112.678 106.958 112.769 107.097C112.816 107.24 112.904 107.417 113.066 107.578C113.32 107.832 113.612 107.901 113.754 107.922C116.535 109.204 119.577 110.203 122.761 110.925C117.89 120.801 111.49 130.684 103.392 140.411C94.7746 150.726 85.0704 158.813 74.0985 164.515C63.0334 170.169 51.4481 171.643 39.2901 168.593C30.15 165.922 23.5454 160.415 19.4015 151.846C17.4533 146.716 17.2682 141.415 18.6741 136.273C20.0757 131.146 23.0595 126.915 27.4643 123.905L27.5547 123.843L27.6473 123.75C27.7288 123.669 27.8738 123.523 27.9942 123.362C28.1135 123.202 28.3412 122.858 28.3401 122.386L28.3391 121.906L28.0389 121.607C28.0363 121.602 28.0334 121.596 28.0301 121.59L28.0231 121.576C27.9721 121.474 27.8544 121.238 27.6257 121.01C27.2651 120.651 26.8022 120.533 26.4326 120.534C26.0966 120.535 25.684 120.634 25.3421 120.923C17.8258 126.178 13.9751 133.777 13.9967 143.216L13.9967 143.228L13.9969 143.24C14.2093 152.77 17.2887 160.347 23.3592 165.61C29.3155 170.774 36.7764 173.993 45.3195 175.302C53.8446 176.608 61.9993 176.022 70.1416 173.543C78.9944 171.07 87.0833 167.095 94.4077 161.999C101.7 156.926 107.709 151.649 112.416 146.164L112.426 146.152C121.042 135.838 128.028 124.45 133.562 112.17C155.155 112.164 172.293 106.114 184.831 93.8949C197.442 81.6048 203.516 67.735 203.1 52.3254C202.691 37.1463 194.387 24.994 178.373 15.8638C181.222 12.5234 184.641 10.2501 188.774 9.12741L189.073 9.04608L189.848 8.2679C190.066 8.04806 190.325 7.67681 190.324 7.16761C190.323 6.65842 190.062 6.28839 189.843 6.06955C189.313 5.54247 188.708 5.54574 188.485 5.54696L188.464 5.54706L188.394 5.54722L188.324 5.55581C182.193 6.31321 176.943 8.85985 172.606 13.0062Z" fill="white" fill-opacity="0.5"/>
</svg>
